<svg width="260" height="206" viewBox="0 0 260 206" fill="none" xmlns="http://www.w3.org/2000/svg">
<path d="M26.8686 138.591C26.8686 138.591 25.5358 150.386 30.5967 155.571C35.6576 160.756 52.7696 162.004 53.7949 163.745C54.8201 165.486 71.8576 204.278 71.8576 204.278C74.6536 206.996 94.2262 200.405 94.7482 193.879C94.7482 193.879 79.2206 161.864 78.475 158.122C77.7293 154.38 83.7595 138.256 83.657 130.995L26.8686 138.591Z" fill="#E6E7E8"/>
<path d="M83.6851 130.995C83.7877 138.256 77.7574 154.37 78.5031 158.122C79.2487 161.874 94.7763 193.879 94.7763 193.879C94.3196 199.372 80.4044 204.901 74.3369 204.901C73.4714 204.993 72.6016 204.772 71.8857 204.278C71.8857 204.278 54.8482 165.486 53.823 163.745C52.7978 162.004 35.723 160.757 30.6248 155.571C25.5266 150.386 26.8967 138.591 26.8967 138.591L83.7504 130.995H83.6851ZM83.7504 130.064H83.6292L26.7756 137.66C26.568 137.686 26.3751 137.781 26.228 137.929C26.0809 138.078 25.9882 138.272 25.9647 138.479C25.9088 138.982 24.6505 150.777 29.991 156.214C33.3463 159.63 41.2965 161.371 47.1031 162.637C49.517 163.168 52.5181 163.829 53.0774 164.257C54.1212 166.175 66.3774 193.972 71.0562 204.641C71.108 204.75 71.1773 204.851 71.2612 204.939C72.1445 205.619 73.2552 205.935 74.3649 205.823C80.7306 205.823 95.2143 200.088 95.7363 193.954C95.7493 193.787 95.7171 193.62 95.643 193.469C91.3371 184.588 80.0409 160.887 79.4444 157.926C79.1275 156.335 80.3764 151.41 81.6347 146.699C83.07 141.114 84.7011 134.858 84.6451 130.967C84.6425 130.835 84.612 130.706 84.5558 130.587C84.4996 130.469 84.4189 130.363 84.3189 130.278C84.1501 130.134 83.9352 130.054 83.7131 130.054L83.7504 130.064Z" fill="#231F20"/>
<path d="M76.7506 138.693C75.0149 141.014 74.0092 143.797 73.8613 146.69C73.7401 151.196 79.4534 160.738 79.4534 160.738L92.3154 152.425L85.7912 137.325L76.7506 138.693Z" fill="white"/>
<path d="M79.454 161.185H79.3515C79.2301 161.15 79.1246 161.075 79.0532 160.971C78.8202 160.57 73.2653 151.261 73.3958 146.662C73.5523 143.671 74.6079 140.797 76.4249 138.414C76.4972 138.325 76.6001 138.265 76.7138 138.247L85.6986 136.859C85.8006 136.842 85.9054 136.86 85.9965 136.908C86.0876 136.957 86.1599 137.035 86.2019 137.129L92.7261 152.229C92.7682 152.331 92.7735 152.444 92.7412 152.55C92.7089 152.655 92.6409 152.746 92.549 152.806L79.687 161.12C79.6164 161.161 79.5361 161.184 79.454 161.185ZM77.0494 139.131C75.4313 141.332 74.4861 143.955 74.3278 146.681C74.2253 150.479 78.5313 158.187 79.6124 160.058L91.7288 152.229L85.4842 137.818L77.0494 139.131Z" fill="#231F20"/>
<path d="M162.861 170.894C162.861 170.894 120.127 139.457 95.1861 139.243C88.8779 139.258 82.5781 139.706 76.3312 140.583C61.5959 142.445 46.8232 145.778 36.543 146.318C16.1502 147.398 0.781077 141.086 0.436227 119.814C0.137978 101.614 8.71263 98.1513 26.8126 92.8729C35.7601 90.2756 53.0399 87.4735 69.3783 82.6327C79.3324 79.7095 88.9509 76.051 96.0809 71.2381C114.945 58.5308 128.702 30.0071 128.702 30.0071L162.861 170.894Z" fill="white"/>
<path d="M162.861 171.388C162.761 171.389 162.664 171.359 162.581 171.304C154.72 165.645 146.572 160.394 138.171 155.571C120.183 145.331 105.336 139.811 95.2233 139.745C88.9204 139.756 82.6261 140.211 76.3871 141.105C70.3382 141.877 64.3266 142.883 58.5108 143.897C50.3555 145.266 42.6663 146.56 36.5709 146.876C23.3267 147.584 13.5218 145.07 7.46364 139.429C2.62642 134.923 0.109947 128.36 0.00742382 119.879C-0.300145 101.261 8.95488 97.6579 26.7193 92.4819C30.5034 91.3834 35.7414 90.257 41.8088 88.9444C50.2623 87.0825 59.8436 85.0624 69.2757 82.2882C80.926 78.8717 89.6219 75.1573 95.8571 70.9588C114.395 58.4657 128.217 30.1933 128.357 29.9047C128.398 29.817 128.466 29.7443 128.55 29.6967C128.635 29.6491 128.732 29.6291 128.828 29.6393C128.925 29.6496 129.015 29.6896 129.088 29.7539C129.161 29.8181 129.211 29.9034 129.233 29.9978L163.336 170.82C163.359 170.912 163.352 171.009 163.317 171.098C163.282 171.186 163.22 171.262 163.14 171.313C163.059 171.37 162.96 171.397 162.861 171.388V171.388ZM94.3472 138.805H95.1861C105.615 138.898 120.22 144.27 138.609 154.78C149.84 161.203 159.114 167.673 162.106 169.824L128.553 31.4221C125.757 36.8773 112.923 60.5044 96.3138 71.6942C89.9947 75.9579 81.215 79.7095 69.4807 83.154C60.0113 85.9468 50.4115 88.0041 41.9393 89.8288C35.8905 91.1321 30.6711 92.2585 26.915 93.3477C9.12265 98.533 0.575961 101.828 0.87421 119.833C1.01401 128.006 3.42797 134.346 8.06946 138.675C13.9412 144.139 23.5038 146.569 36.4963 145.88C42.5172 145.564 50.1971 144.279 58.3337 142.911C64.1495 141.98 70.1704 140.928 76.2379 140.118C82.2457 139.286 88.3009 138.841 94.3659 138.786L94.3472 138.805Z" fill="#231F20"/>
<path d="M177.755 174.562C162.135 177.653 144.202 156.753 133.223 125.139C127.685 109.076 124.356 92.3376 123.325 75.3807C121.396 41.7461 129.97 15.4286 145.675 12.31C165.099 8.47457 188.026 41.6902 196.89 86.4867C205.754 131.283 197.188 170.727 177.755 174.562Z" fill="#E6E7E8"/>
<path d="M148.778 12.0121C167.475 12.0121 188.492 44.0548 196.89 86.4867C205.753 131.302 197.188 170.727 177.755 174.562C176.733 174.767 175.694 174.87 174.651 174.869C159.814 174.869 143.512 154.677 133.223 125.139C127.685 109.076 124.355 92.3376 123.325 75.3806C121.395 41.7461 129.97 15.4286 145.675 12.31C146.697 12.1086 147.737 12.0088 148.778 12.0121V12.0121ZM148.778 11.0812C147.677 11.0788 146.578 11.1849 145.498 11.3977C129.653 14.5256 120.333 40.2566 122.393 75.4365C123.434 92.4781 126.779 109.301 132.337 125.446C143 156.037 159.609 175.8 174.651 175.8C175.753 175.8 176.852 175.69 177.932 175.474C187.719 173.547 195.147 163.112 198.847 146.094C202.482 129.337 202.118 108.103 197.803 86.3098C193.739 65.7548 186.526 46.7545 177.485 32.8277C168.444 18.901 158.183 11.0812 148.778 11.0812V11.0812Z" fill="#231F20"/>
<path d="M164.81 113.232L133.223 125.139C127.686 109.077 124.356 92.3377 123.325 75.3807L159.115 74.8501L164.81 113.232Z" fill="#231F20"/>
<path d="M133.222 125.604C133.154 125.619 133.084 125.619 133.017 125.604C132.96 125.578 132.91 125.54 132.868 125.494C132.826 125.448 132.794 125.393 132.774 125.335C127.231 109.231 123.896 92.4523 122.857 75.4552C122.853 75.3926 122.862 75.3298 122.883 75.2706C122.904 75.2114 122.936 75.157 122.979 75.1107C123.021 75.0636 123.073 75.026 123.13 75.0003C123.188 74.9746 123.251 74.9615 123.314 74.9618L159.104 74.4312C159.215 74.4323 159.323 74.4733 159.407 74.5467C159.49 74.6202 159.545 74.7212 159.561 74.8315L165.274 113.177C165.287 113.282 165.265 113.388 165.211 113.479C165.157 113.57 165.074 113.641 164.976 113.679L133.38 125.586C133.329 125.602 133.275 125.608 133.222 125.604V125.604ZM123.817 75.8369C124.875 92.4264 128.134 108.802 133.51 124.534L164.267 112.935L158.675 75.3248L123.817 75.8369Z" fill="#231F20"/>
<path d="M164.813 113.228C169.748 112.475 172.438 103.283 170.82 92.6959C169.202 82.109 163.889 74.1368 158.953 74.8894C154.017 75.6421 151.327 84.8346 152.946 95.4214C154.564 106.008 159.877 113.981 164.813 113.228Z" fill="white"/>
<path d="M164.157 113.744C159.124 113.744 154.091 105.99 152.488 95.4981C151.676 90.7914 151.867 85.9668 153.047 81.3386C154.24 77.2798 156.309 74.8221 158.891 74.4404C161.473 74.0587 164.176 75.7623 166.524 79.2906C169.032 83.3532 170.652 87.8993 171.278 92.6308C172.965 103.634 170.15 112.888 164.884 113.689C164.643 113.726 164.4 113.744 164.157 113.744V113.744ZM159.609 75.3155C159.417 75.2967 159.223 75.2967 159.031 75.3155C156.831 75.6413 155.023 77.8662 153.942 81.562C152.799 86.0571 152.618 90.7423 153.411 95.3119C154.986 105.627 160.065 113.419 164.744 112.72C169.423 112.022 171.939 103.039 170.336 92.7239C169.717 88.1211 168.129 83.7016 165.676 79.756C163.793 76.8702 161.64 75.3155 159.609 75.3155Z" fill="#231F20"/>
<path d="M20.2985 141.663C20.2144 141.664 20.1317 141.642 20.0593 141.6C19.987 141.557 19.9278 141.495 19.8884 141.421C13.2151 129.03 11.8543 118.958 11.8823 112.692C11.8823 105.869 13.5226 102.033 13.5972 101.875C13.6194 101.816 13.6532 101.763 13.6967 101.718C13.7401 101.673 13.7922 101.637 13.8499 101.612C13.9075 101.587 13.9696 101.575 14.0323 101.574C14.095 101.574 14.1571 101.587 14.2148 101.611C14.2726 101.636 14.3248 101.672 14.3683 101.717C14.4119 101.762 14.4459 101.815 14.4683 101.874C14.4907 101.932 14.501 101.995 14.4987 102.057C14.4963 102.12 14.4813 102.181 14.4547 102.238C14.3894 102.387 8.14482 117.664 20.7086 140.983C20.7375 141.037 20.7555 141.096 20.7613 141.157C20.7671 141.217 20.7607 141.278 20.7425 141.337C20.7242 141.395 20.6945 141.449 20.6551 141.495C20.6156 141.542 20.5673 141.58 20.5128 141.607C20.4475 141.644 20.3736 141.664 20.2985 141.663Z" fill="#D1D3D4"/>
<path d="M75.4273 22.513C75.4273 22.513 73.9267 15.4007 75.1663 15.3541C76.4059 15.3076 77.3939 18.8638 77.3939 18.8638C77.3939 18.8638 80.6933 11.7049 81.4855 12.6358C82.2777 13.5668 83.5453 16.4713 83.2004 17.3556C82.8556 18.24 80.5162 25.0731 80.5162 25.0731L75.4273 22.513Z" fill="white"/>
<path d="M80.5159 25.5479C80.4446 25.5513 80.3737 25.5352 80.3109 25.5013L75.222 22.932C75.1591 22.8989 75.104 22.8527 75.0606 22.7965C75.0171 22.7403 74.9864 22.6753 74.9704 22.6061C74.6628 21.1446 73.7215 16.2758 74.5603 15.2052C74.6288 15.1125 74.7169 15.0361 74.8184 14.9814C74.9199 14.9266 75.0323 14.895 75.1475 14.8887H75.194C76.2472 14.8887 77.0581 16.4154 77.4775 17.5977C78.6146 15.2425 80.2736 12.2356 81.2056 12.1052C81.3218 12.0883 81.4403 12.1018 81.5497 12.1442C81.6592 12.1866 81.7558 12.2566 81.8301 12.3473C82.585 13.2782 84.0856 16.3317 83.6289 17.5326C83.2934 18.3983 80.9726 25.1662 80.9447 25.2407C80.9224 25.3025 80.8878 25.3591 80.8429 25.4071C80.7981 25.4551 80.7439 25.4935 80.6837 25.52C80.6296 25.538 80.573 25.5475 80.5159 25.5479V25.5479ZM75.8558 22.1965L80.2643 24.4308C80.8235 22.8203 82.5012 17.9142 82.7808 17.1974C83.0045 16.6296 82.0817 14.1812 81.2616 13.092C80.5998 13.6133 79.0247 16.4899 77.841 19.0593C77.8017 19.147 77.7352 19.2197 77.6512 19.2667C77.5673 19.3137 77.4704 19.3323 77.375 19.32C77.2802 19.3136 77.1898 19.2779 77.1163 19.2179C77.0428 19.1578 76.9899 19.0763 76.9649 18.9848C76.5641 17.5419 75.7906 15.9593 75.2779 15.829C74.9704 16.3596 75.222 19.2082 75.8372 22.1965H75.8558Z" fill="#231F20"/>
<path d="M37.9872 39.1302C37.9872 39.1302 58.4079 40.7221 62.6393 38.4041L73.9261 21.3773L82.7431 25.5293C82.7431 25.5293 76.5824 43.8407 71.5588 49.1843C63.4408 57.7581 37.5957 54.0717 37.5957 54.0717L37.9872 39.1302Z" fill="#333333"/>
<path d="M19.4035 86.7939C19.4035 86.7939 8.21922 68.4173 7.79049 55.5611C7.36175 42.7049 15.6288 40.9269 18.4902 40.4055C21.3515 39.8842 36.469 36.0302 42.8813 42.2674C49.2937 48.5046 51.7542 81.6365 51.7542 81.6365L19.4035 86.7939Z" fill="#333333"/>
<path d="M51.6137 75.0083C51.6137 75.0083 59.3402 77.1774 71.5498 83.5077C77.142 86.4122 84.505 123.193 84.505 123.193C84.505 123.193 84.1322 129.291 77.114 129.17L54.0184 89.9032C54.0184 89.9032 45.742 75.5203 51.6137 75.0083Z" fill="#231F20"/>
<path d="M77.3193 129.598H77.1049C77.0248 129.598 76.9462 129.576 76.8773 129.535C76.8084 129.494 76.7518 129.436 76.7134 129.366L53.6178 90.1547C53.3662 89.7171 47.541 79.4955 49.433 75.8555C49.6385 75.4637 49.9443 75.1333 50.3192 74.8978C50.6941 74.6623 51.1248 74.5302 51.5674 74.515C51.626 74.5057 51.6858 74.5057 51.7444 74.515C51.819 74.515 59.6574 76.7678 71.7644 83.0516C74.2156 84.3177 77.1795 91.43 80.5814 104.268C83.0885 113.735 84.9433 122.961 84.9619 123.054C84.9669 123.094 84.9669 123.135 84.9619 123.175C84.9619 123.249 84.4866 129.598 77.3193 129.598ZM51.5767 75.4459C51.3034 75.4588 51.0383 75.5429 50.8078 75.6899C50.5772 75.8369 50.3892 76.0416 50.2625 76.2838C48.8831 78.9369 52.7976 86.8592 54.4287 89.6892L77.3752 128.667C83.3402 128.667 83.9739 123.799 84.0392 123.184C81.9887 112.944 75.7628 86.1796 71.3356 83.8802C65.0135 80.4875 58.401 77.6649 51.5767 75.4459V75.4459Z" fill="#231F20"/>
<path d="M18.1924 82.7909C18.1924 82.7909 44.401 80.4542 50.4405 78.8344C50.4405 78.8344 50.7947 78.8344 56.2937 86.6263C61.7926 94.4182 59.7888 133.052 59.7888 133.052C59.7888 133.052 54.5974 140.025 49.7974 139.68L39.1164 97.1272C39.1164 97.1272 29.6843 98.5236 23.9803 95.3864C19.9726 93.1708 19.4693 87.5014 18.1924 82.7909Z" fill="#231F20"/>
<path d="M50.1422 140.174H49.76C49.6612 140.168 49.5668 140.13 49.4912 140.067C49.4155 140.003 49.3627 139.916 49.3406 139.82L38.7621 97.6672C36.8421 97.8999 28.9106 98.654 23.7565 95.8053C20.308 93.9435 19.3387 89.6984 18.3973 85.6303C18.1923 84.6993 17.9779 83.7684 17.7449 82.9306C17.7256 82.8647 17.7215 82.7953 17.7328 82.7276C17.7441 82.6599 17.7705 82.5956 17.8101 82.5396C17.8495 82.4856 17.8997 82.4404 17.9574 82.4068C18.0152 82.3731 18.0793 82.3518 18.1457 82.3441C18.4066 82.3441 44.3916 79.9981 50.3193 78.3969C50.3747 78.387 50.4315 78.387 50.487 78.3969C50.7107 78.3969 51.0556 78.4528 56.6664 86.3843C62.2772 94.3159 60.3385 131.516 60.2547 133.098C60.2479 133.189 60.2156 133.276 60.1615 133.35C59.9471 133.657 55.026 140.174 50.1422 140.174ZM39.1163 96.6711C39.2212 96.6702 39.3233 96.7045 39.4062 96.7687C39.489 96.8329 39.5478 96.9232 39.573 97.0249L50.1608 139.243C54.2431 139.243 58.6702 133.741 59.332 132.894C59.4531 130.296 61.0842 94.2135 55.9114 86.9056C51.9224 81.2735 50.6734 79.7561 50.3193 79.3558C44.345 80.8546 22.6474 82.8654 18.7981 83.2192C18.9845 83.936 19.1523 84.6714 19.3293 85.4161C20.2614 89.2888 21.1934 93.2918 24.2225 94.9861C29.7214 98.0117 38.9765 96.6897 39.0697 96.6711H39.1163Z" fill="#231F20"/>
<path d="M25.2092 30.6214C24.7432 30.5284 24.1839 26.8977 24.0907 26.5067C23.4797 24.4238 23.2896 22.2403 23.5315 20.0833C23.6026 18.791 23.9795 17.534 24.6313 16.4154C24.9691 15.8647 25.4842 15.445 26.0921 15.2251C26.7001 15.0052 27.3648 14.9982 27.9773 15.2052C28.3119 15.4455 28.7042 15.5932 29.1144 15.6334C29.4129 15.5664 29.6871 15.4182 29.9066 15.2052C30.8751 14.4154 31.9939 13.8299 33.1954 13.4843C34.3969 13.1387 35.6561 13.0401 36.8968 13.1944C38.1346 13.3725 39.2995 13.8869 40.2644 14.6815C41.2292 15.4762 41.9569 16.5204 42.3678 17.7001C42.2746 17.2067 42.9736 16.8716 43.4303 17.095C43.8531 17.3737 44.1532 17.8034 44.2691 18.2959C44.8655 19.6791 44.9578 21.2272 44.5301 22.6713C43.9243 24.1515 42.3025 24.2166 40.802 24.2166C36.524 24.2353 29.7854 31.571 25.2092 30.6214Z" fill="white"/>
<path d="M26.0669 31.1707C25.7539 31.171 25.4416 31.1398 25.1349 31.0776V31.0776C24.6222 30.9752 24.3333 30.3515 23.7461 27.0932C23.7461 26.8605 23.6716 26.6836 23.6529 26.6092C23.0377 24.4728 22.8508 22.2361 23.103 20.0275C23.1891 18.6648 23.5946 17.3415 24.2867 16.1641C24.6812 15.5226 25.2848 15.0364 25.996 14.7872C26.7072 14.538 27.4826 14.541 28.1919 14.7956C28.3013 14.8441 28.4072 14.9001 28.5088 14.9632C28.6801 15.0824 28.879 15.1561 29.0867 15.1773C29.2815 15.1154 29.4599 15.0104 29.6086 14.8701C30.6274 14.0322 31.8068 13.4109 33.0745 13.0443C34.3422 12.6777 35.6715 12.5736 36.9809 12.7383C38.1513 12.9171 39.2622 13.3718 40.2216 14.0647C41.1811 14.7575 41.9616 15.6687 42.4985 16.7226C42.677 16.6355 42.8731 16.5902 43.0717 16.5902C43.2704 16.5902 43.4664 16.6355 43.6449 16.7226C43.9147 16.8828 44.1494 17.0956 44.3352 17.3483C44.5209 17.601 44.6539 17.8884 44.7261 18.1935C45.3695 19.6741 45.4555 21.3371 44.9684 22.8761C44.2135 24.738 42.1723 24.738 40.8395 24.738C38.9755 24.738 36.4963 26.2833 34.073 27.7821C31.3515 29.3926 28.5274 31.1707 26.0669 31.1707ZM25.4238 30.2398C27.7166 30.6308 30.7084 28.7782 33.607 26.9908C36.2446 25.3524 38.7425 23.8164 40.8488 23.807C42.3587 23.807 43.6449 23.7046 44.1203 22.5503C44.506 21.2134 44.4103 19.7838 43.85 18.51C43.768 18.1365 43.5527 17.8056 43.2442 17.5791C43.1987 17.5588 43.1495 17.5483 43.0997 17.5483C43.0499 17.5483 43.0007 17.5588 42.9552 17.5791C42.9089 17.5923 42.8691 17.6222 42.8434 17.6629C42.8634 17.7809 42.838 17.9021 42.7723 18.0022C42.7066 18.1023 42.6055 18.174 42.4892 18.2028C42.3745 18.2292 42.254 18.2112 42.152 18.1525C42.05 18.0938 41.974 17.9987 41.9393 17.8863C41.5587 16.7865 40.8812 15.8132 39.9815 15.0739C39.0818 14.3346 37.995 13.8581 36.8411 13.6971C35.6633 13.5485 34.4675 13.6428 33.3277 13.9742C32.1879 14.3057 31.1282 14.8672 30.2144 15.6241C29.9245 15.8937 29.5614 16.0718 29.1705 16.1362C28.7756 16.1477 28.3872 16.0336 28.0614 15.8103L27.8005 15.6707C27.2839 15.5053 26.7266 15.5193 26.219 15.7103C25.7114 15.9012 25.2833 16.258 25.0044 16.7226C24.4041 17.7878 24.0536 18.975 23.9791 20.195C23.7455 22.2894 23.9292 24.4092 24.5197 26.4323C24.5197 26.5161 24.5197 26.7022 24.6129 26.9629C24.7613 28.0638 25.0237 29.1464 25.3958 30.1932L25.4238 30.2398Z" fill="#231F20"/>
<path d="M38.322 37.6407L38.0051 44.5669C37.4234 45.6577 36.4645 46.5001 35.3069 46.9368C34.1494 47.3736 32.8724 47.375 31.7139 46.9407C27.2308 45.5723 26.8301 42.2861 26.8301 42.2861L27.6316 29.4671C27.6316 29.4671 31.425 27.4563 32.5714 19.4969C32.5714 19.4969 42.4695 19.0872 42.2644 22.8389C42.2644 22.8389 43.1965 29.7464 42.5534 33.2467C41.9103 36.747 38.3872 37.5942 38.322 37.6407Z" fill="white"/>
<path d="M33.5987 47.7041C32.9157 47.6985 32.2373 47.5918 31.5856 47.3876C26.8602 45.9446 26.3849 42.4909 26.3662 42.3512L27.1678 29.4485C27.1724 29.3684 27.1981 29.2909 27.2423 29.2239C27.2865 29.1569 27.3476 29.1027 27.4194 29.0668C27.4194 29.0668 31.017 27.0281 32.0795 19.441C32.0966 19.333 32.1504 19.2342 32.2319 19.1613C32.3134 19.0884 32.4176 19.0458 32.5269 19.0407C32.8158 19.0407 39.7501 18.7614 41.9777 21.0236C42.2286 21.2613 42.4239 21.5515 42.5496 21.8733C42.6752 22.1952 42.7282 22.5408 42.7047 22.8854C42.7047 23.0902 43.6367 29.8209 42.9843 33.3677C42.7548 34.4483 42.2421 35.4487 41.4987 36.2665C40.7552 37.0844 39.8077 37.6903 38.7529 38.0224L38.436 44.632C38.4457 44.6906 38.4457 44.7503 38.436 44.8089C37.9588 45.6762 37.2594 46.4014 36.4095 46.9101C35.5595 47.4188 34.5895 47.6928 33.5987 47.7041ZM28.0811 29.7464L27.261 42.3233C27.261 42.3233 27.699 45.2371 31.8186 46.4939C32.8538 46.8989 34.001 46.9145 35.0469 46.5378C36.0927 46.161 36.9659 45.4176 37.5039 44.4458L37.8208 37.6221C37.8253 37.551 37.8451 37.4818 37.8789 37.4191C37.9127 37.3565 37.9596 37.3019 38.0166 37.259C38.0784 37.2237 38.144 37.1956 38.2123 37.1752C39.1533 36.9122 40.0067 36.4022 40.6836 35.6982C41.3605 34.9942 41.8363 34.122 42.0615 33.1722C42.686 29.7836 41.7819 22.932 41.7726 22.932C41.7914 22.7054 41.7594 22.4775 41.6787 22.2649C41.5981 22.0523 41.471 21.8604 41.3066 21.7031C39.7967 20.1764 35.062 19.9437 32.9184 19.9902C31.9211 26.7302 28.9479 29.1692 28.0811 29.7464Z" fill="#231F20"/>
<path d="M30.3184 29.3926C30.1878 28.7596 29.8619 28.1833 29.3863 27.7449C28.9287 27.3471 28.4051 27.0321 27.8392 26.814C27.5498 26.6679 27.2313 26.5883 26.9071 26.5812C26.6752 26.5991 26.4497 26.6657 26.2454 26.7767C25.739 26.9887 25.3256 27.3752 25.0804 27.8659C24.9297 28.2797 24.8848 28.7245 24.9499 29.1599C24.9755 29.6348 25.0632 30.1042 25.2109 30.5563C25.372 31.0058 25.621 31.4189 25.9433 31.7714C26.2657 32.124 26.6549 32.409 27.0886 32.61C27.5222 32.8109 27.9914 32.9238 28.4691 32.942C28.9468 32.9602 29.4233 32.8834 29.871 32.7161" fill="white"/>
<path d="M28.6126 33.4701C28.0206 33.4722 27.4353 33.3451 26.8977 33.0977C25.9126 32.633 25.1495 31.8006 24.7726 30.7797C24.6043 30.2894 24.5009 29.7793 24.4651 29.2623C24.3973 28.7504 24.4549 28.2297 24.6328 27.7448C24.9252 27.1544 25.4171 26.6862 26.0215 26.4229C26.2831 26.2895 26.5679 26.2074 26.8604 26.1809C27.2605 26.1788 27.6557 26.2679 28.0161 26.4415C28.6278 26.672 29.1953 27.0058 29.6937 27.4283C30.2376 27.9199 30.6099 28.5723 30.7562 29.2902C30.778 29.4111 30.7511 29.5357 30.6812 29.6369C30.6114 29.738 30.5043 29.8075 30.3834 29.8301C30.2612 29.8521 30.1353 29.8254 30.0325 29.7558C29.9298 29.6862 29.8584 29.5793 29.8335 29.4578C29.739 28.9239 29.4702 28.4362 29.0693 28.0707C28.6441 27.7281 28.1655 27.4576 27.6526 27.2701C27.4243 27.1523 27.173 27.0856 26.9163 27.0746C26.7467 27.093 26.5822 27.1436 26.4316 27.2235C26.0319 27.3893 25.7024 27.6888 25.4996 28.0707C25.3801 28.4174 25.3449 28.7876 25.3971 29.1506C25.423 29.5851 25.5076 30.0141 25.6487 30.4259C25.7837 30.8213 25.9956 31.1861 26.2723 31.4992C26.5491 31.8124 26.8851 32.0677 27.2611 32.2506C28.0255 32.5973 28.8956 32.6307 29.6844 32.3436C29.7994 32.3012 29.9265 32.3058 30.0381 32.3563C30.1498 32.4069 30.237 32.4993 30.2809 32.6136C30.3032 32.6704 30.3139 32.731 30.3123 32.792C30.3108 32.853 30.297 32.913 30.2718 32.9685C30.2466 33.0241 30.2105 33.074 30.1656 33.1154C30.1208 33.1568 30.0681 33.1887 30.0106 33.2094C29.5643 33.3802 29.0906 33.4686 28.6126 33.4701V33.4701Z" fill="#231F20"/>
<path d="M36.2916 26.8605C36.2916 26.8605 38.5937 30.4725 38.0158 31.0776C37.438 31.6827 35.8535 31.2359 35.8535 31.2359" fill="white"/>
<path d="M36.9724 31.8689C36.5528 31.8623 36.1359 31.7997 35.7329 31.6827C35.6717 31.6662 35.6143 31.6378 35.5641 31.5992C35.5139 31.5605 35.4718 31.5124 35.4402 31.4575C35.4086 31.4026 35.3881 31.342 35.38 31.2792C35.3718 31.2164 35.3761 31.1527 35.3927 31.0915C35.4092 31.0304 35.4376 30.9731 35.4763 30.923C35.515 30.8728 35.5632 30.8308 35.6181 30.7992C35.6731 30.7677 35.7337 30.7472 35.7966 30.7391C35.8594 30.7309 35.9233 30.7352 35.9845 30.7517C36.5158 30.9007 37.4198 30.9938 37.6808 30.7517C37.2905 29.4494 36.6892 28.2198 35.9006 27.1118C35.8415 27.0083 35.8244 26.886 35.8528 26.7703C35.8812 26.6545 35.953 26.5541 36.0534 26.4896C36.1538 26.4252 36.2751 26.4017 36.3923 26.4239C36.5095 26.4461 36.6138 26.5124 36.6835 26.6091C38.3425 29.2157 38.9017 30.8262 38.3518 31.4034C38.165 31.5695 37.9465 31.6963 37.7095 31.7762C37.4725 31.8562 37.2219 31.8877 36.9724 31.8689Z" fill="#231F20"/>
<path d="M33.4864 26.741C33.8107 26.7345 34.0661 26.3584 34.0569 25.9009C34.0478 25.4434 33.7775 25.0778 33.4533 25.0843C33.129 25.0908 32.8736 25.4669 32.8828 25.9244C32.892 26.3819 33.1622 26.7475 33.4864 26.741Z" fill="#231F20"/>
<path d="M38.3263 27.3609C38.6505 27.3533 38.9046 26.9763 38.8938 26.5188C38.883 26.0613 38.6114 25.6967 38.2872 25.7043C37.963 25.712 37.7089 26.089 37.7197 26.5464C37.7305 27.0039 38.0021 27.3686 38.3263 27.3609Z" fill="#231F20"/>
<path d="M35.9927 34.9782C35.4026 34.9871 34.8167 34.8795 34.2684 34.6617C33.5792 34.3491 32.9746 33.877 32.5045 33.2845C32.0345 32.692 31.7126 31.9961 31.5655 31.2545C31.549 31.1934 31.5447 31.1296 31.5528 31.0668C31.561 31.004 31.5814 30.9434 31.613 30.8885C31.6446 30.8336 31.6867 30.7855 31.7369 30.7469C31.7872 30.7082 31.8445 30.6798 31.9057 30.6633C31.9669 30.6468 32.0308 30.6425 32.0936 30.6507C32.1565 30.6588 32.2171 30.6792 32.2721 30.7108C32.327 30.7424 32.3752 30.7844 32.4139 30.8346C32.4526 30.8847 32.481 30.942 32.4975 31.0031C32.6124 31.6045 32.8671 32.1705 33.2411 32.6556C33.615 33.1407 34.0978 33.5313 34.6505 33.7959C36.729 34.6338 39.4039 33.0977 39.4318 33.0791C39.5383 33.018 39.6645 33.0014 39.7832 33.0327C39.9019 33.0641 40.0034 33.141 40.0656 33.2467C40.1272 33.3544 40.1442 33.4819 40.1128 33.602C40.0815 33.722 40.0043 33.8251 39.8978 33.889C38.701 34.5563 37.3625 34.9297 35.9927 34.9782V34.9782Z" fill="#231F20"/>
<path d="M38.3239 37.6407C38.3239 37.6407 33.9714 38.432 31.4922 36.868C31.4922 36.868 34.0366 42.8074 38.1096 42.3885L38.3239 37.6407Z" fill="#231F20"/>
<path d="M37.6903 42.8725C33.6081 42.8725 31.1662 37.2869 31.0636 37.0449C31.0251 36.9542 31.017 36.8536 31.0405 36.7579C31.064 36.6623 31.1179 36.5768 31.1941 36.5143C31.2727 36.4531 31.3694 36.4199 31.4691 36.4199C31.5687 36.4199 31.6654 36.4531 31.744 36.5143C34.0368 37.9665 38.2029 37.2311 38.2682 37.2218C38.3369 37.2077 38.408 37.2096 38.4759 37.2273C38.5438 37.2451 38.6067 37.2782 38.6596 37.3242C38.7135 37.3694 38.7559 37.4267 38.7835 37.4914C38.811 37.5561 38.8229 37.6264 38.8181 37.6966L38.5944 42.4443C38.5907 42.5554 38.5474 42.6616 38.4722 42.7436C38.3969 42.8255 38.2948 42.8779 38.1843 42.8912L37.6903 42.8725ZM32.5269 37.8548C33.4589 39.3908 35.2484 41.9137 37.6624 41.9416L37.8395 38.2179C36.0624 38.4629 34.2539 38.3393 32.5269 37.8548V37.8548Z" fill="#231F20"/>
<path d="M12.4589 42.9005C5.70173 46.7732 -3.05001 79.9888 2.20662 83.1633C10.483 88.1066 36.179 79.0765 36.179 79.0765L32.8517 69.1621C32.8517 69.1621 15.9354 71.6384 15.283 68.2312C14.6305 64.824 22.8324 47.4714 21.22 45.2278C19.6076 42.9843 12.4589 42.9005 12.4589 42.9005Z" fill="#333333"/>
<path d="M31.4541 72.7927C34.2932 72.6258 37.1058 72.1513 39.8423 71.3777C41.8496 70.6366 43.9407 70.1457 46.0683 69.9161C48.8975 69.7261 51.738 70.0413 54.4565 70.8471C54.5651 70.8681 54.6654 70.9198 54.7455 70.996C55.0344 71.3125 54.4845 71.7221 54.0558 71.7873C52.9405 71.9548 51.8064 71.9548 50.6911 71.7873C53.4781 72.4574 56.1617 73.5002 58.6693 74.8873C58.9582 75.0456 59.2844 75.3062 59.1912 75.6134C59.098 75.9206 58.5481 75.9393 58.1846 75.8275L51.7909 73.7702C53.4351 74.2108 54.9942 74.9218 56.4045 75.8741C56.6095 76.0137 56.8332 76.1999 56.8146 76.442C56.8146 76.8609 56.1528 76.8609 55.7614 76.7119C53.8044 76.0137 51.9116 75.1479 50.104 74.1239L54.1956 76.5444C54.2794 76.8516 53.9812 77.1495 53.6736 77.196C53.3498 77.2177 53.0264 77.1467 52.7416 76.9912L48.2772 75.0083L51.0733 76.5257C51.5113 76.7678 52.0053 77.1681 51.8841 77.6522C51.763 78.1363 50.8962 78.1456 50.3277 77.9687C48.0638 77.292 45.732 76.8674 43.3747 76.7026C42.5376 76.5345 41.6838 76.4626 40.8303 76.4885C39.5529 76.8048 38.3055 77.2315 37.1022 77.7639L31.5939 79.7375" fill="white"/>
<path d="M31.6403 80.1657C31.5411 80.1629 31.4459 80.1258 31.371 80.0607C31.2961 79.9956 31.2461 79.9066 31.2296 79.8088C31.2131 79.711 31.2311 79.6106 31.2805 79.5245C31.3299 79.4385 31.4077 79.3723 31.5005 79.3372L37.0088 77.3636C37.3723 77.2426 37.7451 77.0843 38.1179 76.9354C38.9729 76.5441 39.8706 76.2535 40.7928 76.0696C41.4152 76.0023 42.0443 76.0337 42.6569 76.1627C42.9281 76.2142 43.2019 76.2515 43.4771 76.2744C45.8675 76.4356 48.2317 76.8697 50.5232 77.5684C50.8258 77.6685 51.1526 77.6685 51.4552 77.5684C51.489 77.5499 51.5153 77.5203 51.5298 77.4846C51.5298 77.3264 51.3247 77.075 50.9146 76.8516L48.1186 75.3342C48.0218 75.2827 47.9491 75.1954 47.916 75.091C47.8829 74.9866 47.892 74.8734 47.9415 74.7756C47.9881 74.6764 48.0718 74.5994 48.1746 74.5611C48.2774 74.5229 48.3911 74.5263 48.4914 74.5708L52.9558 76.4885C53.1588 76.6 53.3859 76.6607 53.6175 76.6654H53.7014L49.8987 74.4125C49.8507 74.3847 49.8088 74.3476 49.7752 74.3034C49.7417 74.2592 49.7173 74.2088 49.7034 74.1551C49.6896 74.1014 49.6865 74.0455 49.6944 73.9906C49.7024 73.9357 49.7211 73.883 49.7496 73.8354C49.8062 73.7388 49.8983 73.6682 50.0063 73.6387C50.1142 73.6091 50.2295 73.6229 50.3275 73.6771C52.113 74.6921 53.9842 75.5488 55.9196 76.2372C56.0683 76.2926 56.2281 76.3117 56.3856 76.293L56.1899 76.1534C55.2264 75.5033 54.1913 74.966 53.1049 74.5522L51.6789 74.096C51.5741 74.0617 51.4866 73.9884 51.4345 73.8913C51.3825 73.7942 51.3698 73.6808 51.3993 73.5747C51.4318 73.4679 51.504 73.3776 51.601 73.3222C51.6981 73.2668 51.8126 73.2506 51.9212 73.2768C52.4152 73.4164 52.9092 73.5747 53.3845 73.7516L58.3336 75.3435C58.4952 75.3879 58.6659 75.3879 58.8276 75.3435C58.8276 75.3435 58.6971 75.2504 58.4827 75.1387C56.0076 73.768 53.3584 72.7378 50.6071 72.0759C50.5001 72.0514 50.4071 71.986 50.3478 71.8938C50.2886 71.8016 50.2679 71.6898 50.2902 71.5825C50.3127 71.4753 50.3756 71.3809 50.4657 71.3186C50.5558 71.2562 50.6665 71.2307 50.7748 71.2474C51.8498 71.4103 52.9433 71.4103 54.0183 71.2474C54.1249 71.2332 54.2269 71.195 54.3165 71.1357C51.6688 70.3614 48.9039 70.065 46.152 70.2606C44.3191 70.4452 42.516 70.8548 40.7835 71.4801L40.0286 71.7128C37.261 72.4911 34.4173 72.9686 31.5471 73.1372C31.4338 73.145 31.322 73.1086 31.235 73.0357C31.1481 72.9628 31.0929 72.859 31.0811 72.7462C31.0734 72.634 31.1101 72.5234 31.1833 72.438C31.2565 72.3527 31.3604 72.2995 31.4725 72.29C34.2826 72.128 37.0669 71.6629 39.7769 70.9029L40.5225 70.6702C42.3258 70.0164 44.2049 69.5941 46.1147 69.4134C48.9809 69.2168 51.8593 69.5321 54.6148 70.3444C54.8009 70.3879 54.9717 70.4812 55.1088 70.6143C55.1994 70.7092 55.2614 70.8276 55.2878 70.956C55.3141 71.0844 55.3038 71.2177 55.2579 71.3405C55.1532 71.5485 54.999 71.7277 54.8089 71.8624C54.6188 71.9971 54.3986 72.0832 54.1674 72.1131H53.8878C55.6269 72.715 57.3108 73.4656 58.9208 74.3567C59.7689 74.8222 59.713 75.3714 59.6477 75.5855C59.6155 75.6871 59.5635 75.7813 59.4947 75.8628C59.4259 75.9443 59.3418 76.0114 59.247 76.0603C58.877 76.1964 58.4706 76.1964 58.1006 76.0603L57.1126 75.7438C57.2381 75.9088 57.2979 76.1145 57.2804 76.321C57.2712 76.4383 57.2343 76.5517 57.1728 76.6521C57.1112 76.7524 57.0267 76.8367 56.9262 76.8981C56.7276 76.9899 56.5113 77.0374 56.2924 77.0374C56.0736 77.0374 55.8573 76.9899 55.6587 76.8981C55.3356 76.7864 55.0249 76.6654 54.7266 76.5351C54.7059 76.6718 54.655 76.8022 54.5775 76.9168C54.4947 77.0456 54.3854 77.1555 54.2568 77.2389C54.1283 77.3224 53.9834 77.3776 53.8319 77.4008C53.4414 77.433 53.0499 77.3522 52.7041 77.1681L52.4618 77.0657C52.5141 77.2482 52.5141 77.4417 52.4618 77.6243C52.4244 77.7519 52.3613 77.8706 52.2763 77.973C52.1914 78.0755 52.0864 78.1595 51.9678 78.2201C51.4509 78.4127 50.8817 78.4127 50.3647 78.2201C48.1352 77.548 45.8375 77.1265 43.5143 76.9633C43.2161 76.9633 42.9178 76.8888 42.5823 76.8423C42.0679 76.7339 41.5402 76.7025 41.0165 76.7492C40.1627 76.927 39.3313 77.1987 38.5373 77.5591C38.1459 77.7267 37.7637 77.8756 37.3909 78.0153C35.5269 78.6576 33.6628 79.3186 31.8826 79.9795C31.8282 80.0698 31.7417 80.1363 31.6403 80.1657Z" fill="#231F20"/>
<path d="M45.6309 46.9594C46.684 47.7972 50.058 66.7603 51.7543 73.705Z" fill="white"/>
<path d="M51.7544 74.124C51.658 74.1247 51.5642 74.0929 51.4881 74.0338C51.412 73.9747 51.3581 73.8916 51.335 73.7981C50.7292 71.2939 49.8997 67.2816 49.0329 62.9993C47.7374 56.6597 45.9758 47.9834 45.3048 47.2759C45.2617 47.2416 45.2261 47.199 45.1999 47.1507C45.1737 47.1023 45.1575 47.0492 45.1522 46.9945C45.147 46.9398 45.1529 46.8845 45.1695 46.8321C45.1861 46.7797 45.2131 46.7312 45.2489 46.6894C45.3216 46.6021 45.4255 46.5465 45.5386 46.5344C45.6516 46.5222 45.765 46.5544 45.8547 46.6242C46.563 47.1921 47.6628 52.2098 49.8251 62.8318C50.6919 67.0861 51.5121 71.1078 52.1179 73.6026C52.1435 73.7112 52.1256 73.8254 52.0682 73.921C52.0108 74.0166 51.9182 74.0861 51.8103 74.1147L51.7544 74.124Z" fill="#231F20"/>
<path d="M81.1973 78.0525L81.1135 80.8918L43.124 91.1041L43.4409 88.1438L81.1973 78.0525Z" fill="white"/>
<path d="M43.1048 91.5696C42.9952 91.5694 42.8893 91.5297 42.8065 91.4579C42.7485 91.4099 42.7036 91.3481 42.6759 91.2781C42.6482 91.2081 42.6386 91.1323 42.6481 91.0576L42.9556 88.0973C42.9645 88.0031 43.0024 87.9139 43.0642 87.8422C43.126 87.7705 43.2086 87.7197 43.3005 87.697L81.0569 77.6057C81.1271 77.5867 81.2007 77.5844 81.2719 77.599C81.3431 77.6135 81.41 77.6445 81.467 77.6894C81.5257 77.7337 81.5725 77.7916 81.6033 77.8582C81.6342 77.9247 81.6482 77.9979 81.6441 78.0711L81.5602 80.8639C81.5562 80.9638 81.5207 81.0599 81.4588 81.1385C81.3968 81.2171 81.3117 81.2741 81.2154 81.3015L43.2259 91.5417C43.1885 91.561 43.1469 91.5706 43.1048 91.5696V91.5696ZM43.8504 88.5162L43.6454 90.4804L80.6375 80.5381L80.6934 78.6762L43.8504 88.5162Z" fill="#231F20"/>
<path d="M81.1965 78.0524C81.1965 78.0524 71.5127 71.5359 71.2238 71.6569C70.9349 71.778 31.9668 81.1618 31.9668 81.1618L43.4401 88.1438L81.1965 78.0524Z" fill="white"/>
<path d="M43.4399 88.6092C43.3545 88.611 43.2704 88.5884 43.1975 88.544L31.7243 81.5248C31.647 81.4743 31.5857 81.4028 31.5477 81.3186C31.5098 81.2345 31.4966 81.1413 31.5099 81.05C31.5235 80.9596 31.5635 80.8752 31.6248 80.8073C31.6861 80.7394 31.7661 80.6911 31.8548 80.6683C45.1828 77.4566 70.5246 71.359 71.0838 71.1821C71.3261 71.089 71.5591 70.9959 81.4573 77.6242C81.5321 77.6739 81.591 77.7441 81.6267 77.8265C81.6625 77.9088 81.6737 77.9998 81.6589 78.0883C81.6441 78.1768 81.604 78.2592 81.5435 78.3255C81.4829 78.3918 81.4044 78.4392 81.3175 78.462L43.561 88.5999L43.4399 88.6092ZM33.1876 81.3479L43.5331 87.6503L80.1058 77.8662C76.7412 75.6227 72.0531 72.5506 71.2236 72.141C68.8003 72.7554 42.9552 78.9926 33.1689 81.3479H33.1876Z" fill="#231F20"/>
<path d="M43.1231 91.1041L32.0414 83.8615L31.9668 81.1618L43.44 88.1438L43.1231 91.1041Z" fill="white"/>
<path d="M43.1039 91.5696C43.0148 91.5679 42.9278 91.5422 42.8522 91.4951L31.7704 84.2525C31.7067 84.2107 31.6539 84.1542 31.6166 84.0878C31.5793 84.0213 31.5585 83.9469 31.5561 83.8708L31.4815 81.1711C31.4803 81.0883 31.5013 81.0067 31.5423 80.9347C31.5832 80.8627 31.6427 80.8029 31.7145 80.7615C31.7871 80.7207 31.8689 80.6993 31.9522 80.6993C32.0354 80.6993 32.1173 80.7207 32.1898 80.7615L43.6631 87.7528C43.7398 87.7974 43.8019 87.8635 43.8416 87.9429C43.8814 88.0223 43.897 88.1115 43.8868 88.1996L43.5699 91.1507C43.5637 91.2304 43.5362 91.307 43.4903 91.3725C43.4444 91.438 43.3818 91.49 43.3089 91.523C43.2461 91.5569 43.1752 91.573 43.1039 91.5696V91.5696ZM32.4788 83.6008L42.7311 90.2942L42.9361 88.4323L32.4508 82.0462L32.4788 83.6008Z" fill="#231F20"/>
<path d="M81.1969 78.0524L85.6799 52.3215L45.7612 64.0698L43.4404 88.1437L81.1969 78.0524Z" fill="white"/>
<path d="M43.4411 88.6092C43.3762 88.6109 43.3117 88.5987 43.2519 88.5735C43.1921 88.5483 43.1383 88.5107 43.0942 88.4631C43.0501 88.4156 43.0167 88.3592 42.9962 88.2977C42.9756 88.2362 42.9684 88.171 42.9751 88.1065L45.2958 64.0233C45.304 63.9303 45.3406 63.8421 45.4006 63.7705C45.4606 63.6989 45.5411 63.6474 45.6313 63.623L85.5501 51.8746C85.6249 51.8513 85.7046 51.8476 85.7813 51.8639C85.858 51.8802 85.9293 51.9159 85.9881 51.9677C86.0475 52.0205 86.0923 52.0875 86.1184 52.1625C86.1445 52.2374 86.151 52.3178 86.1372 52.396L81.6542 78.1362C81.6402 78.223 81.6009 78.3037 81.5412 78.3683C81.4816 78.4329 81.4041 78.4784 81.3187 78.4993L43.5622 88.5999L43.4411 88.6092ZM46.2372 64.405L44.0096 87.5014L80.8247 77.6615L85.1307 52.9545L46.2372 64.405Z" fill="#231F20"/>
<path d="M23.7472 84.1129C23.646 84.1144 23.5472 84.0823 23.4662 84.0217C23.3852 83.961 23.3267 83.8752 23.2999 83.7777C23.2827 83.719 23.2773 83.6576 23.284 83.5968C23.2906 83.536 23.3092 83.4772 23.3386 83.4236C23.3681 83.37 23.4078 83.3227 23.4555 83.2844C23.5032 83.2462 23.558 83.2177 23.6167 83.2005L31.3246 80.9198L30.4951 71.8339L15.4522 72.0573C15.3851 72.0585 15.3187 72.0449 15.2574 72.0176C15.1962 71.9902 15.1418 71.9498 15.098 71.899C15.0523 71.8476 15.0186 71.7867 14.9992 71.7207C14.9799 71.6547 14.9754 71.5853 14.9862 71.5173L18.9193 47.8344C18.9295 47.7738 18.9515 47.7158 18.9843 47.6637C19.017 47.6116 19.0597 47.5665 19.11 47.5311C19.1602 47.4956 19.217 47.4704 19.2771 47.4569C19.3372 47.4435 19.3993 47.4421 19.4599 47.4528C19.5783 47.4836 19.6803 47.5589 19.7445 47.6629C19.8087 47.767 19.8303 47.8918 19.8048 48.0113L15.9648 71.145L30.8772 70.9216C30.9922 70.9212 31.103 70.9641 31.1877 71.0417C31.2723 71.1194 31.3246 71.2261 31.3339 71.3405L32.266 81.2363C32.275 81.342 32.2476 81.4477 32.1882 81.5357C32.1289 81.6238 32.0412 81.6889 31.9397 81.7204L23.8591 84.1129H23.7472Z" fill="#231F20"/>
<path d="M82.473 116.714C83.0788 116.007 83.7219 115.336 84.393 114.694C85.8562 113.298 89.0531 111.128 90.4045 113.837C91.2154 115.513 90.5537 117.952 90.0876 119.637C89.1643 122.874 87.5238 125.861 85.2877 128.379C83.3491 130.604 76.7317 134.262 76.5732 128.714C76.5935 127.707 76.7989 126.713 77.1791 125.781C78.3766 122.462 80.1707 119.39 82.473 116.714V116.714Z" fill="white"/>
<path d="M79.0259 132.065C78.661 132.069 78.2982 132.01 77.9541 131.888C77.1619 131.609 76.2112 130.827 76.1553 128.732C76.1645 127.669 76.3765 126.617 76.7797 125.632C77.9896 122.262 79.8128 119.143 82.1575 116.435V116.435C82.7633 115.727 83.4158 115.038 84.0961 114.387C84.5528 113.949 86.9481 111.799 88.9613 112.162C89.3715 112.236 89.7568 112.411 90.0822 112.671C90.4077 112.931 90.6631 113.268 90.8254 113.651C91.7574 115.513 91.0118 118.055 90.5458 119.758C89.5977 123.053 87.9226 126.094 85.6433 128.658C84.4503 129.989 81.3746 132.065 79.0259 132.065ZM88.4953 112.972C87.3396 112.972 85.7831 113.949 84.6833 115.001C84.0309 115.634 83.3971 116.295 82.8193 116.984C80.5446 119.617 78.7753 122.647 77.5999 125.921C77.2361 126.808 77.0402 127.755 77.0221 128.714C77.0221 130.017 77.4787 130.818 78.2617 131.097C80.0511 131.739 83.5742 129.729 84.9816 128.109C87.1811 125.643 88.7934 122.712 89.6976 119.535C90.1357 117.962 90.7881 115.569 90.0425 114.033C89.9408 113.776 89.777 113.547 89.5656 113.369C89.3542 113.19 89.1017 113.067 88.8308 113.009C88.7204 112.986 88.608 112.974 88.4953 112.972Z" fill="#231F20"/>
<path d="M59.3778 122.551C59.8134 122.161 60.369 121.931 60.9529 121.899C61.3259 121.945 61.6799 122.09 61.9781 122.318C62.532 122.768 62.9784 123.336 63.2847 123.98C63.5911 124.625 63.7497 125.329 63.749 126.042C63.724 127.474 63.443 128.889 62.9195 130.222C61.5028 134.346 59.3964 138.433 55.864 141.002C55.2357 141.486 54.5298 141.861 53.7763 142.11C47.1962 144.093 49.1907 137.139 50.4862 133.927C52.3261 129.379 55.4067 125.437 59.3778 122.551V122.551Z" fill="white"/>
<path d="M51.7448 142.901C51.337 142.93 50.9279 142.869 50.5462 142.723C50.1646 142.576 49.8197 142.348 49.5359 142.054C47.7837 140.146 49.3402 135.64 50.0951 133.787C51.9675 129.163 55.0953 125.152 59.1265 122.207C59.6452 121.757 60.3039 121.5 60.9905 121.48C61.4492 121.519 61.8866 121.69 62.2488 121.974C62.8567 122.465 63.3464 123.087 63.6819 123.793C64.0174 124.498 64.1902 125.27 64.1874 126.051C64.1652 127.533 63.8779 128.999 63.3393 130.38C61.5684 135.528 59.2104 139.131 56.1347 141.365C55.4669 141.879 54.7169 142.275 53.9165 142.538C53.214 142.763 52.4825 142.886 51.7448 142.901V142.901ZM60.8787 122.328C60.4149 122.388 59.9799 122.586 59.6298 122.895V122.895C55.7296 125.734 52.6989 129.603 50.878 134.067C49.7689 136.804 49.014 140.183 50.1604 141.449C50.7755 142.119 51.9499 142.203 53.6555 141.691C54.3621 141.452 55.0237 141.096 55.6127 140.639C58.5486 138.507 60.8041 135.053 62.5191 130.064C63.0296 128.78 63.3013 127.414 63.3206 126.033C63.3273 125.382 63.1875 124.738 62.9117 124.148C62.6358 123.558 62.2309 123.038 61.7268 122.626C61.4967 122.441 61.2188 122.324 60.9253 122.29L60.8787 122.328Z" fill="#231F20"/>
<path d="M59.5071 101.074C59.386 101.074 59.2698 101.026 59.1842 100.941C59.0985 100.855 59.0504 100.739 59.0504 100.618C59.0504 100.553 58.9013 93.8597 57.4101 90.378C57.3773 90.3214 57.3569 90.2585 57.3501 90.1934C57.3434 90.1283 57.3504 90.0626 57.3708 90.0004C57.3912 89.9383 57.4245 89.8811 57.4685 89.8326C57.5125 89.7842 57.5662 89.7455 57.6261 89.7192C57.6861 89.6929 57.7509 89.6795 57.8164 89.6799C57.8819 89.6803 57.9466 89.6944 58.0062 89.7215C58.0658 89.7485 58.1191 89.7878 58.1625 89.8367C58.2059 89.8857 58.2385 89.9432 58.2582 90.0056C59.824 93.6177 59.9731 100.246 59.9731 100.553C59.9744 100.614 59.9635 100.675 59.9413 100.732C59.919 100.789 59.8857 100.841 59.8433 100.885C59.8008 100.929 59.7502 100.964 59.6941 100.989C59.638 101.013 59.5776 101.027 59.5164 101.028L59.5071 101.074Z" fill="white"/>
<path d="M33.9525 47.5552L31.1564 48.3651L31.9766 50.2269C31.9766 50.2269 26.5988 58.1119 7.12871 56.9855L1.34082 61.333L6.69065 64.3492C6.69065 64.3492 24.2407 65.2801 33.4305 50.4969L35.1641 50.0128L33.9525 47.5552Z" fill="#231F20"/>
<path d="M221.447 0.479238L185.939 9.38751L192.17 34.1627L227.677 25.2544L221.447 0.479238Z" fill="white"/>
<path d="M192.164 34.6152C192.082 34.6135 192.002 34.5911 191.931 34.55C191.877 34.5194 191.83 34.4779 191.793 34.4282C191.756 34.3785 191.73 34.3217 191.716 34.2614L185.481 9.48933C185.453 9.36843 185.473 9.24129 185.538 9.13514C185.602 9.029 185.706 8.95229 185.826 8.92146L221.327 0.0124395C221.448 -0.0157915 221.575 0.00445538 221.682 0.0688401C221.788 0.133225 221.865 0.236627 221.895 0.356887L228.131 25.129C228.159 25.2467 228.138 25.3706 228.075 25.4734C228.044 25.5272 228.003 25.5739 227.953 25.6108C227.903 25.6476 227.846 25.6738 227.786 25.6875L192.285 34.5966L192.164 34.6152ZM186.506 9.71275L192.509 33.5819L227.106 24.8963L221.122 1.02716L186.506 9.71275Z" fill="#D1D3D4"/>
<path d="M192.164 34.6152C192.105 34.6284 192.045 34.6284 191.987 34.6152C191.875 34.5659 191.786 34.4756 191.739 34.3629C191.693 34.2503 191.691 34.1239 191.735 34.0101L201.009 11.6677C201.036 11.6023 201.078 11.5439 201.131 11.4972C201.184 11.4504 201.248 11.4164 201.316 11.3977C201.382 11.3755 201.452 11.3698 201.52 11.3811C201.588 11.3925 201.653 11.4206 201.708 11.4629L215.949 21.7031C216.049 21.776 216.116 21.8855 216.135 22.0078C216.155 22.13 216.124 22.2548 216.051 22.3548C215.979 22.4548 215.869 22.5218 215.747 22.541C215.624 22.5602 215.499 22.53 215.399 22.4572L201.642 12.4962L192.602 34.3266C192.565 34.4123 192.504 34.4854 192.426 34.5367C192.348 34.588 192.257 34.6153 192.164 34.6152V34.6152Z" fill="#D1D3D4"/>
<path d="M211.801 19.6737C211.745 19.6826 211.689 19.6826 211.633 19.6737C211.576 19.652 211.523 19.6191 211.478 19.5769C211.433 19.5346 211.397 19.4839 211.371 19.4276C211.346 19.3713 211.333 19.3106 211.331 19.249C211.33 19.1873 211.341 19.126 211.363 19.0686L214.979 9.45208C215.001 9.38681 215.039 9.32802 215.09 9.28093C215.14 9.23383 215.201 9.19989 215.268 9.18211C215.333 9.15949 215.401 9.15192 215.469 9.15999C215.537 9.16806 215.602 9.19155 215.66 9.22866L225.548 15.4287C225.601 15.4601 225.648 15.5019 225.684 15.5517C225.721 15.6014 225.746 15.658 225.76 15.718C225.774 15.778 225.776 15.8403 225.765 15.9009C225.754 15.9616 225.731 16.0195 225.698 16.071C225.631 16.1746 225.525 16.2474 225.405 16.2736C225.284 16.2998 225.158 16.2771 225.054 16.2106L215.622 10.2899L212.202 19.3665C212.173 19.4514 212.119 19.5259 212.048 19.5805C211.977 19.6351 211.891 19.6676 211.801 19.6737V19.6737Z" fill="#D1D3D4"/>
<path d="M209.77 11.3978C209.105 11.3954 208.464 11.1508 207.967 10.71C207.47 10.2692 207.15 9.66234 207.069 9.00328C206.988 8.34422 207.15 7.67821 207.526 7.13014C207.901 6.58207 208.464 6.18959 209.108 6.02629C209.456 5.93916 209.818 5.92145 210.173 5.97416C210.528 6.02688 210.869 6.14898 211.177 6.33349C211.485 6.51686 211.753 6.75942 211.965 7.04708C212.178 7.33474 212.332 7.66177 212.417 8.00917V8.00917C212.505 8.35577 212.523 8.7163 212.472 9.07012C212.42 9.42393 212.299 9.76408 212.115 10.0711C211.932 10.3781 211.689 10.6459 211.402 10.8591C211.115 11.0724 210.788 11.227 210.441 11.314C210.221 11.3689 209.996 11.3971 209.77 11.3978V11.3978ZM209.77 6.87344C209.622 6.87312 209.475 6.89189 209.332 6.92929C208.871 7.05066 208.474 7.34383 208.223 7.74851C208.101 7.95079 208.022 8.17513 207.988 8.40846C207.955 8.6418 207.968 8.87948 208.027 9.10767C208.144 9.56709 208.437 9.96185 208.844 10.206C209.251 10.4501 209.738 10.5238 210.199 10.411C210.66 10.2896 211.056 9.99645 211.308 9.59176C211.429 9.38948 211.509 9.16515 211.542 8.93181C211.576 8.69848 211.563 8.4608 211.503 8.2326V8.2326C211.449 8.00318 211.348 7.78731 211.207 7.59836C211.066 7.40941 210.888 7.25139 210.683 7.1341C210.411 6.96821 210.098 6.87821 209.779 6.87344H209.77Z" fill="#D1D3D4"/>
<path d="M221.616 161.175C229.265 161.175 235.465 154.982 235.465 147.342C235.465 139.702 229.265 133.508 221.616 133.508C213.966 133.508 207.766 139.702 207.766 147.342C207.766 154.982 213.966 161.175 221.616 161.175Z" fill="white"/>
<path d="M223.227 132.978L224.84 133.247C224.894 133.276 224.95 133.301 225.008 133.322C227.418 133.863 229.635 135.051 231.42 136.757C233.404 138.532 234.845 140.832 235.575 143.39C236.306 145.948 236.297 148.661 235.549 151.214C234.763 154.331 232.889 157.064 230.264 158.923C228.507 160.264 226.459 161.175 224.285 161.583C222.111 161.99 219.872 161.883 217.747 161.269C215.496 160.683 213.434 159.525 211.763 157.908C210.264 156.531 209.076 154.851 208.278 152.979C207.481 151.107 207.093 149.087 207.141 147.053C207.141 146.634 207.141 146.215 207.187 145.796L207.457 144.186C207.457 144.093 207.532 143.99 207.56 143.897C207.746 143.302 207.896 142.696 208.119 142.129C209.285 139.106 211.444 136.569 214.243 134.932C216.555 133.544 219.217 132.846 221.913 132.922C222.37 132.931 222.799 132.959 223.227 132.978ZM230.749 157.042C232.722 155.187 234.078 152.773 234.635 150.125L228.978 149.194C228.717 150.19 228.493 151.177 228.195 152.145C227.897 153.114 227.524 154.007 227.207 154.938L230.749 157.042ZM208.427 145.759C208.09 148.447 208.588 151.173 209.853 153.57L213.916 152.723C213.757 150.717 213.826 148.699 214.121 146.709L208.427 145.759ZM234.803 148.99C235.269 146.904 234.44 142.473 233.377 141.198L229.332 142.035C229.495 144.038 229.429 146.052 229.136 148.04L234.803 148.99ZM216.079 139.82L212.518 137.707C210.897 138.935 208.688 142.845 208.65 144.614L214.317 145.545C214.685 143.57 215.276 141.643 216.079 139.801V139.82ZM221.242 153.151C222.081 153.356 222.883 153.532 223.675 153.765C224.467 153.998 225.269 154.268 226.07 154.529L226.182 154.314C226.878 152.692 227.4 151.001 227.738 149.269C227.738 149.036 227.738 148.962 227.505 148.924L222.361 148.077C222.274 148.072 222.187 148.072 222.1 148.077L221.242 153.151ZM215.268 146.895C214.975 148.795 214.912 150.724 215.081 152.639L220.086 152.909L220.935 147.844L215.268 146.895ZM227.981 147.826C228.273 145.929 228.339 144.004 228.176 142.091L223.144 141.831L222.305 146.876L227.981 147.826ZM217.151 140.248C216.371 142.002 215.805 143.843 215.464 145.731L221.14 146.662L221.988 141.617L217.151 140.248ZM228.018 140.863C227.847 139.557 227.476 138.285 226.918 137.092C226.556 136.262 226.003 135.529 225.306 134.951C225.006 134.742 224.694 134.55 224.374 134.374L223.33 140.611C224.881 140.84 226.451 140.924 228.018 140.863V140.863ZM221.056 154.305L220.021 160.477C220.729 160.461 221.416 160.238 221.997 159.835C223.239 158.974 224.272 157.844 225.017 156.53C225.203 156.232 225.371 155.925 225.557 155.599C224.101 155.027 222.594 154.593 221.056 154.305V154.305ZM218.856 160.3L219.891 154.11C218.349 153.881 216.788 153.8 215.231 153.868C215.398 154.566 215.529 155.236 215.715 155.888C216.009 157.068 216.556 158.17 217.318 159.118C217.719 159.639 218.249 160.047 218.856 160.3V160.3ZM217.635 139.112C219.108 139.685 220.631 140.121 222.184 140.416L223.227 134.225C222.738 134.241 222.258 134.361 221.82 134.579C220.778 135.095 219.879 135.859 219.201 136.804C218.651 137.53 218.176 138.312 217.635 139.112V139.112ZM229.752 157.861C228.779 157.14 227.729 156.531 226.62 156.046C225.756 157.8 224.519 159.344 222.994 160.57C225.464 160.313 227.813 159.375 229.78 157.861H229.752ZM220.189 134.197C218.754 134.011 214.42 135.761 213.45 136.943L216.517 138.712C217.085 137.846 217.589 137.036 218.139 136.254C218.713 135.468 219.404 134.774 220.189 134.197ZM210.477 154.678C211.848 156.753 213.768 158.409 216.023 159.463C214.96 157.803 214.285 155.926 214.047 153.97C212.842 154.061 211.651 154.286 210.496 154.64L210.477 154.678ZM227.254 135.426C227.773 136.236 228.181 137.113 228.465 138.032C228.726 138.963 228.95 139.894 229.192 140.825C230.382 140.714 231.557 140.476 232.697 140.118C231.385 138.064 229.517 136.424 227.31 135.389L227.254 135.426Z" fill="#D1D3D4"/>
<path d="M199.508 53.469L182.998 56.445C181.281 56.7546 180.14 58.396 180.45 60.1112L182.145 69.4924C182.455 71.2076 184.098 72.3471 185.815 72.0376L202.325 69.0616C204.042 68.752 205.183 67.1106 204.873 65.3954L203.178 56.0142C202.868 54.299 201.225 53.1595 199.508 53.469Z" fill="white"/>
<path d="M185.249 72.5693C184.399 72.5678 183.576 72.269 182.924 71.7248C182.272 71.1806 181.831 70.4253 181.679 69.5903L179.983 60.2158C179.817 59.2696 180.031 58.2962 180.579 57.5068C181.126 56.7173 181.964 56.1754 182.909 55.9987L199.415 53.029C199.884 52.9432 200.366 52.9508 200.832 53.0514C201.298 53.1521 201.739 53.3437 202.13 53.6154C202.522 53.8871 202.856 54.2334 203.113 54.6344C203.37 55.0354 203.545 55.4833 203.628 55.9521L205.324 65.3266C205.491 66.2728 205.276 67.2462 204.728 68.0357C204.181 68.8252 203.343 69.367 202.398 69.5438V69.5438L185.892 72.5134C185.679 72.5506 185.464 72.5693 185.249 72.5693ZM200.058 53.9506C199.897 53.9372 199.735 53.9372 199.574 53.9506L183.077 56.9296C182.729 56.9924 182.396 57.1232 182.099 57.3144C181.801 57.5057 181.544 57.7536 181.342 58.0441C181.141 58.3346 180.998 58.6619 180.923 59.0074C180.848 59.3529 180.842 59.7097 180.905 60.0576L182.592 69.4227C182.654 69.7711 182.785 70.1036 182.977 70.401C183.169 70.6983 183.418 70.9544 183.711 71.1543C184 71.3589 184.327 71.5031 184.673 71.5783C185.019 71.6535 185.376 71.6581 185.724 71.5918L202.23 68.6221C202.578 68.5593 202.911 68.4286 203.209 68.2373C203.506 68.0461 203.763 67.7982 203.965 67.5077C204.167 67.2172 204.309 66.8898 204.384 66.5444C204.459 66.1989 204.465 65.842 204.402 65.4942L202.715 56.1197C202.579 55.4178 202.178 54.7948 201.596 54.3789C201.145 54.0667 200.608 53.9009 200.058 53.9041V53.9506Z" fill="#D1D3D4"/>
<path d="M189.723 68.678C189.664 68.6912 189.604 68.6912 189.545 68.678C189.473 68.6498 189.409 68.6033 189.36 68.5429C189.311 68.4824 189.278 68.4103 189.266 68.3335L187.57 58.7822C187.556 58.704 187.562 58.6237 187.588 58.5487C187.614 58.4738 187.659 58.4067 187.719 58.354C187.776 58.2998 187.847 58.2617 187.924 58.2438C188.001 58.2258 188.081 58.2285 188.157 58.2516L198.754 61.2398C198.839 61.2609 198.917 61.3062 198.977 61.3703C199.038 61.4344 199.078 61.5146 199.094 61.6012C199.11 61.6878 199.1 61.7771 199.066 61.8584C199.032 61.9396 198.976 62.0093 198.903 62.0591L189.956 68.5756C189.89 68.633 189.809 68.6688 189.723 68.678V68.678ZM188.595 59.3687L190.049 67.4119L197.617 61.8915L188.595 59.3687Z" fill="#D1D3D4"/>
<path d="M209.836 97.7789H175.463V116.695H209.836V97.7789Z" fill="white"/>
<path d="M209.843 117.161H175.451C175.329 117.159 175.211 117.109 175.124 117.022C175.038 116.935 174.988 116.818 174.985 116.695V97.7789C174.985 97.6555 175.034 97.5371 175.122 97.4498C175.209 97.3625 175.328 97.3135 175.451 97.3135H209.843C209.967 97.3135 210.085 97.3625 210.173 97.4498C210.26 97.5371 210.309 97.6555 210.309 97.7789V116.695C210.307 116.818 210.257 116.935 210.17 117.022C210.083 117.109 209.966 117.159 209.843 117.161V117.161ZM175.927 116.23H209.377V98.2816H175.927V116.23Z" fill="#D1D3D4"/>
<path d="M192.659 110.039C192.565 110.04 192.473 110.011 192.398 109.956L175.202 98.1607C175.151 98.1258 175.107 98.0813 175.074 98.0297C175.04 97.9781 175.017 97.9204 175.006 97.8599C174.995 97.7994 174.995 97.7373 175.008 97.6771C175.021 97.6169 175.046 97.5597 175.08 97.509C175.115 97.4583 175.16 97.4149 175.212 97.3814C175.263 97.3478 175.321 97.3248 175.382 97.3135C175.442 97.3023 175.504 97.3031 175.565 97.3159C175.625 97.3286 175.682 97.3531 175.733 97.388L192.659 109.015L209.575 97.3508C209.626 97.3159 209.683 97.2914 209.743 97.2786C209.803 97.2659 209.866 97.2651 209.926 97.2763C209.987 97.2875 210.044 97.3106 210.096 97.3441C210.148 97.3777 210.192 97.421 210.227 97.4718C210.262 97.5225 210.287 97.5796 210.299 97.6398C210.312 97.7 210.313 97.7622 210.302 97.8227C210.291 97.8832 210.267 97.9409 210.234 97.9925C210.2 98.0441 210.157 98.0886 210.106 98.1234L192.919 109.918C192.849 109.987 192.757 110.03 192.659 110.039V110.039Z" fill="#D1D3D4"/>
<path d="M175.452 117.161C175.377 117.159 175.304 117.139 175.237 117.104C175.171 117.068 175.114 117.018 175.07 116.956C175.001 116.853 174.976 116.727 174.998 116.606C175.021 116.484 175.09 116.376 175.191 116.305L188.967 106.846C189.07 106.777 189.196 106.752 189.318 106.774C189.44 106.797 189.548 106.866 189.619 106.967C189.686 107.071 189.71 107.196 189.688 107.317C189.665 107.438 189.598 107.546 189.498 107.619L175.732 117.077C175.65 117.133 175.552 117.162 175.452 117.161V117.161Z" fill="#D1D3D4"/>
<path d="M209.834 117.161C209.741 117.159 209.65 117.13 209.573 117.077L195.807 107.591C195.705 107.521 195.634 107.412 195.611 107.29C195.589 107.168 195.615 107.042 195.686 106.939C195.756 106.837 195.865 106.767 195.987 106.744C196.109 106.721 196.236 106.748 196.338 106.818L210.104 116.277C210.206 116.348 210.275 116.456 210.298 116.578C210.32 116.7 210.294 116.825 210.226 116.928C210.184 116.996 210.127 117.053 210.059 117.093C209.991 117.134 209.913 117.157 209.834 117.161V117.161Z" fill="#D1D3D4"/>
<path d="M250.873 102.117L231.896 99.7805L235.55 70.1582L259.512 73.0999L256.577 96.8853L250.873 102.117Z" fill="white"/>
<path d="M250.872 102.582H250.807L231.84 100.237C231.718 100.223 231.607 100.161 231.53 100.065C231.453 99.969 231.417 99.8466 231.43 99.7245L235.103 70.1022C235.109 70.0409 235.129 69.9816 235.159 69.9277C235.189 69.8739 235.229 69.8265 235.278 69.7884C235.326 69.7503 235.382 69.7222 235.442 69.7057C235.501 69.6893 235.563 69.6848 235.625 69.6926L259.587 72.6437C259.649 72.65 259.709 72.6689 259.764 72.6993C259.818 72.7297 259.866 72.771 259.904 72.8206C259.978 72.9193 260.011 73.0425 259.997 73.165L257.061 96.941C257.05 97.0528 256.997 97.1561 256.912 97.2296L251.199 102.452C251.156 102.495 251.105 102.529 251.049 102.551C250.993 102.574 250.933 102.584 250.872 102.582ZM232.418 99.3708L250.714 101.624L256.138 96.6617L258.99 73.5095L235.951 70.7167L232.418 99.3708Z" fill="#D1D3D4"/>
<path d="M255.29 77.8012H255.234L239.082 75.8183C238.96 75.8021 238.849 75.7381 238.774 75.6404C238.699 75.5426 238.666 75.4192 238.682 75.297C238.687 75.2364 238.705 75.1776 238.734 75.1242C238.764 75.0708 238.804 75.0239 238.852 74.9864C238.9 74.9489 238.955 74.9216 239.014 74.9062C239.073 74.8908 239.134 74.8875 239.194 74.8967L255.346 76.8703C255.47 76.8777 255.585 76.9338 255.668 77.0263C255.75 77.1189 255.792 77.2402 255.784 77.3637C255.777 77.4871 255.721 77.6026 255.628 77.6846C255.535 77.7667 255.414 77.8086 255.29 77.8012V77.8012Z" fill="#D1D3D4"/>
<path d="M254.674 82.5861L238.494 80.5939C238.433 80.5866 238.374 80.5673 238.32 80.5371C238.267 80.507 238.219 80.4665 238.181 80.4181C238.143 80.3697 238.115 80.3143 238.098 80.255C238.082 80.1957 238.077 80.1337 238.084 80.0726C238.092 80.0115 238.111 79.9524 238.141 79.8987C238.171 79.8451 238.212 79.7979 238.26 79.7598C238.309 79.7218 238.364 79.6937 238.424 79.6771C238.483 79.6605 238.545 79.6557 238.606 79.663L254.758 81.6552C254.882 81.6626 254.998 81.7188 255.08 81.8113C255.162 81.9038 255.204 82.0251 255.196 82.1486C255.189 82.272 255.133 82.3875 255.04 82.4696C254.948 82.5516 254.826 82.5935 254.702 82.5861H254.674Z" fill="#D1D3D4"/>
<path d="M254.116 87.3618H254.051L237.899 85.3696C237.838 85.3623 237.778 85.343 237.725 85.3128C237.671 85.2827 237.624 85.2422 237.586 85.1938C237.548 85.1454 237.519 85.09 237.503 85.0307C237.486 84.9714 237.481 84.9094 237.489 84.8483C237.496 84.7872 237.515 84.7281 237.546 84.6744C237.576 84.6208 237.616 84.5736 237.665 84.5355C237.713 84.4975 237.769 84.4694 237.828 84.4528C237.887 84.4361 237.949 84.4314 238.011 84.4387L254.163 86.4216C254.284 86.4401 254.393 86.5046 254.468 86.6018C254.543 86.6989 254.577 86.8212 254.563 86.9429C254.552 87.055 254.501 87.1592 254.418 87.2362C254.336 87.3132 254.229 87.3579 254.116 87.3618Z" fill="#D1D3D4"/>
<path d="M253.52 92.1281H253.464L237.321 90.1452C237.198 90.1289 237.086 90.0653 237.01 89.9679C236.933 89.8705 236.898 89.7471 236.911 89.6239C236.917 89.5621 236.935 89.5021 236.965 89.4476C236.994 89.3931 237.035 89.3452 237.084 89.3068C237.132 89.2685 237.189 89.2405 237.249 89.2246C237.309 89.2087 237.371 89.2052 237.433 89.2143L253.585 91.2065C253.708 91.2151 253.824 91.2725 253.905 91.3659C253.986 91.4593 254.027 91.5811 254.018 91.7046C254.01 91.828 253.952 91.943 253.859 92.0241C253.765 92.1053 253.643 92.1461 253.52 92.1374V92.1281Z" fill="#D1D3D4"/>
<path d="M247.722 96.2615H247.666L236.724 94.9116C236.664 94.9047 236.606 94.8859 236.553 94.8564C236.5 94.8268 236.454 94.7871 236.416 94.7394C236.379 94.6918 236.352 94.6372 236.336 94.5789C236.32 94.5205 236.315 94.4596 236.323 94.3996C236.329 94.3378 236.347 94.2778 236.377 94.2233C236.406 94.1688 236.447 94.1209 236.496 94.0825C236.545 94.0442 236.601 94.0162 236.661 94.0003C236.721 93.9844 236.784 93.9809 236.845 93.99L247.778 95.3399C247.839 95.3435 247.899 95.3592 247.954 95.386C248.009 95.4128 248.058 95.4501 248.099 95.4959C248.14 95.5418 248.171 95.5951 248.191 95.653C248.211 95.7109 248.219 95.7721 248.216 95.8332C248.212 95.8944 248.196 95.9542 248.17 96.0092C248.143 96.0643 248.105 96.1136 248.06 96.1542C248.014 96.1948 247.96 96.226 247.902 96.246C247.844 96.266 247.783 96.2745 247.722 96.2708V96.2615Z" fill="#D1D3D4"/>
<path d="M250.873 102.117L251.591 96.2709L256.577 96.8853L250.873 102.117Z" fill="white"/>
<path d="M250.872 102.583C250.797 102.583 250.723 102.564 250.658 102.527C250.572 102.483 250.502 102.414 250.456 102.329C250.411 102.244 250.394 102.147 250.406 102.052L251.124 96.215C251.131 96.154 251.15 96.0951 251.18 96.0416C251.21 95.9882 251.251 95.9414 251.3 95.904C251.348 95.8666 251.404 95.8394 251.464 95.8241C251.523 95.8088 251.585 95.8056 251.646 95.8147L256.641 96.4291C256.728 96.4406 256.811 96.4763 256.878 96.5323C256.946 96.5883 256.996 96.6623 257.024 96.7457C257.053 96.8301 257.056 96.9214 257.033 97.0077C257.009 97.094 256.961 97.1713 256.893 97.2297L251.18 102.452C251.098 102.535 250.988 102.581 250.872 102.583V102.583ZM251.991 96.7922L251.487 100.916L255.523 97.1925L251.991 96.7922Z" fill="#D1D3D4"/>
</svg>
