<svg width="285" height="197" viewBox="0 0 285 197" fill="none" xmlns="http://www.w3.org/2000/svg">
<path d="M105.816 123.414C105.816 123.414 102.313 119.937 101.985 118.96C101.656 117.983 100.983 111.483 99.6438 112.317C98.3049 113.15 98.5912 118.371 98.5912 118.371C98.5912 118.371 93.6654 110.91 92.3182 111.635C90.971 112.359 88.9502 116.181 89.1438 117.529C89.3375 118.876 98.145 128.702 101.151 130.529L105.816 123.414Z" fill="white"/>
<path d="M101.151 130.908C101.074 130.91 100.998 130.89 100.932 130.849C98.0527 129.09 88.9252 119.137 88.7231 117.546C88.521 115.954 90.6934 111.988 92.0912 111.239C93.371 110.574 96.1413 114.11 98.1032 116.948C98.1032 115.222 98.3221 112.62 99.3915 111.955C99.5067 111.881 99.6382 111.836 99.7747 111.824C99.9111 111.812 100.048 111.834 100.175 111.887C101.084 112.3 101.547 114.506 102.052 117.344C102.123 117.843 102.221 118.337 102.347 118.825C102.566 119.474 104.755 121.798 106.077 123.111C106.147 123.179 106.191 123.269 106.201 123.366C106.212 123.463 106.189 123.56 106.136 123.642L101.463 130.723C101.429 130.777 101.384 130.821 101.33 130.854C101.275 130.886 101.214 130.905 101.151 130.908ZM92.5459 111.98C91.3418 112.611 89.4557 116.333 89.5904 117.428C89.7251 118.522 97.7916 127.608 101.067 129.898L105.277 123.457C104.351 122.53 101.909 120.013 101.581 119.086C101.44 118.56 101.33 118.026 101.252 117.487C101.05 116.342 100.41 112.864 99.863 112.653C99.0968 113.15 98.9031 116.274 99.021 118.346C99.0266 118.439 99.0012 118.531 98.9488 118.608C98.8963 118.685 98.8198 118.742 98.7313 118.771C98.6427 118.8 98.547 118.799 98.4593 118.767C98.3715 118.736 98.2966 118.677 98.2463 118.598C95.9139 115.011 93.2616 111.98 92.5459 111.98Z" fill="#231F20"/>
<path d="M143.236 100.318C143.236 100.318 119.491 131.927 116.123 128.711C112.755 125.494 104.335 120.198 104.335 120.198L97.4385 129.78C97.4385 129.78 118.043 148.978 124.972 146.241C131.902 143.505 151.866 117.529 151.866 117.529L143.236 100.318Z" fill="#333333"/>
<path d="M128.989 117.992C127.305 116.939 125.107 115.87 123.692 114.506C121.436 112.325 119.962 109.066 117.857 106.658C117.592 106.868 117.392 107.149 117.278 107.467C117.165 107.786 117.144 108.13 117.217 108.46C117.378 109.118 117.636 109.748 117.983 110.33C118.623 111.591 119.087 112.934 119.364 114.321C115.432 113.184 111.373 112.544 107.281 112.418C107.083 113.023 107.033 113.666 107.134 114.294C107.235 114.923 107.485 115.518 107.862 116.03C108.622 117.048 109.541 117.938 110.582 118.665C111.821 119.703 113.164 120.609 114.59 121.368C117.79 122.951 121.596 123.052 124.273 125.578C125.486 126.732 127.768 127.852 129.022 126.42C129.544 125.814 129.25 118.16 128.989 117.992Z" fill="white"/>
<path d="M127.473 127.515C126.153 127.402 124.916 126.827 123.979 125.89C122.379 124.374 120.358 123.768 118.22 123.128C116.912 122.776 115.636 122.314 114.405 121.747C112.952 120.975 111.583 120.052 110.321 118.994C109.241 118.245 108.291 117.323 107.509 116.266C107.092 115.696 106.819 115.034 106.712 114.337C106.605 113.639 106.668 112.926 106.894 112.258C106.929 112.179 106.986 112.113 107.057 112.067C107.129 112.02 107.213 111.996 107.299 111.997C111.186 112.102 115.046 112.667 118.801 113.681C118.526 112.572 118.124 111.498 117.605 110.481L117.479 110.22C117.162 109.682 116.934 109.096 116.805 108.485C116.714 108.073 116.745 107.643 116.895 107.249C117.044 106.854 117.306 106.511 117.647 106.263C117.732 106.207 117.834 106.184 117.935 106.198C118.035 106.212 118.128 106.262 118.194 106.338C119.137 107.474 120 108.672 120.779 109.925C121.701 111.44 122.782 112.851 124.004 114.135C125.146 115.118 126.398 115.966 127.734 116.661C128.248 116.965 128.762 117.259 129.225 117.554C129.418 117.672 129.469 117.891 129.511 118.194C129.671 119.246 130.016 125.839 129.359 126.614C129.152 126.863 128.895 127.066 128.605 127.21C128.315 127.355 127.999 127.439 127.675 127.456L127.473 127.515ZM107.585 112.847C107.477 113.355 107.476 113.879 107.583 114.387C107.691 114.894 107.903 115.374 108.208 115.794C108.945 116.772 109.835 117.625 110.843 118.32C112.061 119.338 113.378 120.23 114.776 120.981C115.967 121.522 117.2 121.965 118.464 122.303C120.602 122.943 122.817 123.608 124.56 125.267C125.364 126.079 126.435 126.572 127.574 126.656C127.792 126.65 128.005 126.598 128.201 126.503C128.397 126.409 128.571 126.275 128.711 126.109C129.023 125.503 128.896 119.373 128.644 118.261C128.214 117.992 127.76 117.731 127.288 117.419C125.892 116.686 124.587 115.794 123.398 114.758C122.116 113.428 120.987 111.96 120.03 110.38C119.343 109.286 118.596 108.232 117.79 107.222C117.592 107.56 117.523 107.958 117.596 108.342C117.719 108.863 117.918 109.362 118.186 109.824L118.329 110.085C118.983 111.382 119.459 112.761 119.744 114.186C119.759 114.257 119.756 114.331 119.734 114.401C119.712 114.47 119.671 114.533 119.617 114.582C119.565 114.631 119.501 114.665 119.432 114.681C119.362 114.698 119.29 114.695 119.222 114.674C115.432 113.591 111.524 112.977 107.585 112.847Z" fill="#231F20"/>
<path d="M167.831 49.2159C169.923 49.5493 171.876 50.4764 173.456 51.8869C175.037 53.2975 176.179 55.1321 176.748 57.173C177.59 60.44 177.034 64.3133 179.274 66.8393C179.963 67.5705 180.82 68.1227 181.771 68.4484C182.722 68.7741 183.737 68.8634 184.73 68.7086C186.724 68.3659 188.522 67.302 189.782 65.7194C190.107 67.7557 189.824 69.8425 188.967 71.718C188.11 73.5935 186.718 75.1741 184.966 76.2615C183.382 77.129 181.632 77.6523 179.831 77.7974C178.031 77.9425 176.22 77.7061 174.517 77.1035C171.115 75.8628 168.032 73.8812 165.49 71.302C161.241 67.5135 158.515 62.3093 157.819 56.6593C157.154 51.1946 163.015 48.517 167.831 49.2159Z" fill="white"/>
<path d="M179.047 78.2318C177.461 78.2247 175.887 77.9661 174.382 77.4655C170.921 76.2072 167.782 74.1938 165.196 71.5714C160.878 67.7112 158.108 62.4157 157.399 56.6677C157.257 55.6816 157.352 54.6759 157.677 53.7341C158.003 52.7924 158.548 51.942 159.268 51.2536C160.435 50.23 161.814 49.4773 163.306 49.0493C164.798 48.6213 166.367 48.5287 167.899 48.778C170.071 49.1277 172.098 50.0922 173.739 51.5576C175.381 53.0229 176.568 54.9277 177.161 57.0466C177.428 58.1938 177.611 59.3588 177.708 60.5326C177.961 62.8144 178.188 64.97 179.594 66.5446C180.24 67.2089 181.036 67.7085 181.915 68.0015C182.795 68.2946 183.731 68.3724 184.647 68.2286C186.538 67.9024 188.243 66.8925 189.438 65.391C189.488 65.3294 189.556 65.2839 189.632 65.2599C189.709 65.236 189.79 65.2348 189.867 65.2563C189.944 65.2752 190.014 65.3164 190.068 65.3748C190.122 65.4332 190.158 65.5062 190.17 65.5847C190.51 67.7047 190.211 69.8779 189.311 71.8273C188.412 73.7768 186.952 75.4142 185.118 76.5309C183.282 77.6293 181.186 78.2165 179.047 78.2318ZM166.307 49.5274C163.939 49.4749 161.637 50.3133 159.858 51.8766C159.232 52.4751 158.759 53.2148 158.477 54.0337C158.196 54.8525 158.115 55.7269 158.241 56.5835C158.928 62.1401 161.616 67.256 165.802 70.9736C168.3 73.5002 171.324 75.4439 174.66 76.6656C176.304 77.2512 178.053 77.4855 179.794 77.3535C181.534 77.2215 183.227 76.7262 184.764 75.8994C186.312 74.933 187.569 73.5656 188.403 71.9422C189.236 70.3189 189.614 68.5002 189.497 66.6793C188.232 67.9709 186.59 68.8262 184.807 69.1212C183.745 69.2886 182.658 69.1944 181.642 68.8466C180.625 68.4989 179.708 67.9081 178.971 67.1256C177.388 65.3405 177.127 62.9155 176.883 60.6336C176.785 59.5 176.607 58.3746 176.353 57.2656C175.78 55.0448 174.485 53.0778 172.67 51.6751C170.856 50.2724 168.626 49.5138 166.333 49.519L166.307 49.5274Z" fill="#231F20"/>
<path d="M163.124 57.7118C162.092 56.1904 160.625 55.0164 158.914 54.3437C157.606 53.9581 156.22 53.9291 154.897 54.2595C154.42 54.3218 153.961 54.4828 153.549 54.7321C153.138 54.9814 152.782 55.3137 152.506 55.7078C152.311 56.1822 152.216 56.6916 152.226 57.2043C152.236 57.717 152.352 58.2222 152.565 58.6885C153.676 62.0061 157.55 69.4579 161.827 69.2727C167.797 69.0622 165.162 60.3557 163.124 57.7118Z" fill="#231F20"/>
<path d="M161.676 69.7442C157.264 69.7442 153.391 62.4524 152.195 58.8654C151.966 58.3424 151.848 57.7776 151.848 57.2066C151.848 56.6356 151.966 56.0708 152.195 55.5478C152.492 55.091 152.884 54.704 153.345 54.4133C153.806 54.1225 154.324 53.9351 154.864 53.8638C156.252 53.5281 157.704 53.5629 159.074 53.9648C160.855 54.6408 162.384 55.8492 163.453 57.4255C164.909 59.3285 166.821 64.4816 165.432 67.5297C165.109 68.1993 164.6 68.7609 163.964 69.1465C163.329 69.5322 162.596 69.7252 161.853 69.7021L161.676 69.7442ZM156.877 54.4616C156.25 54.4662 155.626 54.5396 155.016 54.6806C154.596 54.7284 154.19 54.8631 153.825 55.0762C153.459 55.2893 153.142 55.5761 152.894 55.9183C152.734 56.3449 152.66 56.7993 152.677 57.2547C152.695 57.7101 152.803 58.1575 152.995 58.5707C154.098 61.863 157.828 69.0454 161.811 68.8601C162.4 68.8946 162.986 68.7528 163.495 68.4529C164.003 68.153 164.41 67.7085 164.665 67.1761C165.886 64.5743 164.143 59.7074 162.788 57.9139C161.816 56.4766 160.43 55.3693 158.813 54.7395C158.186 54.5453 157.533 54.4516 156.877 54.4616Z" fill="#231F20"/>
<path d="M184.149 164.606L188.528 190.018L141.644 186.532L141.013 155.664L184.149 164.606Z" fill="#231F20"/>
<path d="M188.537 190.439L141.645 186.953C141.54 186.947 141.441 186.9 141.369 186.824C141.297 186.747 141.257 186.646 141.257 186.54L140.626 155.672C140.627 155.609 140.641 155.546 140.667 155.488C140.693 155.43 140.731 155.378 140.778 155.335C140.827 155.297 140.884 155.27 140.945 155.256C141.006 155.241 141.07 155.24 141.131 155.251L184.268 164.193C184.35 164.209 184.426 164.25 184.485 164.31C184.543 164.371 184.582 164.447 184.596 164.53L188.983 189.951C188.993 190.011 188.989 190.073 188.973 190.132C188.956 190.192 188.926 190.246 188.886 190.293C188.846 190.339 188.796 190.377 188.74 190.402C188.684 190.427 188.623 190.44 188.562 190.439H188.537ZM142.066 186.145L188.032 189.563L183.821 164.96L141.493 156.186L142.066 186.145Z" fill="#231F20"/>
<path d="M165.162 96.1163C165.162 96.1163 175.965 101.21 182.086 115.878C185.345 123.684 186.423 167.334 186.423 167.334C186.423 167.334 154.78 174.39 139.665 166.012C139.665 166.012 140.229 145.661 138.613 131.826C137.771 124.762 137.594 109.782 141.013 103.307C145.635 94.5585 156.767 96.5625 165.162 96.1163Z" fill="#333333"/>
<path d="M139.698 145.938C139.59 145.938 139.485 145.896 139.407 145.821C139.328 145.746 139.282 145.643 139.277 145.534C139.277 145.332 138.629 125.461 137.981 120.274C137.316 114.935 140.507 106.869 140.625 106.532C140.645 106.481 140.675 106.434 140.714 106.394C140.753 106.354 140.799 106.322 140.849 106.301C140.9 106.279 140.955 106.267 141.01 106.266C141.066 106.266 141.121 106.276 141.172 106.296C141.274 106.339 141.356 106.42 141.4 106.522C141.444 106.624 141.447 106.74 141.408 106.844C141.408 106.919 138.174 115.045 138.814 120.173C139.454 125.301 140.111 145.332 140.119 145.526C140.122 145.581 140.113 145.636 140.094 145.688C140.075 145.74 140.046 145.788 140.008 145.828C139.971 145.869 139.925 145.902 139.875 145.925C139.825 145.948 139.771 145.961 139.715 145.964L139.698 145.938Z" fill="#231F20"/>
<path d="M162.029 61.1136C161.726 60.6 161.423 60.1032 161.111 59.6232C158.265 55.2026 152.994 54.689 148.388 56.4488C147.471 56.8025 146.485 57.3919 146.351 58.3686C144.49 57.5266 142.216 58.3686 140.835 59.8927C136.347 64.7174 136.491 72.3714 137.998 78.3328C138.277 79.7268 138.829 81.0518 139.623 82.2314C140.481 83.3015 141.569 84.1648 142.806 84.7574C151.175 89.0938 163.604 85.7089 165.54 75.4953C166.399 70.7042 164.488 65.4079 162.029 61.1136Z" fill="white"/>
<path d="M150.645 86.9803C147.859 86.9974 145.108 86.3509 142.621 85.0942C141.312 84.4961 140.159 83.6027 139.253 82.484C138.429 81.259 137.856 79.8822 137.569 78.4339C136.626 74.729 135.043 65.4668 140.499 59.6064C141.771 58.2423 143.993 57.1645 146.048 57.8129C146.271 57.3888 146.578 57.0142 146.95 56.7118C147.322 56.4093 147.751 56.1853 148.212 56.0531C152.506 54.4196 158.24 54.428 161.44 59.4211C161.76 59.9095 162.063 60.4147 162.366 60.9368C164.135 63.9933 166.947 69.9632 165.894 75.5879C165.5 77.6922 164.606 79.671 163.287 81.3576C161.968 83.0443 160.263 84.3893 158.316 85.2795C155.919 86.4145 153.298 86.9958 150.645 86.9803ZM144.751 58.4528C143.356 58.5247 142.045 59.1452 141.105 60.1789C135.927 65.7447 137.468 74.6532 138.377 78.2318C138.635 79.5726 139.162 80.8473 139.927 81.9788C140.746 82.9913 141.785 83.8035 142.966 84.3533C145.295 85.5042 147.854 86.1149 150.452 86.1396C153.05 86.1644 155.62 85.6027 157.971 84.4964C159.79 83.6522 161.381 82.3871 162.614 80.8058C163.847 79.2245 164.686 77.3723 165.061 75.4026C166.063 70.0474 163.377 64.2796 161.634 61.3241C161.339 60.8189 161.036 60.3221 160.724 59.8506C157.803 55.3121 152.498 55.3205 148.507 56.8446C147.757 57.1308 146.823 57.6361 146.73 58.4276C146.722 58.4914 146.699 58.5523 146.662 58.6052C146.626 58.658 146.577 58.7011 146.52 58.7307C146.461 58.7616 146.396 58.7778 146.33 58.7778C146.264 58.7778 146.199 58.7616 146.141 58.7307C145.702 58.5406 145.229 58.4459 144.751 58.4528Z" fill="#231F20"/>
<path d="M147.943 87.4098L148.625 95.7036C148.625 95.7036 151.058 97.5645 156.371 95.7458C161.684 93.927 161.912 92.5124 161.912 92.5124L160.413 77.1961C160.346 76.5393 157.803 74.409 157.281 73.9544C155.84 72.7063 154.244 71.6506 152.532 70.8136C151.734 70.4617 150.96 70.0566 150.216 69.6011C149.291 68.9565 148.543 68.0879 148.044 67.0764C147.545 66.0648 147.31 64.9433 147.362 63.8165C147.453 64.7297 147.35 65.6519 147.06 66.5226C146.77 67.3933 146.299 68.1928 145.678 68.8686C144.836 69.7864 143.674 70.4431 142.882 71.3946C141.442 73.1965 142.04 74.7627 142.234 76.7919C142.512 79.0991 142.183 81.3809 142.697 83.6965C143.547 87.7887 147.867 87.3593 147.943 87.4098Z" fill="white"/>
<path d="M152.051 96.9667C150.759 97.043 149.474 96.7196 148.372 96.0405C148.323 96.0052 148.283 95.9598 148.254 95.9074C148.225 95.8551 148.208 95.7971 148.203 95.7373L147.555 87.8224C144.675 87.7297 142.798 86.3152 142.242 83.8312C141.986 82.48 141.873 81.1055 141.905 79.7306C141.913 78.7803 141.871 77.8304 141.779 76.8846C141.734 76.5814 141.692 76.3008 141.652 76.0426C141.408 74.4175 141.181 72.885 142.494 71.2094C142.976 70.6489 143.515 70.1408 144.103 69.6937C144.531 69.3631 144.937 69.003 145.315 68.616C146.281 67.583 146.859 66.2467 146.949 64.8353C146.923 64.4962 146.923 64.1556 146.949 63.8165C146.955 63.7107 147.001 63.6112 147.078 63.5378C147.154 63.4645 147.255 63.4227 147.361 63.4207C147.466 63.4202 147.567 63.4587 147.645 63.5288C147.723 63.5989 147.772 63.6954 147.782 63.7996C147.808 64.1388 147.808 64.4793 147.782 64.8185C147.877 65.7073 148.163 66.5652 148.619 67.3338C149.075 68.1024 149.692 68.7637 150.426 69.2727C150.963 69.6246 151.526 69.9343 152.11 70.199L152.658 70.46C154.399 71.316 156.023 72.3912 157.491 73.6596L157.651 73.8028C160.177 75.9584 160.724 76.7162 160.775 77.1709L162.273 92.504V92.605C162.223 92.8829 161.735 94.3648 156.455 96.1752C155.04 96.6768 153.553 96.9441 152.051 96.9667ZM149.029 95.4595C149.61 95.7879 151.942 96.8235 156.236 95.35C160.53 93.8765 161.364 92.6892 161.482 92.4535C161.356 91.1652 160 77.2972 159.992 77.2214C159.983 77.1456 159.604 76.4888 157.162 74.3922L157.002 74.2575C155.592 73.0311 154.026 71.9951 152.346 71.1757L151.807 70.9147C151.173 70.6345 150.562 70.3051 149.98 69.9295C148.834 69.1317 147.954 68.0083 147.454 66.7046C147.135 67.6153 146.631 68.4497 145.972 69.1549C145.567 69.5634 145.137 69.9458 144.684 70.3C144.14 70.7131 143.64 71.1815 143.193 71.6977C142.09 73.0787 142.276 74.3164 142.511 75.9078C142.556 76.1997 142.598 76.5029 142.638 76.8172C142.736 77.7936 142.781 78.7746 142.772 79.7558C142.739 81.0714 142.846 82.3869 143.092 83.6796C143.572 85.8436 145.206 86.9972 147.824 87.0477C147.956 87.029 148.089 87.0557 148.203 87.1235C148.257 87.1569 148.302 87.2026 148.334 87.2568C148.366 87.311 148.385 87.3721 148.389 87.435L149.029 95.4595Z" fill="#231F20"/>
<path d="M157.196 77.1961C157.314 76.4348 157.674 75.7318 158.224 75.1921C158.759 74.7101 159.374 74.3254 160.042 74.0554C160.388 73.8617 160.775 73.7521 161.171 73.7354C161.448 73.7545 161.72 73.8259 161.971 73.9459C162.584 74.1802 163.094 74.6249 163.41 75.2005C163.603 75.6899 163.675 76.2183 163.621 76.7414C163.61 77.3119 163.522 77.8784 163.36 78.4254C163.183 78.968 162.9 79.4703 162.529 79.9037C162.158 80.3372 161.705 80.6932 161.196 80.9515C160.163 81.4676 158.967 81.5553 157.87 81.1957" fill="white"/>
<path d="M159.242 81.8693C158.73 81.8684 158.221 81.786 157.735 81.6251C157.682 81.6074 157.634 81.5795 157.592 81.5431C157.55 81.5067 157.516 81.4623 157.492 81.4127C157.467 81.363 157.452 81.309 157.449 81.2537C157.445 81.1984 157.452 81.1429 157.47 81.0904C157.487 81.0379 157.515 80.9894 157.552 80.9476C157.588 80.9059 157.632 80.8717 157.682 80.8471C157.732 80.8224 157.786 80.8078 157.841 80.8041C157.896 80.8003 157.952 80.8075 158.004 80.8252C158.495 80.9888 159.014 81.0531 159.529 81.0143C160.045 80.9756 160.548 80.8345 161.009 80.5994C161.47 80.3643 161.879 80.0398 162.213 79.6449C162.548 79.25 162.8 78.7925 162.955 78.2991C163.111 77.7856 163.193 77.2527 163.2 76.7161C163.252 76.2601 163.194 75.7981 163.031 75.3689C162.754 74.8895 162.32 74.5206 161.802 74.3248C161.6 74.2307 161.384 74.1709 161.162 74.148C160.832 74.1752 160.511 74.2698 160.219 74.4259C159.601 74.6774 159.032 75.0335 158.535 75.4784C158.051 75.9579 157.735 76.5811 157.634 77.255C157.617 77.3667 157.557 77.4671 157.466 77.5342C157.375 77.6013 157.261 77.6296 157.15 77.6129C157.038 77.5961 156.938 77.5357 156.87 77.4449C156.803 77.3541 156.775 77.2404 156.792 77.1287C156.919 76.2747 157.321 75.4853 157.937 74.8805C158.509 74.3674 159.164 73.9546 159.874 73.6596C160.28 73.4464 160.729 73.3257 161.187 73.306C161.52 73.3247 161.846 73.4076 162.147 73.5502C162.866 73.8158 163.465 74.3334 163.831 75.0068C164.057 75.5613 164.144 76.1626 164.084 76.7582C164.073 77.3687 163.98 77.9749 163.806 78.5602C163.501 79.5189 162.898 80.3553 162.085 80.9475C161.271 81.5397 160.29 81.8567 159.284 81.8524L159.242 81.8693Z" fill="#231F20"/>
<path d="M148.876 73.7691C148.876 73.7691 146.266 78.1981 146.99 78.897C147.714 79.5959 149.584 78.998 149.584 78.998" fill="white"/>
<path d="M148.119 79.6632C147.603 79.6984 147.093 79.5324 146.696 79.2001C145.905 78.4339 147.252 75.7057 148.515 73.5586C148.576 73.4743 148.667 73.4157 148.769 73.3942C148.871 73.3728 148.977 73.3899 149.067 73.4422C149.157 73.4946 149.225 73.5786 149.256 73.6778C149.288 73.7771 149.282 73.8846 149.239 73.9796C148.018 76.0594 147.117 78.1897 147.303 78.6191C147.69 78.998 148.919 78.7707 149.458 78.6191C149.564 78.5846 149.68 78.5936 149.779 78.6441C149.879 78.6946 149.954 78.7825 149.989 78.8886C150.02 78.9957 150.009 79.1111 149.957 79.2102C149.905 79.3093 149.817 79.3842 149.711 79.419C149.195 79.5762 148.659 79.6584 148.119 79.6632Z" fill="#231F20"/>
<path d="M152.536 73.4578C152.922 73.402 153.172 72.9165 153.094 72.3734C153.015 71.8303 152.638 71.4352 152.252 71.491C151.865 71.5468 151.615 72.0323 151.694 72.5754C151.772 73.1185 152.149 73.5136 152.536 73.4578Z" fill="#231F20"/>
<path d="M145.807 74.1559C146.198 74.1514 146.509 73.7029 146.503 73.1542C146.497 72.6055 146.175 72.1644 145.784 72.1689C145.394 72.1734 145.082 72.6218 145.089 73.1705C145.095 73.7192 145.417 74.1604 145.807 74.1559Z" fill="#231F20"/>
<path d="M147.942 87.4098C147.942 87.4098 153.205 88.1844 156.102 86.1973C156.102 86.1973 153.306 93.4218 148.414 93.0934L147.942 87.4098Z" fill="#231F20"/>
<path d="M148.743 93.5313H148.381C148.28 93.5253 148.185 93.4825 148.114 93.4111C148.042 93.3398 147.999 93.2447 147.993 93.1439L147.53 87.4603C147.523 87.3981 147.53 87.335 147.552 87.2764C147.574 87.2177 147.61 87.1652 147.657 87.1235C147.704 87.081 147.761 87.0493 147.822 87.0304C147.883 87.0115 147.947 87.0059 148.01 87.0141C148.061 87.0141 153.138 87.7382 155.866 85.8689C155.937 85.8136 156.025 85.7836 156.115 85.7836C156.205 85.7836 156.292 85.8136 156.363 85.8689C156.433 85.9249 156.483 86.0013 156.507 86.0873C156.531 86.1734 156.528 86.2648 156.498 86.3488C156.38 86.652 153.66 93.5313 148.743 93.5313ZM148.406 87.8897L148.802 92.6808C152.001 92.6303 154.241 89.0433 155.193 87.1656C153.014 87.9172 150.694 88.1648 148.406 87.8897Z" fill="#231F20"/>
<path d="M144.945 95.7457L144.137 99.518L165.162 96.1162L163.537 91.9735L144.945 95.7457Z" fill="white"/>
<path d="M144.136 99.9306C144.08 99.9319 144.024 99.9214 143.971 99.8996C143.919 99.8779 143.872 99.8454 143.833 99.8043C143.785 99.7549 143.75 99.6945 143.731 99.6285C143.712 99.5624 143.71 99.4927 143.724 99.4254L144.566 95.6447C144.586 95.5663 144.627 95.4948 144.685 95.4383C144.743 95.3819 144.815 95.3425 144.894 95.3248L163.486 91.5525C163.583 91.533 163.683 91.5475 163.771 91.5935C163.858 91.6395 163.927 91.7143 163.966 91.8052L165.591 95.9563C165.611 96.0154 165.619 96.0782 165.613 96.1405C165.607 96.2027 165.588 96.263 165.557 96.3173C165.526 96.3715 165.483 96.4185 165.433 96.455C165.382 96.4915 165.324 96.5167 165.263 96.5289L144.212 99.8969L144.136 99.9306ZM145.298 96.091L144.675 98.996L164.581 95.7795L163.275 92.4114L145.298 96.091Z" fill="#231F20"/>
<path d="M147.656 85.49C147.497 85.4877 147.34 85.4564 147.193 85.3974C145.357 84.6817 146.14 81.3305 146.241 80.9515C146.263 80.8558 146.318 80.7711 146.397 80.7124C146.476 80.6538 146.573 80.6251 146.671 80.6316C150.131 80.7916 150.165 80.8673 150.283 81.162C150.401 81.4568 149.626 84.067 148.725 84.9764C148.591 85.1295 148.427 85.2539 148.243 85.3422C148.059 85.4304 147.859 85.4807 147.656 85.49ZM146.982 81.4904C146.797 82.4503 146.637 84.2775 147.496 84.6143C147.564 84.6395 147.637 84.6474 147.71 84.6371C147.782 84.6268 147.85 84.5987 147.908 84.5554C148.616 84.1175 149.205 82.4251 149.407 81.6504C148.902 81.5999 147.925 81.541 146.982 81.4904Z" fill="#231F20"/>
<path d="M172.613 114.59C172.613 114.59 164.243 127.018 162.618 129.485C160.993 131.952 127.616 114.86 127.616 114.86L122.563 126.092C122.563 126.092 169.986 157.727 172.327 152.195C174.667 146.663 179.543 124.408 179.543 124.408" fill="#333333"/>
<path d="M159.217 129.123C153.904 129.123 133.233 118.809 130.774 117.571C130.675 117.52 130.6 117.433 130.565 117.327C130.53 117.221 130.539 117.106 130.589 117.007C130.639 116.908 130.727 116.832 130.833 116.798C130.938 116.763 131.053 116.771 131.153 116.821C141.257 121.874 157.129 129.098 159.68 128.231C162.526 127.254 168.783 114.051 170.947 109.041C170.991 108.938 171.075 108.858 171.179 108.817C171.283 108.776 171.4 108.778 171.502 108.822C171.605 108.867 171.686 108.951 171.727 109.055C171.768 109.159 171.766 109.275 171.721 109.378C170.879 111.256 163.672 127.751 159.933 129.022C159.701 129.093 159.46 129.127 159.217 129.123Z" fill="#231F20"/>
<path d="M163.697 148.49C152.75 148.49 124.408 127.919 123.12 126.976C123.075 126.944 123.037 126.902 123.008 126.855C122.979 126.808 122.96 126.755 122.951 126.701C122.943 126.646 122.945 126.59 122.958 126.536C122.971 126.482 122.995 126.432 123.027 126.387C123.06 126.342 123.101 126.304 123.148 126.275C123.195 126.246 123.248 126.227 123.303 126.218C123.357 126.21 123.413 126.212 123.467 126.225C123.521 126.238 123.572 126.262 123.617 126.294C123.953 126.538 157.356 150.805 165.566 147.345C168.378 146.157 177.969 130.967 181.429 125.216C181.487 125.122 181.579 125.054 181.686 125.028C181.794 125.001 181.907 125.017 182.002 125.073C182.051 125.101 182.093 125.138 182.127 125.183C182.161 125.228 182.185 125.279 182.198 125.333C182.212 125.387 182.214 125.444 182.205 125.499C182.196 125.554 182.175 125.607 182.145 125.654C181.632 126.496 169.515 146.587 165.894 148.119C165.194 148.388 164.446 148.514 163.697 148.49Z" fill="#231F20"/>
<path d="M98.5916 123.835C98.5084 123.835 98.4273 123.81 98.3584 123.764C98.2895 123.717 98.2358 123.651 98.2042 123.574C96.857 120.375 98.2042 118.236 98.2042 118.143C98.2326 118.094 98.2707 118.05 98.3163 118.016C98.362 117.982 98.4141 117.957 98.4696 117.943C98.5252 117.93 98.5829 117.927 98.6392 117.937C98.6956 117.946 98.7495 117.967 98.7976 117.998C98.8457 118.029 98.887 118.069 98.9189 118.117C98.9509 118.164 98.9729 118.217 98.9836 118.274C98.9942 118.33 98.9933 118.387 98.9809 118.443C98.9686 118.499 98.9449 118.552 98.9115 118.598C98.861 118.682 97.7832 120.476 98.9115 123.246C98.9336 123.297 98.9452 123.353 98.9457 123.409C98.9461 123.464 98.9355 123.52 98.9143 123.572C98.8932 123.623 98.8619 123.67 98.8224 123.71C98.7829 123.749 98.7359 123.781 98.6842 123.802C98.655 123.817 98.6238 123.829 98.5916 123.835Z" fill="#231F20"/>
<path d="M41.5456 97.7834H21.6319C19.2709 97.7836 16.9387 98.3015 14.7995 99.3006C12.6603 100.3 10.7661 101.756 9.25049 103.566C7.73483 105.376 6.63453 107.497 6.02708 109.778C5.41963 112.06 5.31981 114.447 5.73464 116.771L19.99 195.971H72.7255L57.4429 111.079C56.7718 107.351 54.8122 103.977 51.9065 101.547C49.0007 99.1168 45.3336 97.7847 41.5456 97.7834Z" fill="white"/>
<path d="M72.7243 196.417H19.9888C19.8891 196.419 19.7921 196.385 19.715 196.322C19.6379 196.259 19.5857 196.17 19.5678 196.072L5.31242 116.872C4.89219 114.488 4.9988 112.041 5.62477 109.703C6.25074 107.364 7.3809 105.191 8.93593 103.336C10.491 101.481 12.4332 99.9889 14.6262 98.9642C16.8193 97.9394 19.2101 97.4071 21.6307 97.4045H41.5444C45.4315 97.4029 49.1954 98.7684 52.1772 101.262C55.1589 103.756 57.1686 107.219 57.8543 111.045L73.179 195.921C73.1901 195.981 73.1877 196.043 73.1721 196.103C73.1565 196.162 73.1281 196.218 73.0887 196.265C73.0494 196.313 73.0001 196.351 72.9444 196.377C72.8887 196.403 72.828 196.417 72.7664 196.417H72.7243ZM20.334 195.575H72.2191L57.0628 111.155C56.4042 107.523 54.4881 104.239 51.6506 101.879C48.8131 99.5188 45.2352 98.2328 41.5444 98.2466H21.6307C19.3279 98.2456 17.053 98.7504 14.9666 99.7252C12.8803 100.7 11.0334 102.121 9.55653 103.888C8.07961 105.655 7.00868 107.724 6.41936 109.95C5.83005 112.176 5.73674 114.505 6.14602 116.771L20.334 195.575Z" fill="#231F20"/>
<path d="M79.9997 147.926C79.9997 147.926 81.5827 169.961 83.1741 170.492C84.7655 171.022 100.915 172.613 100.915 172.613L99.2314 181.084C99.2314 181.084 68.0768 182.676 66.519 176.984C64.9613 171.292 63.0752 143.715 63.0752 143.715L79.9997 147.926Z" fill="white"/>
<path d="M89.7086 181.699C80.2443 181.699 67.1762 180.983 66.0816 177.059C64.4986 171.384 62.7135 144.861 62.6293 143.732C62.6221 143.667 62.6315 143.602 62.6565 143.541C62.6815 143.481 62.7214 143.428 62.7725 143.387C62.8229 143.344 62.8826 143.313 62.9468 143.297C63.0111 143.281 63.0782 143.28 63.1429 143.294L80.1012 147.505C80.1875 147.525 80.2647 147.573 80.321 147.641C80.3773 147.71 80.4095 147.795 80.4127 147.883C81.1621 158.198 82.4588 169.33 83.3513 170.096C84.5723 170.5 96.4784 171.729 100.958 172.176C101.018 172.18 101.076 172.197 101.128 172.226C101.18 172.256 101.226 172.296 101.261 172.344C101.295 172.393 101.318 172.447 101.33 172.505C101.341 172.563 101.341 172.623 101.328 172.681L99.6444 181.152C99.6247 181.242 99.5764 181.323 99.5066 181.384C99.4368 181.445 99.3493 181.481 99.257 181.488C98.154 181.522 94.3649 181.699 89.7086 181.699ZM63.505 144.254C63.7829 148.246 65.4585 171.696 66.8731 176.832C68.094 181.185 90.037 181.042 98.8697 180.646L100.427 172.95C97.7162 172.681 84.5386 171.35 83.0566 170.854C81.5747 170.357 80.2275 156.598 79.6128 148.229L63.505 144.254Z" fill="#231F20"/>
<path d="M65.3658 115.836C65.5931 116.384 75.2932 121.124 79.6801 133.047C84.067 144.97 84.2522 151.521 84.2522 151.521H59.4043L65.3658 115.836Z" fill="#333333"/>
<path d="M44.2906 114.06C44.2906 114.06 35.1884 116.636 33.3444 120.872C31.5004 125.107 35.2557 182.111 35.2557 182.111L77.8955 183.433C77.8955 183.433 71.2772 156.152 73.3907 149.003C75.5042 141.855 73.6601 127.288 72.8602 123.313C72.0603 119.339 64.1201 115.634 61.4762 114.051C58.8322 112.468 44.2906 114.06 44.2906 114.06Z" fill="#333333"/>
<path d="M58.1754 183.29H58.1081C57.999 183.272 57.9016 183.211 57.837 183.121C57.7724 183.031 57.7458 182.92 57.7629 182.81C63.4128 147.976 60.491 123.238 60.4573 123.027C60.4455 122.917 60.4778 122.806 60.5472 122.719C60.6166 122.632 60.7174 122.577 60.8278 122.564C60.8822 122.556 60.9377 122.559 60.991 122.573C61.0442 122.587 61.0941 122.611 61.1374 122.645C61.1808 122.679 61.2168 122.721 61.2431 122.77C61.2695 122.818 61.2858 122.871 61.2909 122.926C61.2909 123.17 64.2632 148.018 58.5964 182.979C58.5705 183.07 58.5151 183.15 58.4389 183.206C58.3628 183.262 58.2701 183.292 58.1754 183.29Z" fill="#231F20"/>
<path d="M46.9082 99.7959C46.8155 99.6106 46.7061 99.3496 46.5713 98.9538C46.1588 97.8929 45.3167 97.2698 44.8115 96.2341C43.8432 94.3564 44.1884 92.5629 44.0874 90.5589C43.9299 88.0493 44.4199 85.5413 45.5104 83.2755C45.9257 82.2761 46.6292 81.4231 47.5312 80.8252C47.9867 80.5429 48.5202 80.4128 49.0545 80.4537C49.5888 80.4946 50.0963 80.7043 50.5036 81.0526C50.2944 80.5373 50.2379 79.9727 50.3409 79.4262C50.4439 78.8798 50.7021 78.3745 51.0846 77.9708C51.8643 77.1776 52.8188 76.5779 53.8716 76.2194C55.4637 75.5015 57.1787 75.0956 58.9237 75.0237C59.7999 74.9948 60.6729 75.1416 61.4914 75.4554C62.3099 75.7692 63.0573 76.2437 63.6896 76.8509C64.8768 78.0887 65.3736 79.8148 66.2156 81.2883C67.0576 82.7618 68.7417 84.1007 70.3752 83.6291C71.7056 83.2586 72.4634 81.8777 72.9686 80.5894C73.2973 81.7272 73.341 82.9283 73.0958 84.0869C72.8506 85.2456 72.324 86.326 71.5624 87.233C72.7013 86.8184 73.7277 86.1437 74.56 85.2626C74.5358 86.6702 73.9931 88.0194 73.0359 89.0517C71.913 90.0919 70.5891 90.8913 69.1458 91.4009C68.3627 91.7377 67.6049 91.8725 67.2934 92.6219C66.9818 93.3713 67.3523 94.4743 67.0324 95.3247C66.5175 96.7285 65.7338 98.0184 64.7252 99.1222C63.1072 100.777 60.999 101.867 58.7132 102.229C56.4365 102.583 54.1146 102.523 51.8592 102.052C50.6744 101.876 49.5325 101.482 48.4911 100.89C47.4302 100.267 47.2618 100.503 46.9082 99.7959Z" fill="white"/>
<path d="M56.0282 102.937C54.6152 102.928 53.2059 102.79 51.8181 102.524C50.5649 102.344 49.3567 101.93 48.2564 101.303C47.9878 101.135 47.7063 100.988 47.4144 100.865C47.2106 100.796 47.0233 100.685 46.864 100.54C46.7047 100.395 46.5768 100.219 46.4882 100.023C46.3548 99.7493 46.2368 99.4682 46.1345 99.1812C45.902 98.6672 45.5987 98.1882 45.2336 97.7582C44.9146 97.3699 44.6327 96.9527 44.3915 96.512C43.7703 95.1439 43.5122 93.6388 43.6421 92.1419C43.6421 91.662 43.6421 91.1652 43.6421 90.6515C43.4897 88.069 43.9968 85.4901 45.1157 83.1576C45.5698 82.0848 46.3316 81.1706 47.3049 80.5305C47.6826 80.3095 48.1015 80.1678 48.5358 80.1142C48.9702 80.0607 49.4109 80.0963 49.831 80.2189C49.8282 79.3151 50.1544 78.4412 50.7488 77.7603C51.5747 76.9153 52.5868 76.2751 53.7043 75.891C55.3598 75.1557 57.1399 74.7414 58.95 74.6701C59.8803 74.6442 60.8064 74.8044 61.674 75.1413C62.5415 75.4782 63.3331 75.985 64.0021 76.632C64.7576 77.5077 65.3661 78.5001 65.804 79.5706C66.0566 80.1011 66.3177 80.6484 66.646 81.1536C67.4207 82.4671 68.9027 83.6796 70.3172 83.3007C71.2519 83.0313 72.0013 82.1472 72.6244 80.5137C72.6566 80.4297 72.7148 80.3582 72.7906 80.3097C72.8663 80.2612 72.9556 80.2382 73.0454 80.2442C73.135 80.246 73.2218 80.2764 73.2929 80.3309C73.3641 80.3854 73.416 80.4612 73.4411 80.5473C73.9833 82.4418 73.7815 84.4719 72.877 86.2225C73.3987 85.8939 73.8769 85.5007 74.3 85.0521C74.3591 84.9869 74.4369 84.9414 74.5227 84.9218C74.6086 84.9022 74.6984 84.9095 74.7799 84.9427C74.8591 84.9768 74.9266 85.0332 74.9745 85.1049C75.0223 85.1766 75.0483 85.2606 75.0494 85.3468C75.0345 86.8644 74.4517 88.3214 73.4159 89.4306C72.2521 90.5152 70.8798 91.3517 69.3826 91.8893L68.8858 92.083C68.2711 92.3187 67.9175 92.4619 67.7491 92.866C67.642 93.2435 67.6106 93.6384 67.6565 94.028C67.7077 94.5444 67.6533 95.0658 67.4965 95.5605C66.9647 97.0177 66.1522 98.3566 65.1052 99.5011C63.4207 101.224 61.2277 102.36 58.849 102.743C57.9163 102.891 56.9724 102.956 56.0282 102.937ZM47.2965 99.5685C47.4481 99.88 47.4902 99.8969 47.8101 100.04C48.127 100.181 48.4336 100.345 48.7279 100.528C49.7373 101.1 50.8459 101.474 51.995 101.631C54.1943 102.096 56.4598 102.155 58.6806 101.808C60.8753 101.464 62.9007 100.422 64.4568 98.8359C65.4284 97.774 66.1835 96.5327 66.6797 95.1816C66.7856 94.7895 66.817 94.3811 66.7724 93.9775C66.7184 93.4661 66.7759 92.949 66.9408 92.4619C67.1019 92.1422 67.332 91.8623 67.6145 91.6424C67.897 91.4225 68.2248 91.2681 68.5743 91.1904L69.029 91.0136C70.4139 90.5185 71.6873 89.7545 72.7759 88.7654C73.3758 88.1113 73.804 87.3186 74.0221 86.4583C73.3373 87.0011 72.5697 87.4304 71.7487 87.7297C71.6575 87.7629 71.5578 87.7648 71.4654 87.7352C71.373 87.7056 71.2931 87.6461 71.2381 87.5661C71.1832 87.4861 71.1564 87.3901 71.1619 87.2933C71.1675 87.1964 71.205 87.1041 71.2687 87.0309C72.4226 85.6516 72.9828 83.8713 72.8265 82.0798C72.5987 82.5576 72.2781 82.9853 71.8835 83.338C71.4888 83.6907 71.028 83.9614 70.5277 84.1343C68.6669 84.6648 66.8481 83.2418 65.8714 81.6083C65.5514 81.0694 65.2904 80.4968 65.0294 79.9242C64.6177 78.9383 64.049 78.0255 63.3453 77.2214C62.7569 76.6593 62.0618 76.2207 61.3011 75.9314C60.5405 75.6422 59.7296 75.5082 58.9163 75.5373C57.2222 75.6111 55.557 76.0024 54.0074 76.6909C53.0128 77.0406 52.1133 77.6171 51.3803 78.3749C51.0605 78.7175 50.8423 79.1423 50.7501 79.6018C50.6579 80.0613 50.6953 80.5373 50.8582 80.9768C50.9056 81.0689 50.918 81.175 50.8932 81.2756C50.8685 81.3762 50.8082 81.4644 50.7235 81.5241C50.6382 81.5822 50.5353 81.609 50.4324 81.5998C50.3295 81.5906 50.233 81.546 50.1594 81.4736C49.8218 81.1911 49.4027 81.024 48.9633 80.9967C48.524 80.9694 48.0874 81.0834 47.7175 81.322C46.8869 81.872 46.2437 82.6621 45.8735 83.587C44.8519 85.7683 44.3972 88.1721 44.5515 90.5758C44.5515 91.0978 44.5515 91.6114 44.5515 92.1166C44.4345 93.4728 44.6603 94.8366 45.2083 96.0825C45.4237 96.4771 45.6775 96.8494 45.9661 97.194C46.3853 97.6877 46.7287 98.2411 46.985 98.8359C47.1197 99.1812 47.2207 99.4254 47.3049 99.6022L47.2965 99.5685Z" fill="#231F20"/>
<path d="M64.0773 110.734L64.9193 116.19C64.9193 116.19 64.0773 124.122 58.0653 122.732C56.2542 122.275 54.5636 121.431 53.11 120.258C51.6564 119.085 50.4743 117.611 49.6451 115.937L48.8789 101.53C48.8789 101.53 53.2911 99.1222 51.9018 89.5064C56.8275 91.5664 62.2179 92.2587 67.5043 91.5104C67.5043 91.5104 69.643 101.421 68.961 106.06C68.8554 107.3 68.3011 108.459 67.402 109.32C66.5029 110.18 65.3207 110.683 64.0773 110.734Z" fill="white"/>
<path d="M59.4206 123.33C58.9298 123.327 58.4411 123.268 57.9639 123.153C56.0916 122.683 54.345 121.808 52.8467 120.59C51.3484 119.373 50.1348 117.842 49.2911 116.106C49.2815 116.056 49.2815 116.004 49.2911 115.954L48.5333 101.556C48.5274 101.473 48.5459 101.391 48.5863 101.319C48.6267 101.248 48.6873 101.189 48.7606 101.152C48.7606 101.152 52.8781 98.7181 51.5561 89.5654C51.5437 89.4869 51.5537 89.4065 51.585 89.3335C51.6162 89.2605 51.6676 89.1978 51.7329 89.1528C51.7992 89.1135 51.8748 89.0928 51.9519 89.0928C52.0289 89.0928 52.1045 89.1135 52.1708 89.1528C57.0096 91.1621 62.2965 91.8451 67.4871 91.1315C67.5971 91.1164 67.7087 91.1437 67.7994 91.2077C67.8901 91.2718 67.953 91.368 67.9755 91.4767C68.0597 91.8809 70.1142 101.505 69.4321 106.17C69.3195 107.425 68.7815 108.605 67.9072 109.513C67.0328 110.421 65.8746 111.003 64.6242 111.163L65.3905 116.165C65.3987 116.201 65.3987 116.238 65.3905 116.274C65.3905 116.451 64.8937 120.627 62.2666 122.497C61.4304 123.07 60.4337 123.362 59.4206 123.33ZM50.1584 115.828C50.9649 117.416 52.0996 118.814 53.4874 119.93C54.8751 121.047 56.4842 121.855 58.2081 122.303C58.8046 122.479 59.4327 122.52 60.047 122.424C60.6614 122.328 61.2469 122.097 61.7614 121.747C63.9254 120.206 64.4642 116.695 64.5232 116.19L63.6812 110.801C63.6715 110.74 63.6755 110.677 63.693 110.617C63.7104 110.557 63.7409 110.502 63.7822 110.456C63.8233 110.409 63.8738 110.371 63.9304 110.345C63.9869 110.319 64.0483 110.305 64.1106 110.304C65.2497 110.253 66.3307 109.787 67.1508 108.995C67.971 108.202 68.4737 107.138 68.5649 106.002C69.1543 102.01 67.5797 93.8765 67.1924 92.0072C62.2238 92.6227 57.18 92.0038 52.5076 90.2053C53.4591 98.2465 50.3184 101.101 49.4006 101.758L50.1584 115.828Z" fill="#231F20"/>
<path d="M61.0042 97.3203C61.0042 97.3203 63.8502 102.541 62.9914 103.324C62.1325 104.107 59.9854 103.324 59.9854 103.324" fill="white"/>
<path d="M61.796 104.141C61.1325 104.125 60.4758 104.002 59.8509 103.779C59.7464 103.742 59.6605 103.666 59.6116 103.567C59.5628 103.468 59.555 103.353 59.5899 103.248C59.628 103.143 59.7057 103.057 59.8063 103.008C59.907 102.959 60.0226 102.952 60.1288 102.987C60.8697 103.248 62.217 103.501 62.7053 103.054C62.9748 102.65 62.0065 100.082 60.634 97.5645C60.5804 97.4663 60.568 97.3508 60.5996 97.2434C60.6312 97.136 60.7041 97.0456 60.8024 96.992C60.9006 96.9384 61.0162 96.926 61.1235 96.9576C61.2309 96.9892 61.3214 97.0621 61.375 97.1604C62.4948 99.2233 64.2378 102.802 63.2779 103.678C62.8586 104.011 62.3303 104.176 61.796 104.141Z" fill="#231F20"/>
<path d="M58.2364 97.7121C58.5616 97.6984 58.7999 97.0847 58.7686 96.3413C58.7373 95.5979 58.4483 95.0063 58.1231 95.02C57.7978 95.0337 57.5595 95.6474 57.5908 96.3908C57.6221 97.1342 57.9111 97.7258 58.2364 97.7121Z" fill="#231F20"/>
<path d="M65.7656 98.0165C66.0911 98.0035 66.3308 97.3898 66.3011 96.6457C66.2713 95.9017 65.9833 95.309 65.6578 95.3221C65.3323 95.3351 65.0925 95.9488 65.1222 96.6929C65.152 97.4369 65.44 98.0295 65.7656 98.0165Z" fill="#231F20"/>
<path d="M52.7695 99.0885C52.2384 98.1832 51.538 97.3885 50.7066 96.7477C50.2784 96.3691 49.7426 96.1336 49.1741 96.0741C48.7052 96.0722 48.2459 96.2068 47.8522 96.4614C47.2622 96.8083 46.7519 97.2754 46.3544 97.8325C45.9569 98.3896 45.6811 99.0241 45.545 99.6948C45.414 100.317 45.4401 100.963 45.6208 101.572C45.9609 102.515 46.6189 103.31 47.4817 103.821C48.3424 104.318 49.2579 104.713 50.2098 105" fill="white"/>
<path d="M50.2097 105.395C50.1651 105.404 50.1195 105.404 50.0749 105.395C49.0883 105.09 48.1414 104.669 47.2542 104.141C46.3002 103.578 45.5733 102.699 45.1997 101.657C45.0046 100.977 44.9785 100.26 45.1239 99.5685C45.2745 98.8364 45.5771 98.144 46.0123 97.5363C46.4474 96.9285 47.0053 96.4189 47.6499 96.0405C48.1133 95.7472 48.6508 95.5924 49.1992 95.5942C49.8583 95.6622 50.481 95.9295 50.9843 96.3604C51.8582 97.0353 52.5931 97.8731 53.1483 98.8275C53.1891 98.9254 53.1931 99.0348 53.1594 99.1353C53.1257 99.2359 53.0567 99.3208 52.9651 99.3743C52.8736 99.4278 52.7657 99.4462 52.6616 99.4262C52.5574 99.4062 52.4641 99.349 52.3989 99.2654C51.8942 98.4123 51.2312 97.6635 50.4454 97.0593C50.084 96.7394 49.6355 96.5342 49.1571 96.4699C48.7702 96.4754 48.3931 96.5923 48.0709 96.8067C47.5347 97.1218 47.0709 97.5464 46.7096 98.0527C46.3484 98.559 46.0979 99.1358 45.9743 99.7453C45.8546 100.303 45.8748 100.882 46.0333 101.429C46.3444 102.273 46.9399 102.982 47.7173 103.433C48.5497 103.911 49.434 104.293 50.3528 104.57C50.4076 104.588 50.4581 104.617 50.5015 104.655C50.5449 104.693 50.5803 104.739 50.6054 104.791C50.6306 104.843 50.645 104.899 50.6479 104.957C50.6508 105.014 50.6421 105.072 50.6222 105.126C50.5894 105.208 50.5323 105.277 50.4584 105.326C50.3846 105.374 50.2978 105.398 50.2097 105.395Z" fill="#231F20"/>
<path d="M64.0771 110.734C60.6321 111.255 57.1106 110.665 54.0234 109.05C54.0234 109.05 59.1513 116.931 64.8686 115.786L64.0771 110.734Z" fill="#231F20"/>
<path d="M63.7402 116.375C58.3345 116.375 53.8718 109.639 53.636 109.311C53.5807 109.236 53.5508 109.146 53.5508 109.054C53.5508 108.961 53.5807 108.871 53.636 108.797C53.6969 108.729 53.7787 108.683 53.8686 108.666C53.9585 108.649 54.0515 108.663 54.1328 108.704C57.1416 110.263 60.5668 110.829 63.9171 110.321C64.0311 110.302 64.1482 110.326 64.2454 110.388C64.2927 110.422 64.3327 110.464 64.3631 110.514C64.3935 110.563 64.4136 110.618 64.4223 110.675L65.2053 115.786C65.2205 115.894 65.1941 116.003 65.1316 116.092C65.0691 116.181 64.9751 116.243 64.8685 116.266C64.4963 116.335 64.1188 116.371 63.7402 116.375ZM55.3201 110.127C57.0041 112.182 60.549 115.946 64.3886 115.499L63.7318 111.222C60.8804 111.576 57.9858 111.2 55.3201 110.127Z" fill="#231F20"/>
<path d="M56.474 101.21C55.5161 101.212 54.5792 100.93 53.7819 100.399C52.9846 99.8676 52.3627 99.112 51.995 98.2275C51.6273 97.3429 51.5302 96.3692 51.716 95.4294C51.9019 94.4897 52.3623 93.6262 53.0391 92.9483C53.7159 92.2703 54.5786 91.8084 55.518 91.6209C56.4574 91.4334 57.4313 91.5288 58.3165 91.895C59.2016 92.2612 59.9583 92.8817 60.4907 93.6781C61.0231 94.4745 61.3072 95.4109 61.3072 96.3688C61.3072 97.6514 60.7983 98.8816 59.8921 99.7894C58.986 100.697 57.7567 101.208 56.474 101.21ZM56.474 92.4029C55.6873 92.4012 54.9177 92.6331 54.2629 93.0692C53.608 93.5053 53.0973 94.1259 52.7955 94.8524C52.4936 95.579 52.4142 96.3788 52.5673 97.1505C52.7203 97.9222 53.099 98.6312 53.6554 99.1875C54.2117 99.7438 54.9206 100.123 55.6923 100.276C56.4641 100.429 57.2639 100.349 57.9904 100.047C58.717 99.7456 59.3376 99.2348 59.7737 98.58C60.2097 97.9251 60.4416 97.1556 60.4399 96.3688C60.4377 95.3177 60.0192 94.3102 59.2759 93.567C58.5326 92.8237 57.5252 92.4051 56.474 92.4029Z" fill="#231F20"/>
<path d="M65.9725 101.21C65.0149 101.21 64.0788 100.926 63.2826 100.394C62.4864 99.8625 61.8659 99.1063 61.4994 98.2216C61.133 97.3369 61.0371 96.3634 61.2239 95.4243C61.4107 94.4851 61.8718 93.6224 62.5489 92.9453C63.226 92.2682 64.0887 91.8071 65.0279 91.6203C65.9671 91.4334 66.9406 91.5293 67.8253 91.8958C68.7099 92.2622 69.4661 92.8828 69.9981 93.679C70.5301 94.4752 70.8141 95.4113 70.8141 96.3688C70.8141 97.6529 70.304 98.8844 69.396 99.7923C68.488 100.7 67.2565 101.21 65.9725 101.21ZM65.9725 92.4029C65.1857 92.4013 64.4161 92.6331 63.7613 93.0692C63.1064 93.5053 62.5957 94.1259 62.2939 94.8525C61.992 95.579 61.9126 96.3788 62.0657 97.1505C62.2188 97.9223 62.5975 98.6312 63.1538 99.1875C63.7101 99.7438 64.419 100.123 65.1908 100.276C65.9625 100.429 66.7623 100.349 67.4888 100.047C68.2154 99.7456 68.836 99.2349 69.2721 98.58C69.7081 97.9251 69.94 97.1556 69.9384 96.3688C69.9361 95.3177 69.5176 94.3102 68.7743 93.567C68.031 92.8237 67.0236 92.4051 65.9725 92.4029Z" fill="#231F20"/>
<path d="M61.5683 106.195L59.0423 104.966C59.0423 104.966 58.3855 107.054 59.438 107.492C60.4905 107.93 61.5683 106.195 61.5683 106.195Z" fill="#231F20"/>
<path d="M59.7671 107.997C59.5848 107.996 59.4045 107.959 59.2366 107.888C57.8725 107.315 58.5293 105.092 58.6051 104.84C58.6251 104.783 58.6562 104.73 58.6967 104.685C58.7372 104.64 58.7862 104.604 58.8409 104.579C58.8964 104.553 58.9567 104.54 59.0177 104.54C59.0787 104.54 59.1389 104.553 59.1945 104.579L61.7205 105.808C61.7744 105.834 61.8219 105.872 61.8597 105.918C61.8975 105.965 61.9248 106.019 61.9395 106.077C61.9622 106.131 61.9739 106.188 61.9739 106.246C61.9739 106.304 61.9622 106.361 61.9395 106.414C61.8132 106.608 60.887 107.997 59.7671 107.997ZM59.2955 105.572C59.1861 106.17 59.1608 106.945 59.565 107.113C59.9692 107.281 60.567 106.785 60.929 106.355L59.2955 105.572Z" fill="#231F20"/>
<path d="M62.0144 182.33H119.608V178.701H62.0144V182.33Z" fill="white"/>
<path d="M119.609 182.743H62.0148C61.9031 182.743 61.796 182.699 61.7171 182.62C61.6381 182.541 61.5938 182.434 61.5938 182.322V178.693C61.5959 178.582 61.641 178.476 61.7194 178.398C61.7979 178.319 61.9038 178.274 62.0148 178.272H119.609C119.72 178.274 119.826 178.319 119.904 178.398C119.983 178.476 120.028 178.582 120.03 178.693V182.322C120.03 182.434 119.985 182.541 119.906 182.62C119.827 182.699 119.72 182.743 119.609 182.743ZM62.4358 181.901H119.188V179.08H62.4358V181.901Z" fill="#231F20"/>
<path d="M27.8201 147.412C27.8201 147.412 23.8458 178.567 26.035 181.093C28.2243 183.619 67.6475 177.969 71.8239 177.767C76.0003 177.565 84.2353 180.099 84.0332 175.729C83.8311 171.359 73.2385 171.03 70.4599 172.42C67.6812 173.809 40.5346 171.578 40.5346 171.578L41.3261 147.404L27.8201 147.412Z" fill="white"/>
<path d="M30.7 182.212C27.8792 182.212 26.1868 181.951 25.7068 181.37C23.467 178.727 26.9951 150.544 27.3908 147.345C27.405 147.243 27.4553 147.149 27.5325 147.081C27.6098 147.013 27.7089 146.975 27.8119 146.974H41.2841C41.3979 146.974 41.5069 147.02 41.5873 147.1C41.6271 147.142 41.658 147.19 41.6783 147.244C41.6986 147.298 41.7077 147.355 41.7051 147.412L40.9221 171.182C48.7276 171.814 68.0771 173.127 70.2327 172.024C72.3882 170.921 79.0402 170.828 82.3998 172.79C82.959 173.058 83.4388 173.466 83.7917 173.976C84.1447 174.485 84.3585 175.078 84.4122 175.695C84.4477 176.069 84.3997 176.445 84.2715 176.798C84.1433 177.15 83.9383 177.47 83.6713 177.733C82.2314 179.097 78.9981 178.752 75.8658 178.423C74.5175 178.246 73.1587 178.162 71.7988 178.171C70.78 178.221 67.513 178.617 63.3787 179.114C47.9192 181.034 36.7372 182.212 30.7 182.212ZM28.1739 147.833C26.5994 160.278 24.8059 179.072 26.3383 180.848C27.8708 182.625 52.6935 179.602 63.3029 178.322C67.6224 177.8 70.7379 177.421 71.782 177.371C73.1897 177.359 74.5966 177.446 75.9921 177.632C78.796 177.927 81.9704 178.255 83.1324 177.16C83.3107 176.979 83.4457 176.76 83.5274 176.52C83.6091 176.279 83.6352 176.023 83.6039 175.771C83.554 175.295 83.38 174.841 83.0992 174.454C82.8184 174.067 82.4407 173.76 82.0041 173.565C79.0149 171.805 72.6408 171.822 70.6453 172.824C67.8329 174.222 43.2797 172.235 40.4926 171.982C40.3847 171.975 40.2836 171.927 40.2111 171.846C40.1387 171.766 40.1007 171.661 40.1053 171.553L40.88 147.816L28.1739 147.833Z" fill="#231F20"/>
<path d="M92.252 145.189H127.718L119.382 178.769H83.916L92.252 145.189Z" fill="white"/>
<path d="M119.381 179.19H83.9152C83.8501 179.188 83.786 179.173 83.7278 179.143C83.6695 179.114 83.6185 179.073 83.5784 179.021C83.5418 178.971 83.5161 178.913 83.5031 178.852C83.49 178.792 83.4899 178.729 83.5026 178.668L91.847 145.088C91.868 144.997 91.9195 144.915 91.993 144.857C92.0664 144.799 92.1575 144.768 92.2512 144.768H127.717C127.78 144.768 127.843 144.782 127.9 144.81C127.957 144.837 128.007 144.878 128.045 144.928C128.086 144.978 128.114 145.037 128.127 145.1C128.14 145.163 128.138 145.228 128.121 145.29L119.785 178.87C119.764 178.961 119.713 179.042 119.639 179.101C119.566 179.159 119.475 179.19 119.381 179.19ZM84.4541 178.348H119.053L127.178 145.61H92.5459L84.4541 178.348Z" fill="#231F20"/>
<path d="M38.0006 118.287C37.7985 118.413 34.3883 119.364 34.2115 119.566C30.9697 123.078 29.1594 125.536 27.8206 130.066C26.0753 136.349 25.0748 142.815 24.8398 149.332C24.8398 149.332 38.1521 154.106 43.9115 151.294C43.9115 151.294 47.2796 127.456 43.9115 120.905C42.699 118.573 40.7961 116.459 38.0006 118.287Z" fill="#333333"/>
<path d="M44.3407 148.313H44.2481C44.1941 148.302 44.1429 148.28 44.0974 148.249C44.052 148.218 44.0132 148.178 43.9834 148.132C43.9535 148.086 43.9333 148.034 43.9238 147.98C43.9143 147.925 43.9158 147.87 43.9281 147.816C43.9787 147.58 48.9129 124.585 42.8083 119.903C42.7221 119.834 42.6661 119.734 42.6519 119.624C42.6378 119.514 42.6667 119.403 42.7325 119.314C42.8007 119.226 42.9011 119.168 43.0115 119.154C43.122 119.14 43.2336 119.17 43.3219 119.238C49.8475 124.24 44.9638 147.025 44.7533 147.993C44.7306 148.085 44.6775 148.167 44.6026 148.225C44.5277 148.283 44.4355 148.314 44.3407 148.313Z" fill="#231F20"/>
<path d="M72.9943 151.942H72.927C72.8721 151.933 72.8196 151.913 72.7725 151.883C72.7255 151.854 72.6847 151.815 72.6526 151.77C72.6205 151.724 72.5977 151.673 72.5855 151.619C72.5734 151.564 72.5721 151.508 72.5818 151.454C72.5818 151.277 75.7225 133.224 72.5818 126.277C72.555 126.226 72.5389 126.171 72.5344 126.113C72.53 126.056 72.5374 125.998 72.5561 125.944C72.5748 125.89 72.6044 125.84 72.6431 125.797C72.6819 125.755 72.7289 125.721 72.7813 125.697C72.8337 125.674 72.8903 125.661 72.9478 125.66C73.0053 125.659 73.0623 125.67 73.1154 125.692C73.1685 125.714 73.2165 125.747 73.2565 125.788C73.2965 125.829 73.3277 125.878 73.348 125.932C76.5561 133.114 73.508 150.847 73.348 151.597C73.3342 151.685 73.2923 151.766 73.2286 151.828C73.1648 151.89 73.0827 151.93 72.9943 151.942Z" fill="#231F20"/>
<path d="M229.222 182.322H0.420898V187.66H229.222V182.322Z" fill="white"/>
<path d="M229.222 188.081H0.421008C0.310025 188.079 0.204187 188.034 0.125695 187.956C0.0472032 187.877 0.00215563 187.771 0 187.66V182.322C0.00215563 182.211 0.0472032 182.105 0.125695 182.027C0.204187 181.948 0.310025 181.903 0.421008 181.901H229.222C229.334 181.901 229.441 181.945 229.52 182.024C229.599 182.103 229.643 182.21 229.643 182.322V187.66C229.643 187.772 229.599 187.879 229.52 187.958C229.441 188.037 229.334 188.081 229.222 188.081ZM0.842017 187.239H228.801V182.743H0.842017V187.239Z" fill="#231F20"/>
<path d="M224.179 187.66H5.47363V196.064H224.179V187.66Z" fill="white"/>
<path d="M224.178 196.485H5.47277C5.36111 196.485 5.25402 196.44 5.17507 196.361C5.09611 196.282 5.05176 196.175 5.05176 196.064V187.643C5.05176 187.532 5.09611 187.425 5.17507 187.346C5.25402 187.267 5.36111 187.222 5.47277 187.222H224.178C224.29 187.222 224.397 187.267 224.476 187.346C224.555 187.425 224.599 187.532 224.599 187.643V196.064C224.599 196.175 224.555 196.282 224.476 196.361C224.397 196.44 224.29 196.485 224.178 196.485ZM5.89377 195.643H223.757V188.065H5.89377V195.643Z" fill="#231F20"/>
<path d="M110.876 47.6329C110.871 53.0111 109.102 58.2391 105.839 62.5147C102.576 66.7903 98.0011 69.8773 92.815 71.302C92.5456 80.8252 83.9991 87.5193 83.4602 87.9319C88.2934 82.0883 88.7481 76.312 88.0745 72.0935C87.4935 72.144 86.9125 72.1693 86.3231 72.1693H67.4282C60.9163 72.1693 54.6711 69.5825 50.0665 64.9778C45.4618 60.3732 42.875 54.128 42.875 47.6161C42.875 41.1042 45.4618 34.859 50.0665 30.2543C54.6711 25.6497 60.9163 23.0629 67.4282 23.0629H86.3231C89.5489 23.0629 92.743 23.6985 95.7231 24.9335C98.7031 26.1684 101.411 27.9785 103.691 30.2603C105.971 32.5421 107.779 35.2508 109.012 38.2316C110.245 41.2125 110.879 44.4071 110.876 47.6329Z" fill="white"/>
<path d="M83.4613 88.3613C83.3809 88.3622 83.3019 88.3401 83.2336 88.2975C83.1654 88.255 83.1107 88.1937 83.0762 88.1211C83.0416 88.0485 83.0286 87.9675 83.0387 87.8877C83.0487 87.8079 83.0814 87.7326 83.1329 87.6708C87.8314 81.9956 88.2524 76.3794 87.7219 72.5145C87.2504 72.5145 86.7957 72.565 86.3242 72.565H67.4293C60.8057 72.565 54.4534 69.9338 49.7699 65.2502C45.0863 60.5667 42.4551 54.2144 42.4551 47.5908C42.4551 40.9672 45.0863 34.6149 49.7699 29.9314C54.4534 25.2478 60.8057 22.6166 67.4293 22.6166H86.3242C92.3469 22.6123 98.1682 24.7846 102.716 28.7333C107.263 32.682 110.231 38.141 111.072 44.1047C111.912 50.0685 110.57 56.1351 107.291 61.1871C104.012 66.239 99.0179 69.9359 93.2287 71.5967C92.7656 81.2462 84.0844 87.9571 83.7139 88.2434C83.6459 88.3108 83.5566 88.3525 83.4613 88.3613ZM88.0756 71.6809C88.176 71.6813 88.2732 71.7169 88.3501 71.7815C88.427 71.8461 88.4788 71.9357 88.4966 72.0346C89.215 76.4995 88.3481 81.0751 86.0463 84.9679C88.6818 82.164 92.2267 77.2972 92.3951 71.2936C92.3979 71.2039 92.4298 71.1176 92.486 71.0477C92.5422 70.9778 92.6197 70.9282 92.7067 70.9062C98.3363 69.3551 103.213 65.8159 106.433 60.9445C109.653 56.0731 110.998 50.1996 110.219 44.4123C109.44 38.6251 106.59 33.3163 102.196 29.4698C97.8025 25.6232 92.1636 23.4995 86.3242 23.4923H67.4293C64.2602 23.4923 61.1222 24.1165 58.1943 25.3292C55.2665 26.542 52.6061 28.3196 50.3653 30.5604C48.1244 32.8013 46.3468 35.4616 45.134 38.3895C43.9213 41.3173 43.2971 44.4554 43.2971 47.6245C43.2971 50.7936 43.9213 53.9316 45.134 56.8595C46.3468 59.7873 48.1244 62.4477 50.3653 64.6885C52.6061 66.9294 55.2665 68.707 58.1943 69.9197C61.1222 71.1325 64.2602 71.7567 67.4293 71.7567H86.3242C86.9052 71.7567 87.4693 71.7567 88.0082 71.6809H88.0756Z" fill="#231F20"/>
<path d="M193.63 53.7881C193.63 57.9256 194.988 61.9487 197.497 65.2391C200.005 68.5295 203.525 70.9052 207.515 72.0009C207.725 79.3264 214.251 84.4712 214.714 84.7911C213.26 83.1476 212.188 81.2031 211.574 79.0968C210.96 76.9904 210.819 74.7744 211.161 72.6071C211.607 72.6071 212.053 72.6661 212.508 72.6661H227.041C232.048 72.6661 236.85 70.6771 240.39 67.1368C243.93 63.5965 245.919 58.7948 245.919 53.7881C245.919 48.7813 243.93 43.9796 240.39 40.4393C236.85 36.899 232.048 34.91 227.041 34.91H212.508C207.501 34.91 202.699 36.899 199.159 40.4393C195.619 43.9796 193.63 48.7813 193.63 53.7881Z" fill="white"/>
<path d="M214.715 85.2121C214.622 85.211 214.533 85.1783 214.462 85.1195C214.176 84.9006 207.499 79.739 207.111 72.3208C202.647 71.024 198.802 68.1596 196.281 64.254C193.76 60.3484 192.733 55.6642 193.39 51.0623C194.046 46.4604 196.342 42.2502 199.854 39.2053C203.367 36.1605 207.86 34.4858 212.509 34.489H227.042C232.16 34.489 237.069 36.5223 240.688 40.1416C244.308 43.7608 246.341 48.6696 246.341 53.788C246.341 58.9065 244.308 63.8153 240.688 67.4345C237.069 71.0538 232.16 73.0871 227.042 73.0871H212.509C212.18 73.0871 211.852 73.0871 211.523 73.0871C211.262 75.139 211.441 77.2229 212.048 79.2003C212.655 81.1777 213.676 83.0032 215.043 84.5554C215.112 84.6313 215.151 84.7304 215.151 84.8332C215.151 84.936 215.112 85.0351 215.043 85.1111C214.998 85.1492 214.946 85.1778 214.889 85.1951C214.833 85.2125 214.773 85.2183 214.715 85.2121ZM212.509 35.331C208.044 35.3398 203.733 36.966 200.375 39.9087C197.017 42.8513 194.839 46.9111 194.244 51.3362C193.649 55.7614 194.678 60.2522 197.14 63.9772C199.601 67.7022 203.329 70.4091 207.633 71.5967C207.72 71.6176 207.797 71.6672 207.852 71.7376C207.907 71.8079 207.937 71.8947 207.937 71.984C208.063 76.1941 210.319 79.6211 212.248 81.8272C210.761 78.9827 210.235 75.7333 210.749 72.565C210.767 72.4617 210.823 72.3688 210.905 72.3036C210.987 72.2385 211.09 72.2056 211.195 72.2114C211.633 72.2114 212.037 72.2703 212.509 72.2703H227.042C231.937 72.2703 236.632 70.3257 240.093 66.8644C243.554 63.403 245.499 58.7084 245.499 53.8133C245.499 48.9182 243.554 44.2236 240.093 40.7622C236.632 37.3009 231.937 35.3563 227.042 35.3563L212.509 35.331Z" fill="#231F20"/>
<path d="M138.672 0.429443H108.064C101.4 0.429443 95.0097 3.07662 90.2977 7.78861C85.5857 12.5006 82.9385 18.8915 82.9385 25.5552C82.9385 32.219 85.5857 38.6098 90.2977 43.3218C95.0097 48.0338 101.4 50.681 108.064 50.681H115.348C115.162 56.5751 120.4 66.0478 132.567 81.0526C132.567 81.0526 119.137 64.3133 121.435 50.681H138.672C145.335 50.681 151.726 48.0338 156.438 43.3218C161.15 38.6098 163.797 32.219 163.797 25.5552C163.797 22.2557 163.147 18.9884 161.885 15.94C160.622 12.8916 158.771 10.1218 156.438 7.78861C154.105 5.45547 151.335 3.60472 148.287 2.34203C145.238 1.07934 141.971 0.429443 138.672 0.429443Z" fill="white"/>
<path d="M132.567 81.4736C132.504 81.4745 132.441 81.4606 132.384 81.4328C132.327 81.405 132.277 81.3642 132.239 81.3136C120.518 66.8393 114.994 57.215 114.918 51.0936H108.064C101.289 51.0936 94.791 48.4021 90.0001 43.6111C85.2091 38.8201 82.5176 32.3222 82.5176 25.5468C82.5176 18.7714 85.2091 12.2734 90.0001 7.48248C94.791 2.69153 101.289 1.00962e-07 108.064 0H138.672C145.447 1.00962e-07 151.945 2.69153 156.736 7.48248C161.527 12.2734 164.218 18.7714 164.218 25.5468C164.218 32.3222 161.527 38.8201 156.736 43.6111C151.945 48.4021 145.447 51.0936 138.672 51.0936H121.831C119.878 64.288 132.735 80.5642 132.929 80.7831C132.998 80.8703 133.03 80.9813 133.017 81.0917C133.004 81.2021 132.949 81.3031 132.862 81.3725C132.78 81.4419 132.674 81.478 132.567 81.4736ZM108.064 0.850439C101.512 0.850439 95.2285 3.45326 90.5955 8.0863C85.9624 12.7193 83.3596 19.0031 83.3596 25.5552C83.3596 32.1073 85.9624 38.3911 90.5955 43.0241C95.2285 47.6572 101.512 50.26 108.064 50.26H115.348C115.462 50.2603 115.571 50.3057 115.651 50.3863C115.726 50.4693 115.768 50.5773 115.769 50.6894C115.617 55.3879 119.061 62.4777 126.505 72.5819C126.26 72.1356 126.008 71.6809 125.764 71.2094C122.934 65.7784 119.819 57.8045 121.023 50.6389C121.039 50.5415 121.09 50.4531 121.165 50.3898C121.241 50.3265 121.337 50.2924 121.436 50.2937H138.672C145.224 50.2937 151.508 47.6909 156.141 43.0578C160.774 38.4248 163.376 32.141 163.376 25.5889C163.376 19.0368 160.774 12.753 156.141 8.11998C151.508 3.48693 145.224 0.884117 138.672 0.884117L108.064 0.850439Z" fill="#231F20"/>
<path d="M247.957 97.7834H267.871C270.231 97.7851 272.563 98.304 274.701 99.3035C276.84 100.303 278.733 101.759 280.248 103.569C281.764 105.379 282.864 107.499 283.472 109.78C284.08 112.06 284.181 114.447 283.768 116.771L269.513 195.971H216.769L232.06 111.054C232.734 107.329 234.696 103.961 237.601 101.535C240.507 99.1099 244.172 97.782 247.957 97.7834Z" fill="white"/>
<path d="M269.513 196.417H216.77C216.708 196.417 216.648 196.404 216.592 196.378C216.537 196.351 216.488 196.313 216.45 196.266C216.406 196.22 216.372 196.166 216.35 196.106C216.328 196.047 216.319 195.984 216.323 195.92L231.606 111.003C232.302 107.178 234.321 103.719 237.311 101.233C240.3 98.7463 244.07 97.3912 247.958 97.4045H267.872C270.297 97.4043 272.692 97.9363 274.889 98.9631C277.086 99.9899 279.031 101.486 280.587 103.347C282.142 105.208 283.27 107.387 283.891 109.731C284.512 112.075 284.611 114.527 284.181 116.914L269.926 196.114C269.901 196.204 269.847 196.282 269.772 196.337C269.698 196.392 269.606 196.421 269.513 196.417ZM217.308 195.575H269.193L283.381 116.72C283.791 114.455 283.697 112.127 283.109 109.902C282.52 107.676 281.45 105.607 279.974 103.84C278.498 102.074 276.652 100.653 274.567 99.6773C272.481 98.702 270.207 98.1963 267.905 98.196H247.958C244.267 98.1936 240.693 99.4898 237.862 101.857C235.031 104.225 233.123 107.513 232.473 111.146L217.308 195.575Z" fill="#231F20"/>
<path d="M256.351 184.553C256.351 184.553 255.24 192.662 251.4 195.996H200.711C200.711 195.996 216.086 180.84 221.425 178.693C226.763 176.546 256.351 184.553 256.351 184.553Z" fill="#231F20"/>
<path d="M251.401 196.417H200.712C200.627 196.419 200.544 196.394 200.474 196.348C200.403 196.301 200.348 196.234 200.316 196.156C200.286 196.08 200.279 195.996 200.296 195.915C200.312 195.835 200.351 195.761 200.409 195.702C201.04 195.078 215.919 180.478 221.274 178.306C226.629 176.133 255.249 183.821 256.462 184.149C256.56 184.177 256.644 184.239 256.7 184.324C256.756 184.409 256.779 184.511 256.765 184.612C256.765 184.949 255.586 192.915 251.713 196.316C251.67 196.353 251.621 196.381 251.567 196.398C251.514 196.416 251.457 196.422 251.401 196.417ZM201.722 195.575H251.216C254.348 192.729 255.586 186.448 255.856 184.865C252.445 183.955 226.385 177.135 221.56 179.089C217.047 180.924 204.871 192.552 201.748 195.575H201.722Z" fill="#231F20"/>
<path d="M186.599 171.233C186.532 171.317 181.783 170.98 178.945 172.487C176.107 173.994 171.611 176.571 173.194 177.817C174.777 179.063 188.536 177.994 189.613 177.16C190.691 176.327 186.599 171.233 186.599 171.233Z" fill="white"/>
<path d="M178.095 178.785C175.569 178.785 173.506 178.6 172.934 178.154C172.768 178.036 172.636 177.877 172.55 177.692C172.464 177.508 172.428 177.304 172.446 177.101C172.555 175.897 174.5 174.365 178.752 172.108C181.135 170.845 184.739 170.837 186.095 170.828H186.499C186.535 170.819 186.572 170.819 186.608 170.828C186.67 170.828 186.732 170.842 186.787 170.87C186.843 170.898 186.891 170.938 186.928 170.988C187.509 171.704 190.389 175.367 190.212 176.883C190.201 177.004 190.166 177.122 190.108 177.229C190.05 177.336 189.971 177.43 189.875 177.506C189.016 178.154 182.786 178.785 178.095 178.785ZM186.415 171.67H186.095C184.798 171.67 181.346 171.67 179.14 172.858C174.146 175.502 173.33 176.697 173.245 177.177C173.245 177.261 173.245 177.362 173.414 177.489C173.894 177.876 176.58 178.137 181.497 177.851C185.977 177.598 188.966 177.085 189.32 176.824C189.673 176.563 188.435 174.213 186.415 171.67Z" fill="#231F20"/>
<path d="M224.33 117.663C224.33 117.663 217.771 120.509 207.768 158.863C206.926 161.97 182.625 171.148 182.625 171.148L189.361 176.318C189.361 176.318 219.876 179.99 226.881 171.982C233.887 163.974 224.33 117.663 224.33 117.663Z" fill="#333333"/>
<path d="M224.33 117.663C224.33 117.663 220.777 131.405 223.446 146.081C226.115 160.758 216.769 180.512 216.769 180.512C216.769 180.512 238.56 194.329 258.128 183.661C258.128 183.661 259.24 132.298 252.125 123.179C245.01 114.06 235.007 106.81 224.33 117.663Z" fill="#333333"/>
<path d="M227.369 116.687L229.222 147.412L240.185 114.767L227.369 116.687Z" fill="#231F20"/>
<path d="M229.222 147.833H229.171C229.074 147.821 228.984 147.777 228.916 147.706C228.849 147.635 228.808 147.543 228.801 147.446L226.948 116.72C226.941 116.616 226.973 116.513 227.039 116.432C227.105 116.351 227.199 116.297 227.302 116.283L240.126 114.363C240.197 114.351 240.27 114.359 240.338 114.384C240.406 114.409 240.466 114.451 240.513 114.506C240.558 114.562 240.588 114.628 240.602 114.699C240.615 114.769 240.61 114.842 240.589 114.91L229.643 147.555C229.61 147.639 229.552 147.711 229.476 147.761C229.401 147.81 229.312 147.836 229.222 147.833ZM227.807 117.049L229.491 145.223L239.545 115.289L227.807 117.049Z" fill="#231F20"/>
<path d="M205.545 170.98C205.545 170.98 196.098 168.538 194.094 169.296C192.09 170.054 184.646 173.034 185.311 175.855C185.977 178.676 185.64 178.306 190.759 178.078C195.879 177.851 206.657 177.868 206.657 177.868L205.545 170.98Z" fill="white"/>
<path d="M187.458 178.668C185.689 178.668 185.428 178.247 184.982 176.335L184.898 175.973C184.393 173.826 187.424 171.451 193.941 168.925C196.004 168.083 204.668 170.323 205.645 170.609C205.725 170.628 205.797 170.671 205.852 170.731C205.908 170.791 205.944 170.866 205.957 170.946L207.068 177.859C207.077 177.919 207.073 177.979 207.057 178.037C207.041 178.095 207.013 178.149 206.976 178.196C206.935 178.241 206.886 178.276 206.831 178.301C206.775 178.326 206.716 178.339 206.656 178.339C206.546 178.339 195.819 178.339 190.775 178.55L189.15 178.634C188.468 178.634 187.912 178.668 187.458 178.668ZM195.288 169.582C194.936 169.563 194.582 169.606 194.244 169.709C188.451 171.965 185.336 174.171 185.723 175.779L185.807 176.142C186.22 177.918 186.22 177.918 189.1 177.758L190.784 177.674C195.221 177.48 204.02 177.472 206.201 177.463L205.216 171.325C202.05 170.525 197.503 169.582 195.272 169.582H195.288Z" fill="#231F20"/>
<path d="M241.011 124.736C241.011 124.736 243.899 159.646 241.011 160.312L202.43 169.119L204.653 178.693C204.653 178.693 230.999 182.768 246.568 176.099C262.137 169.431 262.802 131.624 254.795 122.286C246.787 112.948 241.676 119.844 241.011 124.736Z" fill="#333333"/>
<path d="M203.651 178.693H161.592V182.322H203.651V178.693Z" fill="white"/>
<path d="M203.693 182.743H161.592C161.48 182.743 161.373 182.699 161.294 182.62C161.215 182.541 161.171 182.434 161.171 182.322V178.693C161.171 178.581 161.215 178.474 161.294 178.395C161.373 178.316 161.48 178.272 161.592 178.272H203.693C203.804 178.272 203.911 178.316 203.99 178.395C204.069 178.474 204.114 178.581 204.114 178.693V182.322C204.114 182.434 204.069 182.541 203.99 182.62C203.911 182.699 203.804 182.743 203.693 182.743ZM162.055 181.901H203.272V179.08H162.013L162.055 181.901Z" fill="#231F20"/>
<path d="M161.585 178.892L142.845 141.239L139.596 142.856L158.336 180.509L161.585 178.892Z" fill="white"/>
<path d="M158.349 180.933C158.305 180.941 158.259 180.941 158.214 180.933C158.161 180.916 158.112 180.889 158.07 180.853C158.028 180.817 157.994 180.772 157.97 180.722L139.227 143.042C139.185 142.939 139.185 142.824 139.227 142.722C139.243 142.669 139.271 142.62 139.307 142.578C139.343 142.536 139.387 142.502 139.437 142.478L142.688 140.861C142.737 140.837 142.791 140.822 142.847 140.819C142.902 140.815 142.957 140.823 143.01 140.841C143.062 140.859 143.111 140.887 143.152 140.924C143.194 140.96 143.227 141.005 143.252 141.055L161.995 178.71C162.042 178.81 162.048 178.926 162.012 179.031C161.976 179.136 161.9 179.223 161.801 179.274L158.56 180.89C158.493 180.92 158.421 180.934 158.349 180.933ZM140.17 143.042L158.534 179.922L161.06 178.676L142.696 141.779L140.17 143.042Z" fill="#231F20"/>
<path d="M203.693 169.262C203.598 169.262 203.506 169.23 203.432 169.17C203.359 169.11 203.308 169.027 203.288 168.934C203.263 168.826 203.282 168.712 203.34 168.617C203.398 168.522 203.492 168.455 203.6 168.429C216.432 165.549 235.967 160.64 237.18 158.905C238.392 157.171 240.034 138.983 240.826 127.212C240.829 127.157 240.843 127.103 240.867 127.054C240.891 127.004 240.925 126.96 240.967 126.924C241.009 126.888 241.057 126.861 241.109 126.844C241.162 126.826 241.217 126.82 241.272 126.825C241.327 126.828 241.381 126.842 241.431 126.866C241.481 126.89 241.526 126.924 241.562 126.966C241.599 127.007 241.627 127.055 241.645 127.108C241.663 127.16 241.671 127.216 241.668 127.271C241.465 130.294 239.63 156.859 237.87 159.385C236.11 161.911 207.061 168.513 203.743 169.254L203.693 169.262Z" fill="#231F20"/>
<path d="M217.072 179.695C210.774 179.695 206.067 179.316 206 179.308C205.889 179.297 205.788 179.243 205.717 179.158C205.646 179.073 205.611 178.963 205.621 178.853C205.625 178.797 205.64 178.744 205.665 178.694C205.69 178.645 205.725 178.601 205.767 178.565C205.81 178.529 205.859 178.501 205.911 178.484C205.964 178.467 206.02 178.461 206.075 178.465C206.421 178.465 241.061 181.244 248.909 171.384C256.756 161.524 256.655 145.467 256.655 145.282C256.654 145.226 256.664 145.171 256.684 145.12C256.704 145.068 256.734 145.021 256.773 144.981C256.811 144.942 256.857 144.91 256.907 144.887C256.958 144.865 257.013 144.853 257.068 144.852C257.18 144.854 257.286 144.899 257.366 144.977C257.446 145.056 257.493 145.161 257.497 145.273C257.497 145.433 257.649 161.735 249.566 171.889C246.139 176.192 237.777 178.743 224.633 179.467C221.989 179.644 219.421 179.695 217.072 179.695Z" fill="#231F20"/>
<path d="M221.552 163.082C221.442 163.067 221.341 163.011 221.271 162.925C221.201 162.839 221.166 162.73 221.173 162.619C221.608 157.367 221.684 152.093 221.4 146.831C220.946 137.232 221.064 123.633 221.064 123.499C221.066 123.388 221.111 123.282 221.189 123.203C221.268 123.125 221.374 123.08 221.485 123.078C221.597 123.08 221.704 123.126 221.783 123.206C221.862 123.287 221.906 123.395 221.906 123.507C221.906 123.642 221.788 137.215 222.242 146.789C222.526 152.093 222.45 157.409 222.015 162.703C222.01 162.758 221.994 162.812 221.967 162.861C221.941 162.91 221.906 162.954 221.863 162.989C221.819 163.024 221.77 163.051 221.716 163.067C221.663 163.082 221.607 163.088 221.552 163.082Z" fill="#231F20"/>
<path d="M235.436 196.064C236.821 192.718 238.857 189.681 241.426 187.128C243.994 184.576 247.044 182.559 250.398 181.194C259.206 177.59 272.619 178.322 272.619 178.322L269.428 196.064H235.436Z" fill="white"/>
<path d="M269.429 196.485H235.436C235.369 196.484 235.303 196.467 235.243 196.437C235.183 196.406 235.131 196.362 235.091 196.308C235.054 196.253 235.03 196.19 235.021 196.124C235.013 196.059 235.019 195.992 235.041 195.929C237.885 189.068 243.336 183.617 250.197 180.773C258.988 177.177 272.468 177.851 272.603 177.868C272.662 177.868 272.72 177.881 272.772 177.908C272.825 177.934 272.871 177.972 272.906 178.019C272.944 178.066 272.971 178.12 272.985 178.178C273 178.237 273.002 178.297 272.99 178.356L269.799 196.106C269.792 196.202 269.75 196.293 269.683 196.363C269.615 196.432 269.525 196.475 269.429 196.485ZM236.059 195.643H269.075L272.123 178.718C269.664 178.634 258.247 178.44 250.559 181.581C244.11 184.249 238.924 189.279 236.059 195.643Z" fill="#231F20"/>
<path d="M226.006 85.9784C225.719 85.9784 224.81 89.3464 224.692 89.6327C223.901 91.7294 222.638 93.607 221.644 95.6363C219.377 100.263 216.616 104.63 213.409 108.662C214.838 108.633 216.245 108.315 217.548 107.728C218.85 107.14 220.02 106.295 220.987 105.244L218.579 111.879C220.187 112.454 221.9 112.676 223.601 112.531C225.302 112.385 226.952 111.876 228.439 111.037C233.668 108.031 234.62 102.347 235.175 96.8993L236.531 84.7743L226.006 85.9784Z" fill="white"/>
<path d="M222.604 112.99C221.198 112.994 219.802 112.751 218.478 112.275C218.374 112.235 218.29 112.156 218.243 112.056C218.201 111.953 218.201 111.838 218.243 111.736L220.061 106.734C218.165 108.214 215.84 109.039 213.435 109.083C213.356 109.083 213.279 109.06 213.212 109.018C213.145 108.976 213.092 108.916 213.057 108.845C213.023 108.774 213.01 108.695 213.018 108.616C213.027 108.538 213.057 108.463 213.106 108.401C216.293 104.392 219.038 100.05 221.291 95.4511C221.67 94.6848 222.091 93.927 222.495 93.2029C223.191 92.0099 223.802 90.769 224.322 89.4896C224.322 89.4222 224.415 89.2117 224.499 88.9254C225.442 85.7763 225.619 85.5574 225.989 85.5574L236.498 84.3701C236.56 84.362 236.624 84.3684 236.684 84.3888C236.744 84.4093 236.798 84.4432 236.843 84.488C236.886 84.5337 236.919 84.5882 236.939 84.6478C236.96 84.7073 236.967 84.7706 236.961 84.8332L235.689 96.9246C235.091 102.558 234.064 108.309 228.717 111.382C226.857 112.448 224.748 113.002 222.604 112.99ZM219.169 111.618C220.671 112.091 222.254 112.25 223.82 112.085C225.386 111.92 226.901 111.434 228.271 110.658C233.273 107.778 234.249 102.238 234.822 96.832L236.043 85.2627L226.217 86.3741C225.857 87.2864 225.545 88.2167 225.282 89.1612C225.181 89.4812 225.113 89.7169 225.088 89.7843C224.555 91.1034 223.924 92.3812 223.202 93.607C222.806 94.3312 222.36 95.0722 222.023 95.8215C219.881 100.192 217.3 104.334 214.319 108.182C216.773 107.92 219.047 106.774 220.718 104.957C220.786 104.888 220.874 104.843 220.97 104.829C221.066 104.815 221.164 104.834 221.249 104.882C221.332 104.932 221.395 105.01 221.428 105.103C221.46 105.195 221.459 105.295 221.425 105.387L219.169 111.618Z" fill="#231F20"/>
<path d="M229.256 108.477L227.37 116.687C227.37 116.687 226.376 121.831 231.858 121.36C233.477 121.204 235.041 120.69 236.436 119.854C237.832 119.018 239.023 117.881 239.924 116.527L242.13 101.615C242.231 100.983 243.124 94.8111 244.252 89.397C237.945 88.1003 232.397 86.5004 232.397 86.5004C232.893 87.233 230.628 86.9046 230.628 86.9046C229.616 86.7042 228.579 86.6672 227.555 86.7951C226.502 90.3653 224.785 94.1628 224.187 97.7919C223.803 99.96 223.611 102.158 223.614 104.36C223.682 108.536 229.256 108.477 229.256 108.477Z" fill="white"/>
<path d="M231.167 121.772C230.568 121.813 229.967 121.725 229.405 121.514C228.843 121.304 228.333 120.976 227.908 120.552C227.489 119.995 227.191 119.357 227.033 118.678C226.875 118 226.861 117.295 226.99 116.611L228.767 108.856C226.637 108.738 223.286 107.702 223.227 104.351C223.21 102.129 223.401 99.9106 223.799 97.7245C224.29 95.2781 224.988 92.8781 225.887 90.5505C226.342 89.2706 226.814 87.9402 227.184 86.6772C227.205 86.607 227.245 86.5443 227.3 86.4965C227.355 86.4487 227.423 86.4179 227.496 86.4078C228.561 86.2754 229.641 86.3124 230.695 86.5172C231.135 86.5874 231.582 86.6016 232.026 86.5593C232.017 86.5109 232.018 86.4611 232.03 86.4133C232.042 86.3654 232.063 86.3205 232.093 86.2815C232.136 86.2149 232.2 86.1637 232.274 86.135C232.348 86.1063 232.429 86.1016 232.506 86.1215C232.556 86.1215 238.113 87.7382 244.294 89.0096C244.393 89.0343 244.48 89.0941 244.538 89.178C244.566 89.2195 244.586 89.2661 244.596 89.3152C244.606 89.3644 244.607 89.4151 244.597 89.4643C243.612 94.188 242.795 99.5096 242.492 101.581C242.492 101.665 240.277 116.586 240.277 116.586C240.27 116.636 240.252 116.685 240.227 116.729C239.302 118.147 238.069 119.338 236.62 120.212C235.171 121.087 233.543 121.623 231.857 121.781C231.627 121.789 231.397 121.786 231.167 121.772ZM229.247 108.098C229.305 108.098 229.362 108.11 229.415 108.135C229.467 108.16 229.514 108.196 229.55 108.241C229.587 108.286 229.613 108.34 229.627 108.397C229.64 108.454 229.639 108.513 229.626 108.57L227.74 116.771C227.74 116.771 227.369 118.809 228.481 120.038C229.163 120.796 230.291 121.107 231.849 120.973C233.394 120.818 234.888 120.329 236.224 119.537C237.561 118.746 238.708 117.673 239.587 116.392C239.755 115.222 241.768 101.589 241.776 101.547C242.088 99.4506 242.871 94.3312 243.822 89.6832C238.77 88.6307 234.215 87.3929 232.783 86.9972L232.725 87.0646C232.329 87.4856 231.041 87.3677 230.594 87.2666C229.699 87.0927 228.783 87.0474 227.875 87.1319C227.512 88.336 227.033 89.5822 226.645 90.7947C225.76 93.0817 225.07 95.4393 224.582 97.8424C224.195 99.9845 224.007 102.158 224.018 104.334C224.085 108.09 229.07 108.081 229.272 108.09L229.247 108.098Z" fill="#231F20"/>
<path d="M232.32 95.7205C232.32 95.7205 228.792 99.3159 229.314 100.15C229.836 100.983 231.756 100.865 231.756 100.865" fill="white"/>
<path d="M231.479 101.312C230.839 101.312 229.483 101.21 228.953 100.394C228.422 99.577 230.3 97.194 232.018 95.4426C232.055 95.4024 232.101 95.3703 232.152 95.3483C232.203 95.3264 232.257 95.3151 232.312 95.3151C232.368 95.3151 232.422 95.3264 232.473 95.3483C232.524 95.3703 232.569 95.4024 232.607 95.4426C232.646 95.4811 232.677 95.5269 232.699 95.5775C232.72 95.6281 232.731 95.6825 232.731 95.7374C232.731 95.7922 232.72 95.8466 232.699 95.8972C232.677 95.9478 232.646 95.9936 232.607 96.0321C230.965 97.7161 229.593 99.5517 229.668 99.9727C229.946 100.419 231.167 100.495 231.706 100.461C231.761 100.456 231.817 100.463 231.87 100.48C231.923 100.497 231.972 100.524 232.014 100.56C232.056 100.596 232.091 100.64 232.116 100.69C232.141 100.739 232.157 100.793 232.161 100.848C232.165 100.904 232.159 100.96 232.141 101.013C232.123 101.066 232.095 101.114 232.058 101.156C232.021 101.198 231.976 101.232 231.926 101.255C231.875 101.279 231.821 101.293 231.765 101.295L231.479 101.312Z" fill="#231F20"/>
<path d="M229.723 94.3049C229.835 93.82 229.716 93.3787 229.457 93.3194C229.199 93.26 228.899 93.605 228.788 94.09C228.676 94.5749 228.795 95.0162 229.054 95.0756C229.312 95.1349 229.612 94.7899 229.723 94.3049Z" fill="#231F20"/>
<path d="M236.431 96.1944C236.543 95.7095 236.424 95.2682 236.165 95.2088C235.907 95.1495 235.607 95.4945 235.496 95.9795C235.384 96.4644 235.503 96.9057 235.762 96.965C236.02 97.0244 236.32 96.6794 236.431 96.1944Z" fill="#231F20"/>
<path d="M230.796 92.1166L231.681 90.4326L232.312 92.4534L237.6 94.0196L239.065 91.8303L238.913 94.7942L241.701 95.0805C240.968 95.0048 237.684 108.157 237.364 109.243C236.783 111.214 236.084 113.352 234.375 114.497C236.211 115.188 238.248 114.194 239.831 113.032C241.896 111.529 243.699 109.698 245.17 107.61L243.654 115.794C244.382 115.88 245.12 115.806 245.816 115.577C246.513 115.349 247.151 114.972 247.687 114.472C248.753 113.465 249.597 112.246 250.163 110.894C252.596 105.665 252.024 100.789 252.192 95.2826C252.403 88.8328 252.015 83.3681 244.37 80.4042C236.724 77.4403 231.192 78.3749 227.184 81.8693C225.992 82.957 225.034 84.2769 224.369 85.7479C223.704 87.2189 223.347 88.8102 223.319 90.4242C223.319 90.4242 229.197 91.9651 230.796 92.1166Z" fill="white"/>
<path d="M244.277 116.24C244.046 116.241 243.815 116.224 243.587 116.19C243.531 116.182 243.477 116.162 243.429 116.132C243.381 116.101 243.34 116.061 243.309 116.013C243.243 115.92 243.216 115.806 243.233 115.693L244.437 109.243C243.161 110.787 241.699 112.168 240.084 113.352C237.853 114.977 235.874 115.491 234.19 114.86C234.117 114.833 234.053 114.787 234.006 114.726C233.958 114.665 233.928 114.591 233.921 114.514C233.912 114.438 233.925 114.36 233.958 114.291C233.99 114.221 234.042 114.161 234.106 114.119C235.647 113.091 236.32 111.155 236.927 109.066C236.985 108.873 237.137 108.283 237.356 107.458C239.394 99.678 240.354 96.5878 240.918 95.3669L238.838 95.1564C238.731 95.1457 238.632 95.0944 238.561 95.0129C238.491 94.9315 238.454 94.8261 238.459 94.7185L238.535 93.2787L237.92 94.1965C237.869 94.2703 237.796 94.3263 237.711 94.3565C237.627 94.3867 237.535 94.3896 237.449 94.3649L232.161 92.7987C232.094 92.779 232.033 92.7434 231.983 92.695C231.933 92.6466 231.896 92.5869 231.874 92.5208L231.546 91.4767L231.133 92.2767C231.094 92.3506 231.034 92.4116 230.961 92.4519C230.888 92.4923 230.804 92.5104 230.721 92.504C229.104 92.3524 223.412 90.82 223.143 90.7694C223.053 90.7499 222.973 90.6997 222.916 90.6275C222.859 90.5553 222.829 90.4656 222.831 90.3737C222.851 88.698 223.217 87.0445 223.907 85.5172C224.597 83.9899 225.595 82.6218 226.839 81.4988C231.251 77.6508 237.171 77.1288 244.454 79.9495C252.293 82.9892 252.756 88.6728 252.546 95.2321C252.546 96.3268 252.546 97.3877 252.504 98.4402C252.504 102.709 252.504 106.743 250.483 111.012C249.881 112.414 249.002 113.68 247.898 114.733C246.906 115.646 245.624 116.18 244.277 116.24ZM244.151 115.398C245.356 115.388 246.516 114.935 247.41 114.127C248.434 113.162 249.243 111.991 249.784 110.692C251.695 106.583 251.712 102.642 251.729 98.4655C251.729 97.413 251.729 96.3352 251.771 95.2405C251.982 88.7823 251.552 83.6123 244.193 80.7747C237.129 78.0381 231.647 78.4928 227.437 82.164C225.205 84.211 223.868 87.0542 223.715 90.079C224.886 90.3821 228.936 91.4346 230.527 91.662L231.285 90.2137C231.323 90.1404 231.381 90.0798 231.453 90.0394C231.525 89.999 231.607 89.9805 231.689 89.9864C231.773 89.9938 231.853 90.0257 231.919 90.0781C231.985 90.1305 232.034 90.201 232.06 90.2811L232.624 92.0914L237.398 93.506L238.695 91.5694C238.744 91.4917 238.819 91.4329 238.906 91.4024C238.993 91.3719 239.087 91.3714 239.175 91.401C239.262 91.433 239.336 91.4918 239.388 91.569C239.439 91.6462 239.465 91.7377 239.461 91.8304L239.326 94.3564L241.684 94.6006C241.788 94.5988 241.889 94.6349 241.969 94.7022C242.048 94.7694 242.101 94.8633 242.116 94.9663C242.131 95.0693 242.109 95.1744 242.053 95.262C241.996 95.3496 241.91 95.4138 241.81 95.4426C241.12 96.3689 238.88 104.882 238.139 107.711C237.92 108.553 237.769 109.142 237.71 109.336C237.145 111.23 236.531 113.032 235.242 114.262C236.463 114.388 237.903 113.858 239.528 112.67C241.553 111.191 243.323 109.391 244.766 107.34C244.823 107.262 244.904 107.205 244.998 107.179C245.091 107.153 245.19 107.16 245.279 107.197C245.367 107.234 245.44 107.301 245.484 107.385C245.529 107.469 245.543 107.567 245.524 107.66L244.151 115.398Z" fill="#231F20"/>
<path d="M229.256 108.477C229.256 108.477 233.651 108.368 235.52 107.222C235.52 107.222 232.826 112.965 227.808 114.801L229.256 108.477Z" fill="#231F20"/>
<path d="M227.807 115.188C227.705 115.189 227.607 115.153 227.529 115.087C227.471 115.037 227.428 114.972 227.405 114.899C227.381 114.827 227.377 114.749 227.394 114.674L228.843 108.384C228.863 108.295 228.914 108.214 228.985 108.156C229.057 108.098 229.146 108.066 229.239 108.064C229.281 108.064 233.55 107.938 235.301 106.869C235.372 106.813 235.459 106.783 235.549 106.783C235.639 106.783 235.727 106.813 235.798 106.869C235.866 106.928 235.912 107.008 235.93 107.096C235.949 107.184 235.938 107.276 235.899 107.357C235.789 107.601 233.07 113.251 227.95 115.121C227.907 115.152 227.859 115.175 227.807 115.188ZM229.592 108.89L228.396 114.076C231.495 112.653 233.6 109.69 234.552 108.107C232.936 108.565 231.271 108.827 229.592 108.89Z" fill="#231F20"/>
<path d="M228.903 106.204H228.785C228.356 106.145 228.07 105.791 227.943 105.16L227.413 102.819C227.397 102.75 227.399 102.679 227.418 102.611C227.437 102.543 227.473 102.482 227.522 102.431C227.573 102.382 227.634 102.346 227.701 102.325C227.769 102.304 227.84 102.301 227.91 102.314L231.236 102.987C231.301 102.999 231.363 103.027 231.416 103.068C231.469 103.109 231.511 103.162 231.539 103.223C231.568 103.282 231.583 103.347 231.583 103.412C231.583 103.478 231.568 103.543 231.539 103.602C231.05 104.402 229.905 106.204 228.903 106.204ZM228.364 103.299L228.743 104.983C228.827 105.32 228.92 105.387 228.92 105.387C229.156 105.387 229.821 104.688 230.461 103.703L228.364 103.299Z" fill="#231F20"/>
</svg>
