<svg width="296" height="187" viewBox="0 0 296 187" fill="none" xmlns="http://www.w3.org/2000/svg">
<path d="M32.0336 185.484H65.1125L54.9625 79.8221C54.9625 79.8221 78.3074 45.5861 74.5316 42.5208C70.7558 39.4555 54.9625 57.4515 54.9625 57.4515C54.9625 57.4515 55.5106 11.8983 52.2321 10.5382C48.9537 9.17808 42.9652 11.3502 44.0512 41.0897C44.0512 41.0897 41.5949 11.5735 37.7785 10.2337C33.9621 8.89388 30.4502 23.1546 33.4546 39.7905C33.4546 39.7905 27.9939 11.3705 24.1775 13.8369C20.3611 16.3034 26.1365 44.9873 26.1365 44.9873C26.1365 44.9873 18.2296 13.8065 14.9715 23.3576C11.7133 32.9088 20.4829 68.586 24.2993 76.229L32.0336 185.484Z" fill="#333333"/>
<path d="M223.047 69.3269L238.069 185.484H269.473L248.584 62.7802C248.584 62.7802 250.218 60.5269 251.446 50.2957C252.674 40.0645 253.101 8.97504 248.99 7.94989C244.077 6.72174 243.468 28.6559 243.468 28.6559C243.365 22.6234 242.955 16.6 242.24 10.6092C241.225 3.84929 237.744 2.21514 237.744 2.21514C233.745 1.79899 236.475 23.2459 236.871 26.2097C236.445 23.1647 233.085 0.0531923 228.122 1.18999C222.803 2.41814 225.665 26.362 225.665 26.362C223.209 15.5116 219.575 -0.68776 213.597 0.58099C209.821 1.38284 218.509 49.0675 218.509 49.0675C218.509 49.0675 197.844 38.8363 196.179 43.9925C194.515 49.1487 223.047 69.3269 223.047 69.3269Z" fill="white"/>
<path d="M269.483 185.95H238.068C237.946 185.951 237.828 185.907 237.737 185.827C237.645 185.746 237.586 185.635 237.571 185.514L222.539 69.6112C218.855 66.9823 194.058 49.0168 195.723 43.7997C195.83 43.4727 196.008 43.1737 196.245 42.9244C196.482 42.675 196.772 42.4817 197.093 42.3584C201.305 40.572 214.257 46.4793 217.829 48.1744C217.281 45.0786 215.535 35.1215 214.135 25.1948C210.674 0.682513 212.572 0.276511 213.495 0.0836614C218.712 -1.03284 222.062 9.21866 224.549 19.3078C224.122 11.949 224.214 1.57571 228.01 0.702812C228.323 0.6337 228.648 0.633294 228.962 0.701627C229.275 0.769961 229.57 0.905411 229.827 1.09866C232.07 2.64146 233.887 8.39651 235.186 14.0704C234.912 8.79236 235.074 3.67676 236.495 2.20501C236.659 2.02744 236.861 1.89012 237.086 1.80383C237.312 1.71755 237.554 1.68463 237.794 1.70766L237.957 1.75841C238.109 1.82946 241.692 3.58541 242.737 10.528C243.154 13.2279 243.428 16.618 243.62 19.8356C244.209 14.8722 245.295 9.37091 247.295 7.85856C247.543 7.65087 247.838 7.50564 248.154 7.43501C248.47 7.36438 248.798 7.3704 249.112 7.45256C253.953 8.66041 252.969 41.8814 251.954 50.3566C250.939 59.1364 249.528 62.1408 249.112 62.8817L269.98 185.402C269.999 185.55 269.959 185.7 269.868 185.818C269.816 185.865 269.755 185.901 269.689 185.923C269.623 185.946 269.553 185.955 269.483 185.95ZM238.515 184.935H268.874L248.087 62.8614C248.062 62.7272 248.091 62.5885 248.168 62.4757C248.168 62.4757 249.761 60.0905 250.939 50.2348C252.421 37.9635 252.228 9.27956 248.909 8.43711C248.743 8.39614 248.571 8.39501 248.405 8.43384C248.239 8.47266 248.085 8.55031 247.955 8.66041C245.123 10.8021 244.148 23.8854 244.016 28.6762C244.011 28.8073 243.955 28.9312 243.861 29.022C243.766 29.1128 243.64 29.1635 243.509 29.1634C243.443 29.1648 243.377 29.1529 243.315 29.1285C243.254 29.1041 243.198 29.0677 243.151 29.0214C243.103 28.9751 243.066 28.9198 243.04 28.8588C243.015 28.7977 243.001 28.7322 243.001 28.6661C242.898 22.6541 242.492 16.6512 241.783 10.6803C240.9 4.88461 238.14 3.01701 237.642 2.72266C237.57 2.72661 237.499 2.74583 237.434 2.77906C237.369 2.81229 237.312 2.85878 237.267 2.91551C235.46 4.77296 236.049 15.9177 237.419 26.1489C237.436 26.2835 237.4 26.4195 237.317 26.527C237.234 26.6346 237.112 26.7048 236.977 26.7223C236.843 26.7398 236.707 26.7031 236.599 26.6203C236.492 26.5375 236.421 26.4154 236.404 26.2808C235.034 16.3643 232.344 4.04216 229.299 1.92081C229.156 1.81168 228.992 1.73363 228.817 1.69168C228.642 1.64972 228.461 1.6448 228.284 1.67721C224.742 2.49936 225.137 17.2067 226.254 26.291C226.266 26.4191 226.231 26.5473 226.154 26.6505C226.077 26.7537 225.964 26.8246 225.838 26.8492C225.71 26.8732 225.578 26.8463 225.47 26.7743C225.362 26.7022 225.286 26.5906 225.259 26.4635C223.006 16.5267 219.169 -0.0888908 213.78 1.08851C211.831 2.10351 214.947 26.2504 219.088 48.9864C219.105 49.079 219.096 49.1746 219.062 49.2624C219.028 49.3503 218.97 49.4269 218.895 49.4837C218.815 49.5311 218.724 49.556 218.631 49.556C218.538 49.556 218.447 49.5311 218.367 49.4837C213.81 47.2304 201.204 41.719 197.57 43.2516C197.385 43.3202 197.218 43.4284 197.079 43.5687C196.94 43.709 196.834 43.8779 196.768 44.0636C195.662 47.5349 212.511 61.1258 223.381 68.8702C223.44 68.909 223.489 68.96 223.526 69.0195C223.562 69.0791 223.586 69.1459 223.595 69.2153L238.515 184.935Z" fill="#231F20"/>
<path d="M237.743 54.8937C237.668 54.8945 237.593 54.8786 237.524 54.847C237.456 54.8154 237.395 54.7689 237.347 54.711C231.856 47.9105 218.702 49.5548 218.57 49.5751C218.437 49.5897 218.304 49.5524 218.198 49.4711C218.092 49.3898 218.021 49.2706 218.001 49.1386C217.984 49.0054 218.02 48.8708 218.102 48.7642C218.184 48.6577 218.305 48.5879 218.438 48.5702C219.006 48.489 232.292 46.8346 238.129 54.0715C238.172 54.1224 238.204 54.1814 238.224 54.245C238.243 54.3086 238.25 54.3755 238.244 54.4418C238.237 54.5081 238.217 54.5723 238.185 54.6308C238.153 54.6892 238.11 54.7406 238.058 54.782C237.971 54.8576 237.858 54.8975 237.743 54.8937Z" fill="#231F20"/>
<path d="M249.436 32.7971C249.347 32.7977 249.259 32.7731 249.183 32.726C238.018 26.159 226.599 27.2146 222.306 27.651C221.611 27.7759 220.899 27.7759 220.204 27.651C220.078 27.6039 219.975 27.5085 219.919 27.3857C219.863 27.2629 219.858 27.1229 219.905 26.9964C219.952 26.8698 220.048 26.7672 220.17 26.7111C220.293 26.6549 220.433 26.6498 220.56 26.6969C221.113 26.6938 221.665 26.6599 222.214 26.5954C226.599 26.1894 238.251 25.1237 249.7 31.8531C249.816 31.9229 249.9 32.0352 249.934 32.1661C249.969 32.297 249.95 32.436 249.883 32.5535C249.835 32.6284 249.769 32.6901 249.691 32.7327C249.613 32.7752 249.525 32.7974 249.436 32.7971Z" fill="#231F20"/>
<path d="M99.216 119.641L107.854 185.484H138.304L127.392 112.221C127.392 112.221 129.037 109.968 130.265 99.7364C131.493 89.5052 131.919 58.4157 127.809 57.3906C122.896 56.1624 122.287 78.0966 122.287 78.0966C122.287 78.0966 122.074 66.7996 121.059 60.0499C120.044 53.3001 116.552 51.6558 116.552 51.6558C112.553 51.2397 115.294 72.6866 115.689 75.6606C115.263 72.6156 111.904 49.4939 106.94 50.6408C101.622 51.8588 104.484 75.8027 104.484 75.8027C102.028 64.9625 98.3432 48.7529 92.4156 50.0217C88.6398 50.8235 97.318 98.5082 97.318 98.5082C97.318 98.5082 76.6628 88.277 74.988 93.4332C73.3133 98.5894 99.216 119.641 99.216 119.641Z" fill="#231F20"/>
<path d="M116.583 104.334C116.508 104.334 116.433 104.318 116.365 104.287C116.296 104.255 116.236 104.209 116.187 104.152C110.706 97.3612 97.5516 98.9954 97.4197 99.0157C97.2864 99.033 97.1518 98.9967 97.0453 98.9149C96.9387 98.8331 96.869 98.7124 96.8513 98.5792C96.8413 98.5131 96.8448 98.4456 96.8615 98.3808C96.8782 98.316 96.9078 98.2553 96.9486 98.2022C96.9893 98.1491 97.0404 98.1048 97.0986 98.0719C97.1569 98.0391 97.2212 98.0183 97.2877 98.0108C97.846 97.9296 111.142 96.2752 116.979 103.512C117.063 103.616 117.103 103.749 117.089 103.882C117.076 104.015 117.011 104.137 116.908 104.223C116.816 104.296 116.701 104.336 116.583 104.334Z" fill="white"/>
<path d="M128.245 82.2378C128.156 82.2395 128.067 82.2148 127.992 82.1667C116.827 75.6098 105.408 76.6553 101.104 77.0917C100.41 77.2162 99.6981 77.2162 99.0033 77.0917C98.8768 77.0446 98.7741 76.9492 98.718 76.8264C98.6618 76.7036 98.6568 76.5636 98.7039 76.437C98.751 76.3105 98.8464 76.2079 98.9692 76.1517C99.092 76.0956 99.232 76.0905 99.3586 76.1376C99.9117 76.1404 100.464 76.1065 101.013 76.0361C105.408 75.6301 117.06 74.5644 128.499 81.2938C128.615 81.3635 128.699 81.4759 128.733 81.6068C128.767 81.7377 128.749 81.8767 128.682 81.9942C128.637 82.0697 128.573 82.132 128.496 82.1748C128.42 82.2176 128.333 82.2393 128.245 82.2378Z" fill="white"/>
<path d="M166.927 132.419L173.413 185.484H208.42L196.94 125.385C199.671 116.646 202.665 75.4576 199.671 71.5904C196.677 67.7233 192.302 95.0471 192.302 95.0471C192.302 95.0471 190.942 63.9475 186.577 63.4095C182.213 62.8716 181.117 94.2351 181.117 94.2351C181.117 94.2351 178.66 58.2229 173.474 59.2988C168.287 60.3747 171.565 96.1433 171.565 96.1433C171.565 96.1433 165.293 68.586 159.842 69.4082C154.392 70.2303 163.385 115.459 163.385 115.459C151.925 107.765 147.561 106.232 143.47 107.339C139.38 108.445 165.841 131.08 166.927 132.419Z" fill="#D1D3D4"/>
<path d="M208.42 186.011H173.413C173.285 186.008 173.163 185.961 173.067 185.878C172.971 185.795 172.906 185.68 172.885 185.555L166.43 132.643C166.024 132.227 164.603 130.948 162.989 129.486C149.956 117.712 141.988 109.947 142.557 107.633C142.601 107.445 142.698 107.273 142.837 107.139C142.975 107.004 143.149 106.911 143.338 106.872C147.642 105.715 152.24 107.481 162.623 114.373C161.284 107.43 155.173 74.5948 158.614 69.7127C158.74 69.5138 158.907 69.3433 159.102 69.2123C159.298 69.0812 159.519 68.9923 159.751 68.9514C162.329 68.5556 165.11 72.9505 168.236 82.3596C169.13 85.0595 169.921 87.7797 170.551 90.0837C169.799 79.2029 169.079 59.7454 173.362 58.8522C173.616 58.8016 173.878 58.8082 174.129 58.8714C174.38 58.9346 174.614 59.0529 174.814 59.2176C178.062 61.684 180.041 76.9395 180.985 86.6226C181.553 78.1372 182.822 65.6019 185.41 63.3994C185.571 63.2459 185.763 63.1299 185.974 63.0597C186.184 62.9895 186.408 62.9668 186.628 62.9934C187.978 63.1558 189.957 65.0234 191.581 79.477C192.038 83.537 192.353 87.5462 192.596 90.5202C193.936 83.0802 196.403 71.4686 198.828 70.8393C199.072 70.7803 199.327 70.7996 199.558 70.8944C199.79 70.9892 199.986 71.1546 200.117 71.3671C203.264 75.3764 200.209 116.545 197.519 125.456L208.978 185.443C208.993 185.518 208.991 185.595 208.971 185.669C208.952 185.743 208.916 185.811 208.867 185.869C208.808 185.925 208.737 185.967 208.66 185.992C208.582 186.016 208.501 186.023 208.42 186.011ZM173.91 184.996H207.821L196.453 125.507C196.433 125.424 196.433 125.337 196.453 125.253C199.305 116.118 202.016 75.5185 199.265 71.9964C199.204 71.9152 199.113 71.8137 199.062 71.834C197.428 72.2502 194.616 84.014 192.83 95.179C192.808 95.3071 192.74 95.4229 192.639 95.505C192.539 95.5871 192.412 95.6299 192.282 95.6256C192.154 95.6142 192.034 95.5581 191.943 95.4672C191.852 95.3763 191.796 95.2563 191.784 95.1283C191.226 82.39 189.227 64.3129 186.516 63.9779C186.441 63.9715 186.365 63.9828 186.294 64.011C186.224 64.0392 186.161 64.0835 186.11 64.1403C183.228 66.5966 181.908 86.7444 181.655 94.296C181.649 94.4307 181.593 94.5583 181.497 94.6526C181.4 94.747 181.272 94.801 181.137 94.8035C181.07 94.8091 181.002 94.8007 180.938 94.7787C180.874 94.7568 180.816 94.7218 180.766 94.6759C180.716 94.6301 180.677 94.5745 180.65 94.5126C180.623 94.4507 180.609 94.3838 180.609 94.3163C180.02 85.6888 177.716 62.7193 174.194 60.0499C174.118 59.9722 174.023 59.9148 173.918 59.883C173.813 59.8511 173.703 59.8456 173.596 59.8672C170.155 60.5777 170.855 82.5017 172.103 96.1433C172.113 96.2766 172.072 96.4086 171.99 96.5137C171.907 96.6187 171.789 96.6893 171.657 96.7117C171.526 96.7279 171.394 96.6955 171.285 96.6206C171.177 96.5458 171.1 96.4337 171.068 96.3057C168.724 86.0136 163.72 69.9664 160.106 69.9664H159.923C159.873 69.9664 159.7 69.9664 159.487 70.3014C156.574 74.4426 161.69 104.253 163.912 115.398C163.931 115.499 163.919 115.604 163.88 115.7C163.84 115.795 163.774 115.877 163.689 115.936C163.601 115.991 163.499 116.02 163.395 116.02C163.291 116.02 163.189 115.991 163.1 115.936C152.27 108.658 147.723 106.801 143.612 107.877C143.115 109.206 149.885 116.21 163.699 128.704C165.993 130.734 167.1 131.749 167.343 132.074C167.406 132.15 167.448 132.241 167.465 132.338L173.91 184.996Z" fill="#231F20"/>
<path d="M294.563 185.95H0.5075C0.372903 185.95 0.243818 185.897 0.148643 185.802C0.0534682 185.707 0 185.578 0 185.443C0 185.308 0.0534682 185.179 0.148643 185.084C0.243818 184.989 0.372903 184.935 0.5075 184.935H294.563C294.698 184.935 294.827 184.989 294.922 185.084C295.017 185.179 295.071 185.308 295.071 185.443C295.071 185.578 295.017 185.707 294.922 185.802C294.827 185.897 294.698 185.95 294.563 185.95Z" fill="#231F20"/>
<path d="M201.995 132.961L164.503 137.684L165.491 145.528L202.983 140.805L201.995 132.961Z" fill="#231F20"/>
<path d="M185.856 146.964C190.268 146.964 193.844 143.388 193.844 138.976C193.844 134.565 190.268 130.988 185.856 130.988C181.445 130.988 177.868 134.565 177.868 138.976C177.868 143.388 181.445 146.964 185.856 146.964Z" fill="#333333"/>
<path d="M185.857 141.016C185.79 141.031 185.721 141.031 185.654 141.016C185.578 140.98 185.511 140.927 185.46 140.859C185.409 140.792 185.374 140.714 185.36 140.631L184.477 134.896C184.466 134.83 184.469 134.763 184.485 134.698C184.501 134.633 184.53 134.572 184.57 134.518C184.609 134.464 184.659 134.419 184.716 134.385C184.773 134.35 184.837 134.327 184.903 134.317C185.035 134.297 185.169 134.329 185.277 134.407C185.386 134.485 185.459 134.602 185.481 134.734L186.283 139.656L189.978 137.241C190.033 137.193 190.097 137.157 190.167 137.137C190.236 137.116 190.309 137.111 190.381 137.121C190.453 137.131 190.522 137.156 190.584 137.195C190.645 137.234 190.697 137.286 190.737 137.346C190.776 137.407 190.802 137.476 190.813 137.548C190.824 137.62 190.819 137.693 190.799 137.763C190.779 137.833 190.744 137.897 190.697 137.953C190.65 138.008 190.592 138.052 190.526 138.083L186.192 140.935C186.091 140.996 185.974 141.024 185.857 141.016Z" fill="white"/>
<path d="M147.835 185.484L138.334 143.666H97.3486L99.1959 185.484H147.835Z" fill="#333333"/>
<path d="M24.7251 185.484L21.7715 111.206L66.0458 113.733L77.8502 185.484H24.7251Z" fill="white"/>
<path d="M77.9008 185.95H24.725C24.5938 185.951 24.4677 185.9 24.3731 185.809C24.2785 185.718 24.2227 185.594 24.2175 185.463L21.2638 111.226C21.2621 111.156 21.2747 111.087 21.3009 111.023C21.327 110.958 21.3663 110.899 21.4161 110.851C21.5203 110.752 21.6584 110.698 21.8018 110.698L66.0659 113.236C66.1814 113.239 66.2922 113.282 66.3792 113.358C66.4663 113.434 66.5242 113.538 66.543 113.652L78.3474 185.402C78.3579 185.476 78.3534 185.55 78.3342 185.622C78.315 185.693 78.2816 185.76 78.2358 185.819C78.1431 185.9 78.0245 185.947 77.9008 185.95ZM25.2629 184.935H77.302L65.6599 114.18L22.36 111.703L25.2629 184.935Z" fill="#231F20"/>
<path d="M35.6878 181.281C35.5606 181.28 35.4386 181.231 35.345 181.145C35.2514 181.059 35.1928 180.941 35.1803 180.815L29.6993 117.763C29.6872 117.628 29.7291 117.494 29.8157 117.391C29.9023 117.287 30.0265 117.222 30.1611 117.21C30.2957 117.197 30.4296 117.239 30.5334 117.326C30.6371 117.413 30.7022 117.537 30.7143 117.671L36.1953 180.723C36.2009 180.79 36.1932 180.857 36.1727 180.921C36.1522 180.984 36.1193 181.043 36.0759 181.094C36.0325 181.145 35.9795 181.187 35.9198 181.218C35.8602 181.248 35.7951 181.266 35.7284 181.271L35.6878 181.281Z" fill="#D1D3D4"/>
<path d="M228.121 133.759L224.771 119.011C224.771 119.011 262.925 118.169 263.341 119.011C263.758 119.854 265.453 130.998 265.453 130.998L228.121 133.759Z" fill="#333333"/>
<path d="M229.512 185.484L224.771 130.389L267.138 128.806L280.992 185.484H229.512Z" fill="#231F20"/>
<path d="M47.7048 181.281C47.5792 181.28 47.4585 181.233 47.3651 181.149C47.2717 181.065 47.2121 180.949 47.1973 180.825C44.7512 159.51 40.0923 118.91 39.8284 117.895C39.8097 117.832 39.8035 117.766 39.8102 117.701C39.8169 117.636 39.8364 117.573 39.8675 117.516C39.8986 117.458 39.9408 117.407 39.9915 117.366C40.0423 117.325 40.1007 117.294 40.1634 117.276C40.294 117.237 40.4345 117.25 40.5555 117.312C40.6766 117.375 40.7689 117.482 40.813 117.611C41.0261 118.28 47.0045 170.34 48.2123 180.764C48.2266 180.897 48.1877 181.03 48.104 181.135C48.0204 181.24 47.8988 181.307 47.7657 181.322L47.7048 181.281Z" fill="#D1D3D4"/>
<path d="M59.296 181.281C59.1746 181.28 59.0577 181.235 58.9664 181.155C58.8752 181.075 58.8157 180.965 58.7987 180.845L49.3084 118.666C49.2882 118.532 49.3223 118.394 49.4032 118.285C49.4841 118.175 49.6052 118.103 49.7398 118.082C49.8744 118.062 50.0115 118.096 50.1209 118.177C50.2304 118.258 50.3032 118.379 50.3234 118.514L59.8035 180.693C59.8151 180.758 59.8134 180.825 59.7987 180.89C59.7839 180.955 59.7563 181.016 59.7175 181.07C59.6787 181.124 59.6295 181.169 59.5728 181.204C59.5161 181.239 59.4531 181.261 59.3874 181.271L59.296 181.281Z" fill="#D1D3D4"/>
<path d="M69.4155 181.281C69.2941 181.28 69.1772 181.236 69.0859 181.155C68.9947 181.075 68.9352 180.965 68.9182 180.845C66.3198 164.118 59.4482 120.371 58.8392 118.808C58.8065 118.752 58.7852 118.689 58.7767 118.624C58.7682 118.559 58.7725 118.493 58.7895 118.43C58.8065 118.367 58.8357 118.308 58.8756 118.256C58.9155 118.204 58.9652 118.161 59.0219 118.128C59.1427 118.064 59.2833 118.048 59.4153 118.084C59.5473 118.12 59.6607 118.205 59.7324 118.321C60.3617 119.336 67.69 166.331 69.8824 180.693C69.894 180.758 69.8923 180.825 69.8776 180.89C69.8628 180.955 69.8352 181.016 69.7964 181.07C69.7576 181.124 69.7084 181.169 69.6517 181.204C69.595 181.239 69.532 181.262 69.4663 181.271L69.4155 181.281Z" fill="#D1D3D4"/>
<path d="M64.351 128.156L26.6235 127.314C26.5568 127.313 26.4911 127.298 26.43 127.271C26.3689 127.245 26.3137 127.206 26.2675 127.158C26.2214 127.11 26.1851 127.053 26.1608 126.991C26.1366 126.929 26.1248 126.863 26.1261 126.796C26.1246 126.729 26.1371 126.662 26.1628 126.599C26.1885 126.537 26.227 126.481 26.2756 126.434C26.3243 126.387 26.3822 126.351 26.4455 126.328C26.5089 126.304 26.5764 126.295 26.6438 126.299L64.3815 127.141C64.5143 127.147 64.6397 127.204 64.7308 127.301C64.8219 127.397 64.8714 127.526 64.8687 127.659C64.8687 127.726 64.8552 127.792 64.8289 127.854C64.8027 127.916 64.7642 127.972 64.7159 128.018C64.6675 128.065 64.6103 128.101 64.5476 128.124C64.4849 128.148 64.418 128.159 64.351 128.156Z" fill="#D1D3D4"/>
<path d="M65.8328 138.905H25.7809C25.6463 138.905 25.5173 138.852 25.4221 138.757C25.3269 138.661 25.2734 138.532 25.2734 138.398C25.2734 138.263 25.3269 138.134 25.4221 138.039C25.5173 137.944 25.6463 137.89 25.7809 137.89H65.8328C65.9674 137.89 66.0965 137.944 66.1917 138.039C66.2869 138.134 66.3403 138.263 66.3403 138.398C66.3403 138.464 66.3272 138.53 66.3017 138.592C66.2762 138.653 66.2388 138.709 66.1917 138.757C66.1446 138.804 66.0886 138.841 66.027 138.867C65.9655 138.892 65.8995 138.905 65.8328 138.905Z" fill="#D1D3D4"/>
<path d="M69.4161 151.136L26.6237 150.182C26.5567 150.182 26.4903 150.168 26.4286 150.142C26.3669 150.116 26.3111 150.077 26.2647 150.029C26.2182 149.981 26.182 149.923 26.1583 149.861C26.1345 149.798 26.1237 149.731 26.1264 149.664C26.1277 149.598 26.1422 149.532 26.1689 149.471C26.1956 149.41 26.2341 149.354 26.2822 149.308C26.3303 149.262 26.387 149.226 26.449 149.202C26.5111 149.177 26.5774 149.166 26.644 149.167L69.4364 150.121C69.5035 150.121 69.5699 150.134 69.6316 150.161C69.6933 150.187 69.749 150.225 69.7955 150.274C69.842 150.322 69.8782 150.379 69.9019 150.442C69.9257 150.505 69.9365 150.572 69.9338 150.639C69.9285 150.772 69.8717 150.899 69.7752 150.992C69.6787 151.084 69.55 151.136 69.4161 151.136Z" fill="#D1D3D4"/>
<path d="M71.314 163.996H26.654C26.5194 163.996 26.3903 163.943 26.2951 163.847C26.2 163.752 26.1465 163.623 26.1465 163.489C26.1465 163.354 26.2 163.225 26.2951 163.13C26.3903 163.034 26.5194 162.981 26.654 162.981H71.314C71.4486 162.981 71.5777 163.034 71.6728 163.13C71.768 163.225 71.8215 163.354 71.8215 163.489C71.8189 163.622 71.7646 163.75 71.67 163.845C71.5753 163.939 71.4478 163.993 71.314 163.996Z" fill="#D1D3D4"/>
<path d="M72.3698 176.643H26.6237C26.4891 176.643 26.36 176.589 26.2649 176.494C26.1697 176.399 26.1162 176.27 26.1162 176.135C26.1162 176.001 26.1697 175.872 26.2649 175.777C26.36 175.681 26.4891 175.628 26.6237 175.628H72.3698C72.5044 175.628 72.6334 175.681 72.7286 175.777C72.8238 175.872 72.8773 176.001 72.8773 176.135C72.8747 176.269 72.8204 176.397 72.7257 176.491C72.6311 176.586 72.5035 176.64 72.3698 176.643Z" fill="#D1D3D4"/>
</svg>
