<svg width="40" height="40" viewBox="0 0 40 40" fill="none" xmlns="http://www.w3.org/2000/svg">
<path d="M8.88835 21.1111V12.2222H5.55501C4.67096 12.2222 3.82311 12.5734 3.19799 13.1985C2.57287 13.8237 2.22168 14.6715 2.22168 15.5556V35.5556C2.22333 35.7619 2.28242 35.9637 2.39232 36.1384C2.50222 36.313 2.65859 36.4537 2.8439 36.5444C3.02243 36.6256 3.21928 36.6581 3.41443 36.6386C3.60958 36.6191 3.79609 36.5483 3.95501 36.4333L9.67724 32.2222H24.6106C25.0317 32.2347 25.4509 32.1605 25.8422 32.0044C26.2335 31.8482 26.5886 31.6134 26.8854 31.3145C27.1823 31.0155 27.4146 30.6588 27.568 30.2664C27.7214 29.8741 27.7926 29.4544 27.7772 29.0333V27.7778H15.555C13.7869 27.7778 12.0912 27.0754 10.841 25.8252C9.59073 24.5749 8.88835 22.8792 8.88835 21.1111Z" fill="#333333"/>
<path d="M34.4449 4.44446H15.556C14.6719 4.44446 13.8241 4.79565 13.199 5.42077C12.5738 6.04589 12.2227 6.89374 12.2227 7.77779V21.1111C12.2227 21.9952 12.5738 22.843 13.199 23.4681C13.8241 24.0933 14.6719 24.4445 15.556 24.4445H30.6115L35.9227 28.5667C36.0805 28.6834 36.2665 28.7562 36.4617 28.7777C36.6569 28.7992 36.8543 28.7685 37.0338 28.6889C37.2229 28.5988 37.3826 28.4572 37.4947 28.2803C37.6067 28.1033 37.6665 27.8983 37.6671 27.6889V7.77779C37.6676 6.91265 37.3317 6.08122 36.7304 5.4592C36.1291 4.83718 35.3095 4.4733 34.4449 4.44446Z" fill="#333333"/>
</svg>
