<svg width="260" height="199" viewBox="0 0 260 199" fill="none" xmlns="http://www.w3.org/2000/svg">
<path d="M42.4934 58.2273C51.6165 58.2273 59.0122 50.8316 59.0122 41.7085C59.0122 32.5854 51.6165 25.1897 42.4934 25.1897C33.3703 25.1897 25.9746 32.5854 25.9746 41.7085C25.9746 50.8316 33.3703 58.2273 42.4934 58.2273Z" fill="white"/>
<path d="M42.4944 58.6457C39.1442 58.6474 35.8687 57.6554 33.0823 55.7954C30.2959 53.9353 28.1237 51.2906 26.8405 48.1959C25.5573 45.1012 25.2207 41.6954 25.8733 38.4094C26.5258 35.1233 28.1383 32.1046 30.5067 29.7351C32.875 27.3655 35.893 25.7516 39.1787 25.0974C42.4644 24.4432 45.8703 24.7781 48.9657 26.0598C52.0611 27.3415 54.7068 29.5123 56.5682 32.2978C58.4297 35.0833 59.4233 38.3583 59.4233 41.7085C59.4188 46.1977 57.6341 50.5019 54.4605 53.6771C51.287 56.8522 46.9836 58.6391 42.4944 58.6457V58.6457ZM42.4944 25.6165C39.3093 25.6148 36.1953 26.5579 33.5464 28.3264C30.8974 30.0949 28.8325 32.6094 27.6128 35.5517C26.3932 38.494 26.0736 41.7319 26.6946 44.8559C27.3156 47.9798 28.8492 50.8494 31.1014 53.1016C33.3535 55.3538 36.2231 56.8873 39.3471 57.5083C42.471 58.1293 45.709 57.8097 48.6513 56.5901C51.5936 55.3705 54.108 53.3055 55.8765 50.6566C57.645 48.0076 58.5881 44.8936 58.5864 41.7085C58.5798 37.4427 56.8823 33.3535 53.8659 30.3371C50.8495 27.3207 46.7602 25.6231 42.4944 25.6165V25.6165Z" fill="#D1D3D4"/>
<path d="M158.176 75.9009L212.912 95.0724L184.168 102.445L150.494 85.8004L158.176 75.9009Z" fill="#231F20"/>
<path d="M184.193 102.813C184.141 102.825 184.086 102.825 184.034 102.813L150.36 86.1687C150.31 86.1443 150.267 86.1091 150.232 86.0657C150.197 86.0223 150.172 85.9717 150.16 85.9176C150.148 85.8643 150.147 85.8089 150.159 85.7554C150.17 85.702 150.194 85.6517 150.227 85.608L157.883 75.6666C157.932 75.6058 157.998 75.5612 158.073 75.5388C158.148 75.5163 158.228 75.5172 158.302 75.5411L213.038 94.7126C213.113 94.7396 213.177 94.79 213.221 94.8564C213.264 94.9227 213.286 95.0015 213.281 95.0808C213.277 95.159 213.249 95.2341 213.199 95.2945C213.149 95.3549 213.081 95.3974 213.005 95.4155L184.26 102.796L184.193 102.813ZM151.063 85.7084L184.193 102.052L211.624 95.0139L158.31 76.3361L151.063 85.7084Z" fill="#231F20"/>
<path d="M94.0499 139.683C94.0499 139.683 65.029 148.478 50.5771 139.683C50.5771 139.683 61.6232 153.474 76.6524 151.934C91.6817 150.394 94.0499 139.683 94.0499 139.683Z" fill="#D1D3D4"/>
<path d="M104.168 132.06C104.168 132.06 82.0505 153.491 56.9376 147.851C22.0674 140.068 -4.79452 98.6038 18.5527 46.5955C18.5527 46.5955 -5.71502 81.8423 6.83726 121.156C24.0423 174.972 65.5987 172.746 107.908 161.758" fill="#D1D3D4"/>
<path d="M164.301 35.2399C164.301 35.2399 157.983 64.0014 158.175 75.9009C158.175 76.4867 160.058 77.9511 160.1 78.4114C161.012 89.0306 126.761 80.085 126.761 80.085C126.761 80.085 125.489 57.5662 128.042 49.5077C130.594 41.4491 133.33 39.6834 133.33 39.6834C133.33 39.6834 156.242 30.6793 160.268 31.9428C164.293 33.2064 164.301 35.2399 164.301 35.2399Z" fill="#333333"/>
<path d="M152.008 47.516L195.581 24.6625L192.109 13.4659L145.515 37.0809L152.008 47.516Z" fill="#333333"/>
<path d="M89.9077 140.01C89.9077 140.01 89.2633 144.671 92.9955 154.035C96.7278 163.399 100.401 166.328 100.401 166.328L113.673 164.654L100.661 132.018L89.9077 140.01Z" fill="#231F20"/>
<path d="M100.403 166.696C100.321 166.696 100.242 166.67 100.177 166.62C100.026 166.495 96.3776 163.516 92.6454 154.169C88.9132 144.821 89.5073 140.152 89.5324 139.943C89.5397 139.894 89.5567 139.847 89.5826 139.806C89.6085 139.764 89.6427 139.728 89.6831 139.7L100.436 131.75C100.481 131.716 100.533 131.693 100.588 131.683C100.643 131.673 100.7 131.676 100.754 131.692C100.809 131.706 100.86 131.733 100.902 131.771C100.945 131.808 100.977 131.856 100.997 131.909L114.009 164.545C114.034 164.596 114.047 164.652 114.047 164.708C114.047 164.765 114.034 164.821 114.009 164.871C113.981 164.919 113.942 164.96 113.896 164.99C113.849 165.02 113.797 165.04 113.742 165.047L100.47 166.679L100.403 166.696ZM90.2605 140.21C90.1935 141.047 90.0513 145.666 93.34 153.892C96.6287 162.118 99.8839 165.365 100.52 165.943L113.156 164.394L100.512 132.637L90.2605 140.21Z" fill="#231F20"/>
<path d="M155.958 161.759C155.958 161.759 152.259 172.411 140.427 182.403C128.594 192.394 98.7949 198.302 98.7949 198.302L115.13 164.152L155.958 161.759Z" fill="white"/>
<path d="M98.8377 198.679C98.7747 198.679 98.7125 198.665 98.6559 198.637C98.5993 198.61 98.5499 198.57 98.5113 198.52C98.4628 198.458 98.4325 198.384 98.4236 198.305C98.4147 198.227 98.4277 198.148 98.4611 198.076L114.737 163.934C114.77 163.867 114.819 163.811 114.881 163.769C114.943 163.728 115.015 163.704 115.089 163.7L155.917 161.34C155.986 161.334 156.056 161.347 156.119 161.376C156.182 161.406 156.237 161.451 156.277 161.507C156.318 161.562 156.345 161.625 156.357 161.692C156.369 161.759 156.364 161.828 156.344 161.892C156.302 162.001 152.469 172.771 140.679 182.721C128.888 192.671 99.164 198.62 98.8377 198.679ZM115.449 164.512L99.549 197.683C104.428 196.645 129.674 190.989 140.168 182.076C150.21 173.608 154.394 164.57 155.34 162.202L115.449 164.512Z" fill="#231F20"/>
<path d="M133.365 105.098C133.365 105.098 123.373 101.549 107.909 102.445C92.4447 103.34 66.7627 117.943 66.7627 117.943L102.118 131.482L133.365 105.098Z" fill="white"/>
<path d="M102.117 131.901C102.067 131.909 102.016 131.909 101.966 131.901L66.6107 118.344C66.5376 118.314 66.474 118.265 66.4269 118.202C66.3797 118.138 66.3507 118.063 66.3429 117.984C66.3372 117.906 66.3538 117.827 66.3908 117.758C66.4278 117.688 66.4837 117.63 66.5521 117.591C66.8115 117.441 92.4935 102.922 107.883 102.035C123.272 101.148 133.406 104.671 133.498 104.704C133.568 104.728 133.632 104.77 133.681 104.826C133.73 104.883 133.763 104.951 133.777 105.025C133.79 105.098 133.784 105.174 133.758 105.244C133.733 105.314 133.689 105.376 133.631 105.424L102.385 131.809C102.307 131.867 102.214 131.899 102.117 131.901V131.901ZM67.7488 117.876L102.058 130.997L132.535 105.265C130.025 104.503 120.82 102.11 107.958 102.863C94.2341 103.658 72.1588 115.449 67.7488 117.876Z" fill="#231F20"/>
<path d="M94.0763 128.779C107.072 116.043 128.034 102.93 153.181 92.8967C191.29 77.7 219.515 90.813 228.863 96.336C229.879 96.9365 230.667 97.8568 231.105 98.953C231.542 100.049 231.604 101.259 231.281 102.395C228.302 112.838 216.838 141.767 178.729 156.963C153.583 167.005 129.357 171.909 111.164 171.608C111.164 171.608 105.306 166.428 99.3399 151.524C93.3734 136.62 94.0763 128.779 94.0763 128.779Z" fill="white"/>
<path d="M112.728 172.043H111.154C111.053 172.044 110.955 172.008 110.878 171.943C110.636 171.725 104.87 166.52 98.9535 151.675C93.0372 136.83 93.6314 129.081 93.6565 128.754C93.667 128.656 93.7114 128.564 93.782 128.495C107.272 115.273 128.861 102.16 153.029 92.5118C190.861 77.449 218.811 89.9093 229.079 95.9762C230.172 96.6243 231.021 97.616 231.491 98.7967C231.962 99.9774 232.029 101.281 231.681 102.503C228.409 113.976 216.719 142.269 178.886 157.357C155.389 166.729 131.397 172.043 112.728 172.043ZM111.33 171.206C130.058 171.457 154.585 166.185 178.577 156.587C216.066 141.633 227.64 113.633 230.878 102.286C231.174 101.24 231.117 100.126 230.714 99.1166C230.311 98.1071 229.587 97.259 228.652 96.7042C218.493 90.7042 190.819 78.3444 153.338 93.2984C129.347 102.863 107.908 115.892 94.4849 128.972C94.4347 130.118 94.3343 137.825 99.7318 151.357C105.129 164.888 110.502 170.394 111.33 171.198V171.206Z" fill="#231F20"/>
<path d="M231.28 102.395C227.375 115.306 220.271 127.021 210.628 136.453C210.628 136.453 202.502 130.897 195.44 113.173C188.377 95.4489 190.419 85.8339 190.419 85.8339C203.906 86.0362 217.122 89.6491 228.837 96.3359C229.858 96.9327 230.651 97.8514 231.093 98.9479C231.536 100.044 231.601 101.257 231.28 102.395V102.395Z" fill="white"/>
<path d="M210.627 136.871C210.543 136.87 210.462 136.844 210.393 136.796C210.058 136.562 202.083 130.938 195.045 113.365C188.008 95.792 189.949 86.177 190.025 85.7502C190.045 85.6564 190.097 85.5723 190.171 85.5116C190.246 85.4508 190.339 85.417 190.435 85.4155C203.997 85.6055 217.289 89.2395 229.062 95.9761C230.156 96.6242 231.004 97.6159 231.475 98.7966C231.945 99.9773 232.012 101.281 231.665 102.503V102.503C227.777 115.488 220.656 127.273 210.97 136.754C210.925 136.798 210.871 136.831 210.812 136.851C210.752 136.871 210.689 136.878 210.627 136.871ZM190.794 86.2607C190.527 88.11 189.623 97.4657 195.815 113.039C202.008 128.612 209.112 134.796 210.585 135.917C220.06 126.589 227.036 115.026 230.87 102.294V102.294C231.166 101.248 231.108 100.134 230.706 99.1249C230.303 98.1154 229.578 97.2673 228.644 96.7125C217.106 90.1029 204.089 86.5082 190.794 86.2607V86.2607Z" fill="#231F20"/>
<path d="M99.8917 126.989C99.8318 126.988 99.7726 126.975 99.7179 126.951C99.6632 126.926 99.6141 126.891 99.5737 126.846C99.5379 126.805 99.5106 126.757 99.4937 126.705C99.4768 126.652 99.4705 126.598 99.4751 126.543C99.4798 126.488 99.4954 126.435 99.5209 126.387C99.5465 126.338 99.5815 126.295 99.624 126.261C109.029 118.566 118.894 111.451 129.164 104.955C129.258 104.898 129.372 104.881 129.479 104.906C129.587 104.931 129.681 104.996 129.741 105.089C129.77 105.135 129.79 105.186 129.799 105.24C129.808 105.294 129.806 105.349 129.793 105.402C129.781 105.455 129.758 105.505 129.726 105.549C129.694 105.593 129.654 105.63 129.607 105.658C119.375 112.135 109.541 119.222 100.16 126.88C100.086 126.947 99.9912 126.986 99.8917 126.989V126.989Z" fill="white"/>
<path d="M131.992 170.47C131.887 170.471 131.785 170.432 131.707 170.361C131.59 170.252 120.285 159.482 114.67 145.39C109.055 131.298 109.841 115.7 109.85 115.549C109.851 115.493 109.863 115.438 109.886 115.387C109.909 115.336 109.943 115.29 109.984 115.252C110.026 115.215 110.075 115.186 110.128 115.168C110.181 115.15 110.237 115.143 110.293 115.148C110.403 115.156 110.506 115.207 110.579 115.29C110.653 115.373 110.691 115.481 110.687 115.591C110.687 115.742 109.908 131.181 115.448 145.081C120.988 158.98 132.184 169.641 132.285 169.75C132.324 169.789 132.355 169.835 132.376 169.886C132.398 169.937 132.409 169.992 132.409 170.047C132.409 170.102 132.398 170.157 132.376 170.208C132.355 170.259 132.324 170.305 132.285 170.344C132.207 170.422 132.102 170.467 131.992 170.47Z" fill="#231F20"/>
<path d="M227.707 95.2983C227.707 95.2983 243.791 91.1142 244.745 93.5075C245.699 95.9008 231.155 103.934 231.155 103.934" fill="#231F20"/>
<path d="M231.155 104.303C231.075 104.3 230.998 104.272 230.935 104.222C230.873 104.172 230.828 104.103 230.808 104.026C230.788 103.948 230.794 103.866 230.825 103.792C230.856 103.718 230.91 103.657 230.98 103.616C237.842 99.8172 244.929 94.9302 244.369 93.6415C243.808 92.3528 235.348 93.6833 227.766 95.6582C227.719 95.6703 227.67 95.6729 227.621 95.666C227.573 95.6591 227.527 95.6428 227.485 95.6179C227.443 95.593 227.406 95.5601 227.377 95.5211C227.348 95.4821 227.326 95.4377 227.314 95.3904C227.302 95.3432 227.3 95.294 227.306 95.2457C227.313 95.1974 227.33 95.151 227.355 95.109C227.379 95.067 227.412 95.0304 227.451 95.0011C227.49 94.9719 227.535 94.9506 227.582 94.9385C231.431 93.9427 244.059 90.88 245.055 93.3737C246.051 95.8674 234.779 102.336 231.298 104.252C231.253 104.277 231.205 104.294 231.155 104.303V104.303Z" fill="#231F20"/>
<path d="M229.139 105.449C226.936 102.593 225.574 99.179 225.206 95.5912C225.183 95.0263 225.373 94.4733 225.739 94.0423C226.105 93.6113 226.62 93.3337 227.181 93.2648C227.42 93.21 227.668 93.2043 227.91 93.2481C228.152 93.2919 228.382 93.3842 228.587 93.5195C228.792 93.6549 228.967 93.8304 229.102 94.0354C229.238 94.2405 229.33 94.4708 229.373 94.7125C229.685 97.8022 230.846 100.745 232.729 103.215C232.865 103.419 232.959 103.649 233.003 103.891C233.048 104.133 233.042 104.381 232.988 104.621C232.933 104.861 232.83 105.087 232.684 105.285C232.539 105.484 232.355 105.65 232.143 105.775C231.692 106.105 231.134 106.254 230.578 106.194C230.022 106.134 229.509 105.868 229.139 105.449Z" fill="white"/>
<path d="M230.803 106.629C230.421 106.636 230.041 106.554 229.695 106.392C229.348 106.23 229.043 105.99 228.803 105.692C226.565 102.778 225.175 99.3032 224.787 95.6498C224.748 94.9741 224.969 94.3092 225.405 93.7911C225.84 93.2731 226.457 92.9411 227.13 92.8632C227.462 92.8114 227.802 92.8269 228.128 92.9088C228.454 92.9908 228.761 93.1375 229.029 93.3402C229.241 93.5009 229.418 93.7034 229.549 93.9351C229.68 94.1668 229.762 94.4228 229.791 94.6875C230.107 97.7036 231.251 100.574 233.096 102.98C233.258 103.191 233.375 103.433 233.44 103.69C233.505 103.948 233.516 104.216 233.473 104.478C233.419 104.814 233.299 105.136 233.117 105.423C232.936 105.711 232.698 105.959 232.418 106.152C231.944 106.477 231.378 106.644 230.803 106.629V106.629ZM227.515 93.6498H227.238C226.784 93.704 226.366 93.9264 226.067 94.2734C225.768 94.6203 225.61 95.0666 225.623 95.5243C225.993 99.0323 227.322 102.371 229.464 105.173V105.173C229.77 105.513 230.192 105.727 230.647 105.771C231.103 105.816 231.558 105.689 231.925 105.416C232.112 105.291 232.273 105.129 232.396 104.941C232.52 104.752 232.604 104.541 232.644 104.319C232.666 104.173 232.659 104.024 232.623 103.88C232.587 103.736 232.523 103.601 232.435 103.482C230.494 100.952 229.29 97.9343 228.954 94.7628C228.937 94.6107 228.889 94.4636 228.814 94.33C228.74 94.1964 228.639 94.079 228.519 93.9846C228.23 93.7663 227.876 93.6514 227.515 93.6582V93.6498Z" fill="#231F20"/>
<path d="M135.313 163.374C135.202 163.38 135.093 163.342 135.01 163.269C134.927 163.195 134.877 163.091 134.87 162.98C134.863 162.869 134.901 162.76 134.975 162.677C135.048 162.594 135.152 162.543 135.263 162.537C135.64 162.495 172.962 158.018 202.677 133.943C202.763 133.873 202.873 133.84 202.982 133.851C203.092 133.862 203.193 133.916 203.263 134.001C203.331 134.089 203.363 134.199 203.352 134.31C203.341 134.42 203.288 134.522 203.205 134.595C173.297 158.863 135.74 163.323 135.364 163.365L135.313 163.374Z" fill="#D1D3D4"/>
<path d="M152.661 30.0431C153.404 29.7286 154.001 29.1461 154.335 28.4114C155.716 26.2845 156.464 23.8091 156.494 21.2733C156.42 17.5588 154.902 14.0193 152.261 11.4055C149.621 8.79181 146.066 7.30958 142.351 7.27332L145.314 9.68335C142.775 9.58349 140.251 10.109 137.963 11.2136C135.675 12.3182 133.693 13.968 132.192 16.0181C133.195 15.7252 134.267 15.7753 135.238 16.1603C133.724 16.5544 132.235 17.0378 130.778 17.608C130.547 17.671 130.342 17.8058 130.192 17.993C130.071 18.2556 130.053 18.5545 130.142 18.8298C131.213 23.8089 134.945 28.403 139.925 29.4574C140.761 29.6331 141.598 29.7084 142.494 29.8172C144.393 30.0599 146.268 30.4616 148.184 30.562C149.387 30.6475 150.596 30.5601 151.774 30.3026C152.075 30.2346 152.371 30.1479 152.661 30.0431V30.0431Z" fill="white"/>
<path d="M149.046 30.9889H148.108C146.857 30.8999 145.612 30.7463 144.376 30.5286C143.715 30.4282 143.054 30.3278 142.393 30.2441L141.774 30.1688C141.121 30.0851 140.452 30.0098 139.79 29.8675C134.945 28.8466 130.903 24.4617 129.749 18.9889C129.686 18.8012 129.662 18.6025 129.679 18.4052C129.697 18.2079 129.754 18.0164 129.849 17.8425C130.039 17.5885 130.306 17.4034 130.611 17.3153C131.598 16.922 132.602 16.5789 133.615 16.2692C133.162 16.2564 132.71 16.3157 132.276 16.445C132.2 16.4671 132.119 16.4653 132.044 16.4399C131.969 16.4144 131.904 16.3665 131.857 16.3027C131.812 16.2361 131.788 16.1574 131.788 16.0768C131.788 15.9962 131.812 15.9175 131.857 15.8508C133.29 13.905 135.145 12.309 137.283 11.1828C139.42 10.0567 141.786 9.42962 144.201 9.34876L142.083 7.62491C142.023 7.57374 141.98 7.50567 141.959 7.42956C141.938 7.35345 141.941 7.27281 141.966 7.19813C141.995 7.12396 142.046 7.06025 142.111 7.01543C142.177 6.97061 142.255 6.94678 142.334 6.94709C146.143 6.98493 149.787 8.49975 152.5 11.1723C155.214 13.8448 156.783 17.4663 156.878 21.2734C156.86 23.8924 156.09 26.451 154.661 28.6458C154.286 29.4528 153.623 30.0912 152.803 30.4366V30.4366C152.494 30.5619 152.175 30.6599 151.849 30.7295C150.928 30.9256 149.987 31.0126 149.046 30.9889V30.9889ZM133.498 15.4157C134.137 15.4178 134.77 15.5398 135.364 15.7755C135.438 15.8076 135.502 15.8616 135.545 15.9303C135.588 15.999 135.61 16.0793 135.606 16.1605C135.599 16.2397 135.568 16.3149 135.517 16.3762C135.467 16.4375 135.398 16.4819 135.322 16.5036C133.818 16.891 132.339 17.3717 130.895 17.9429C130.799 17.9459 130.707 17.9753 130.627 18.0279C130.547 18.0805 130.483 18.1542 130.442 18.2408C130.401 18.3274 130.385 18.4235 130.396 18.5187C130.406 18.6138 130.443 18.7041 130.502 18.7797C131.623 24.0014 135.431 28.1521 139.983 29.1144C140.611 29.2483 141.263 29.3236 141.891 29.3989L142.527 29.4742C143.188 29.5579 143.857 29.6667 144.527 29.7671C145.737 29.981 146.958 30.1318 148.184 30.219C149.351 30.3069 150.524 30.2194 151.665 29.9596C151.951 29.8963 152.23 29.8095 152.502 29.7002V29.7002C153.168 29.4222 153.702 28.8976 153.991 28.2357C155.344 26.1629 156.081 23.7486 156.117 21.2734C156.045 17.8571 154.718 14.5869 152.389 12.0866C150.06 9.58621 146.892 8.03077 143.489 7.71696L145.539 9.3906C145.601 9.44238 145.646 9.5119 145.667 9.58973C145.687 9.66756 145.684 9.74995 145.657 9.82574C145.632 9.90368 145.581 9.97056 145.512 10.0149C145.443 10.0591 145.361 10.0781 145.28 10.0684C142.972 9.98823 140.676 10.4323 138.564 11.3671C136.452 12.302 134.58 13.7033 133.088 15.4659L133.498 15.4157Z" fill="#231F20"/>
<path d="M142.461 37.5579C142.461 37.5579 142.612 46.311 146.729 46.5871C150.846 46.8633 150.913 38.8466 150.913 38.8466" fill="#231F20"/>
<path d="M146.929 46.9637H146.704C142.293 46.6708 142.093 37.9428 142.084 37.5746C142.076 37.521 142.08 37.4663 142.095 37.4142C142.11 37.3622 142.136 37.314 142.171 37.2729C142.207 37.2318 142.25 37.1989 142.3 37.1763C142.349 37.1537 142.402 37.142 142.457 37.142C142.511 37.142 142.564 37.1537 142.614 37.1763C142.663 37.1989 142.707 37.2318 142.742 37.2729C142.777 37.314 142.803 37.3622 142.818 37.4142C142.833 37.4663 142.837 37.521 142.829 37.5746C142.829 37.6583 143.021 45.9846 146.754 46.2356C147.078 46.2653 147.405 46.2237 147.711 46.1139C148.018 46.004 148.296 45.8285 148.528 45.5997C150.486 43.7921 150.578 38.9051 150.578 38.8549C150.584 38.7601 150.625 38.6708 150.693 38.6044C150.761 38.5379 150.851 38.499 150.946 38.4951C151.044 38.4951 151.137 38.5339 151.207 38.6029C151.276 38.672 151.314 38.7656 151.314 38.8633C151.314 39.0808 151.222 44.1185 149.03 46.1436C148.461 46.6771 147.709 46.9708 146.929 46.9637Z" fill="#231F20"/>
<path d="M150.56 33.3236L150.945 38.8466C150.945 38.8466 150.585 41.9595 147.163 41.2315C146.155 41.0071 145.21 40.561 144.397 39.9255C143.583 39.29 142.922 38.4812 142.46 37.5579C142.46 37.5579 141.623 24.3361 141.313 20.8215C143.772 20.5281 146.141 19.7213 148.267 18.4533C148.583 18.2112 148.929 18.0115 149.297 17.8592C149.983 17.7587 149.899 18.1437 150.2 18.696C150.75 19.7529 151.632 20.5998 152.711 21.106C152.849 21.1517 152.971 21.2359 153.062 21.3487C153.114 21.4408 153.143 21.5442 153.146 21.6499C153.498 24.8047 154.142 27.9428 153.69 31.1144C153.322 33.8257 150.56 33.3236 150.56 33.3236Z" fill="white"/>
<path d="M148.142 41.7252C147.787 41.7259 147.434 41.6866 147.088 41.6081C146.018 41.3764 145.015 40.9061 144.153 40.2323C143.291 39.5585 142.592 38.6986 142.109 37.7169C142.101 37.6726 142.101 37.6273 142.109 37.583C142.109 37.4491 141.272 24.3278 140.971 20.8466C140.964 20.7435 140.997 20.6415 141.063 20.5621C141.095 20.524 141.134 20.4932 141.179 20.4715C141.224 20.4499 141.272 20.438 141.322 20.4366C143.725 20.1461 146.04 19.3535 148.117 18.1102L148.402 17.9261C148.645 17.7172 148.93 17.5631 149.238 17.4742C149.362 17.4421 149.49 17.4354 149.616 17.4546C149.742 17.4738 149.863 17.5184 149.971 17.5857C150.079 17.6531 150.172 17.7417 150.245 17.8463C150.317 17.9509 150.368 18.0691 150.393 18.1939C150.434 18.315 150.484 18.4325 150.544 18.5454C151.047 19.5296 151.867 20.3163 152.87 20.7797C153.079 20.8552 153.26 20.9924 153.389 21.173C153.469 21.3137 153.515 21.4714 153.523 21.6332C153.598 22.311 153.69 22.9889 153.774 23.6583C154.22 26.1431 154.318 28.6778 154.067 31.1897C154.032 31.5729 153.918 31.9448 153.732 32.2818C153.546 32.6188 153.293 32.9137 152.987 33.1478C152.39 33.5401 151.685 33.7388 150.971 33.7169L151.322 38.788C151.269 39.2492 151.124 39.6952 150.897 40.1002C150.67 40.5052 150.365 40.8613 150 41.1478C149.459 41.5344 148.807 41.7368 148.142 41.7252ZM142.837 37.4658C143.281 38.3184 143.906 39.064 144.667 39.6507C145.429 40.2375 146.309 40.6512 147.247 40.8633C147.603 40.992 147.983 41.0386 148.359 40.9997C148.735 40.9608 149.098 40.8374 149.42 40.6386C149.742 40.4399 150.015 40.1709 150.218 39.8519C150.421 39.5329 150.55 39.1721 150.594 38.7964L150.209 33.357C150.204 33.3 150.212 33.2426 150.233 33.189C150.253 33.1354 150.285 33.0871 150.326 33.0474C150.37 33.0072 150.422 32.9773 150.478 32.9599C150.535 32.9426 150.594 32.9381 150.653 32.947C151.315 33.0452 151.991 32.9059 152.561 32.5537C152.782 32.3778 152.965 32.1587 153.098 31.9098C153.232 31.661 153.314 31.3875 153.339 31.106C153.568 28.6631 153.47 26.2006 153.046 23.7838C152.954 23.106 152.87 22.4282 152.795 21.742C152.795 21.742 152.795 21.6248 152.795 21.5997L152.619 21.5077C151.442 20.9779 150.478 20.0669 149.883 18.9219C149.811 18.7832 149.747 18.6408 149.69 18.4951C149.661 18.4085 149.625 18.3244 149.582 18.2441V18.2441C149.512 18.2367 149.442 18.2367 149.372 18.2441C149.173 18.3253 148.987 18.4353 148.82 18.5705C148.686 18.6541 148.569 18.7462 148.469 18.7964C146.413 20.0171 144.139 20.8244 141.774 21.173C142.025 24.9721 142.77 36.4282 142.837 37.4658V37.4658Z" fill="#231F20"/>
<path d="M150.72 36.0431C149.363 36.1507 148.015 35.7345 146.955 34.88C146.52 34.5252 146.168 34.0803 145.923 33.576C145.677 33.0718 145.544 32.5202 145.532 31.9595C147.068 32.8199 148.793 33.2884 150.553 33.3235L150.72 36.0431Z" fill="#231F20"/>
<path d="M150.301 36.4282C148.981 36.4544 147.696 35.9994 146.686 35.1478C146.211 34.7563 145.828 34.2659 145.562 33.711C145.296 33.156 145.154 32.5498 145.146 31.9344C145.153 31.8718 145.175 31.8118 145.21 31.7593C145.245 31.7069 145.292 31.6636 145.347 31.6332C145.402 31.6024 145.464 31.5862 145.527 31.5862C145.59 31.5862 145.652 31.6024 145.707 31.6332C147.184 32.475 148.845 32.9406 150.544 32.9888C150.641 32.9885 150.734 33.0244 150.805 33.0895C150.876 33.1546 150.921 33.2441 150.929 33.3403L151.071 36.0516C151.078 36.1457 151.048 36.2389 150.987 36.3109C150.926 36.3829 150.839 36.428 150.745 36.4365C150.597 36.4465 150.449 36.4437 150.301 36.4282V36.4282ZM145.95 32.5955C146.145 33.3749 146.574 34.0758 147.18 34.6039C148.062 35.3297 149.176 35.713 150.318 35.6834L150.209 33.7001C148.728 33.6295 147.278 33.2534 145.95 32.5955V32.5955Z" fill="#231F20"/>
<path d="M149.715 23.5244C149.715 23.5244 151.656 26.0349 151.263 26.5537C150.869 27.0725 149.673 26.8131 149.673 26.8131" fill="white"/>
<path d="M150.286 27.2399C150.058 27.242 149.831 27.2196 149.608 27.1729C149.56 27.1641 149.514 27.146 149.474 27.1196C149.433 27.0932 149.398 27.059 149.37 27.019C149.342 26.9789 149.323 26.9339 149.313 26.8863C149.303 26.8388 149.302 26.7897 149.311 26.7419C149.32 26.6941 149.338 26.6485 149.364 26.6077C149.391 26.5669 149.425 26.5317 149.465 26.5042C149.505 26.4766 149.55 26.4571 149.597 26.447C149.645 26.4368 149.694 26.4361 149.742 26.4449C150.152 26.5286 150.813 26.5286 150.98 26.3194C150.592 25.4007 150.067 24.5459 149.424 23.7838C149.394 23.7454 149.372 23.7015 149.359 23.6546C149.346 23.6077 149.343 23.5587 149.349 23.5104C149.355 23.4622 149.371 23.4157 149.395 23.3735C149.42 23.3314 149.452 23.2945 149.491 23.265C149.53 23.2355 149.574 23.2141 149.621 23.2019C149.668 23.1898 149.718 23.1871 149.766 23.1941C149.814 23.2011 149.861 23.2177 149.902 23.2428C149.944 23.2678 149.981 23.301 150.01 23.3403C151.415 25.1729 151.934 26.3445 151.558 26.8214C151.386 26.975 151.184 27.0914 150.965 27.1634C150.746 27.2354 150.515 27.2614 150.286 27.2399V27.2399Z" fill="#231F20"/>
<path d="M149.473 30.1102H149.322C147.473 30.0097 146.084 28.219 146.025 28.1436C145.996 28.1052 145.974 28.0612 145.961 28.0144C145.948 27.9675 145.945 27.9185 145.951 27.8704C145.957 27.8222 145.973 27.7757 145.997 27.7336C146.022 27.6914 146.054 27.6545 146.092 27.6248C146.131 27.5951 146.175 27.5733 146.221 27.5606C146.268 27.5479 146.317 27.5446 146.365 27.5508C146.414 27.557 146.46 27.5727 146.502 27.5969C146.544 27.6211 146.581 27.6533 146.611 27.6918C146.611 27.6918 147.858 29.2901 149.356 29.3654C149.751 29.3703 150.142 29.2847 150.499 29.1149C150.856 28.9452 151.169 28.696 151.414 28.3863C151.484 28.3198 151.577 28.2827 151.674 28.2827C151.77 28.2827 151.863 28.3198 151.933 28.3863C151.968 28.4206 151.996 28.4616 152.015 28.5069C152.034 28.5522 152.044 28.6008 152.044 28.6499C152.044 28.699 152.034 28.7477 152.015 28.7929C151.996 28.8382 151.968 28.8792 151.933 28.9135C151.631 29.275 151.255 29.5684 150.831 29.7747C150.407 29.9809 149.944 30.0952 149.473 30.1102Z" fill="#231F20"/>
<path d="M152.218 107.926L146.101 132.813C146.101 132.813 176.569 122.612 177.665 119.282C178.762 115.951 161.908 119.784 161.908 119.784L163.105 112.671L152.218 107.926Z" fill="white"/>
<path d="M146.099 133.231C146.036 133.231 145.974 133.216 145.918 133.188C145.861 133.159 145.812 133.119 145.773 133.069C145.734 133.019 145.708 132.961 145.695 132.899C145.682 132.838 145.683 132.774 145.698 132.712L151.807 107.825C151.821 107.766 151.848 107.71 151.887 107.662C151.925 107.614 151.973 107.575 152.028 107.548C152.084 107.521 152.144 107.506 152.205 107.505C152.267 107.504 152.328 107.516 152.384 107.541L163.263 112.286C163.347 112.324 163.417 112.389 163.463 112.47C163.508 112.552 163.526 112.645 163.514 112.738L162.434 119.24C165.781 118.503 176.175 116.395 177.857 118.252C177.999 118.404 178.095 118.594 178.132 118.799C178.169 119.004 178.146 119.215 178.066 119.407C176.936 122.846 149.38 132.16 146.267 133.206C146.214 133.228 146.156 133.237 146.099 133.231ZM152.501 108.512L146.694 132.169C158.409 128.21 176.526 121.382 177.271 119.148C177.33 118.947 177.271 118.871 177.229 118.813C176.083 117.549 167.279 118.989 161.999 120.194C161.932 120.208 161.863 120.205 161.797 120.186C161.732 120.167 161.672 120.132 161.622 120.085C161.572 120.037 161.534 119.978 161.512 119.912C161.49 119.847 161.485 119.777 161.497 119.708L162.643 112.922L152.501 108.512Z" fill="#231F20"/>
<path d="M126.761 80.0933C126.761 80.0933 122.535 97.6665 130.878 100.051C139.221 102.436 153.179 92.8966 153.179 92.8966L148.66 109.223C148.66 109.223 145.631 116.595 150.024 116.269C153.982 111.139 159.388 109.784 163.104 112.671C168.92 106.219 179.129 85.9511 172.535 78.9971C165.94 72.0431 126.761 80.0933 126.761 80.0933Z" fill="#231F20"/>
<path d="M149.748 116.671C149.377 116.696 149.005 116.629 148.667 116.476C148.328 116.322 148.032 116.087 147.806 115.792C146.392 113.851 148.242 109.307 148.317 109.097L152.56 93.767C149.405 95.7837 138.108 102.52 130.802 100.462C122.217 98.0096 126.25 80.7879 126.426 80.0599C126.442 79.9915 126.477 79.9292 126.528 79.8802C126.578 79.8313 126.641 79.7978 126.71 79.7837C128.325 79.449 166.175 71.767 172.827 78.7963C179.48 85.8255 169.48 106.252 163.405 112.964C163.343 113.034 163.257 113.079 163.164 113.088C163.07 113.098 162.977 113.071 162.903 113.014C162.198 112.464 161.391 112.061 160.529 111.828C159.667 111.596 158.767 111.538 157.882 111.658C155.204 112.001 152.543 113.733 150.35 116.545C150.32 116.586 150.281 116.62 150.236 116.645C150.192 116.669 150.142 116.684 150.091 116.687L149.748 116.671ZM153.179 92.5536C153.258 92.5542 153.334 92.5806 153.396 92.6289C153.458 92.6714 153.505 92.7322 153.53 92.8027C153.556 92.8733 153.559 92.95 153.539 93.0222L149.045 109.323C148.543 110.57 147.463 113.993 148.442 115.34C148.611 115.549 148.83 115.711 149.079 115.811C149.328 115.91 149.599 115.944 149.865 115.909C152.141 113.022 154.936 111.24 157.765 110.888C159.638 110.621 161.543 111.082 163.087 112.177C168.861 105.541 178.526 85.8339 172.292 79.2565C166.057 72.6791 130.342 79.767 127.104 80.4197C126.652 82.4699 123.606 97.5912 131.011 99.6665C139.078 101.968 152.869 92.654 153.003 92.5619C153.058 92.5371 153.118 92.5257 153.179 92.5285V92.5536Z" fill="#231F20"/>
<path d="M146.101 132.813C146.101 132.813 149.448 136.093 158.988 132.813C168.527 129.533 180.578 120.738 177.665 119.282C174.753 117.825 149.331 128.219 146.101 132.813Z" fill="#231F20"/>
<path d="M151.398 134.646C147.523 134.646 145.942 133.164 145.85 133.072C145.786 133.012 145.746 132.931 145.736 132.843C145.727 132.756 145.75 132.668 145.8 132.595C148.98 128.085 174.427 117.24 177.833 118.947C178.04 119.041 178.213 119.197 178.329 119.393C178.444 119.589 178.496 119.816 178.477 120.043C178.277 122.938 167.423 130.294 159.113 133.164C156.64 134.079 154.034 134.579 151.398 134.646V134.646ZM146.628 132.746C147.574 133.374 151.147 135.123 158.871 132.461C167.239 129.574 177.582 122.353 177.741 119.993C177.75 119.911 177.73 119.828 177.686 119.758C177.642 119.689 177.576 119.636 177.498 119.608C174.988 118.344 150.603 128.085 146.628 132.746V132.746Z" fill="#231F20"/>
<path d="M163.272 118.202C161.07 119.02 158.935 120.008 156.887 121.156L157.23 117.307C157.23 117.307 162.175 114.905 163.272 115.047V118.202Z" fill="white"/>
<path d="M156.903 121.574C156.829 121.575 156.757 121.555 156.694 121.516C156.625 121.476 156.569 121.416 156.534 121.345C156.498 121.274 156.484 121.193 156.493 121.114L156.836 117.273C156.841 117.202 156.864 117.134 156.904 117.075C156.944 117.017 156.998 116.969 157.062 116.939C157.899 116.528 162.192 114.495 163.347 114.629C163.448 114.641 163.541 114.691 163.607 114.768C163.674 114.846 163.709 114.945 163.706 115.047V118.202C163.706 118.287 163.68 118.369 163.632 118.44C163.585 118.51 163.517 118.564 163.439 118.595C161.267 119.403 159.16 120.377 157.137 121.508C157.067 121.551 156.986 121.574 156.903 121.574V121.574ZM157.648 117.583L157.397 120.369C159.173 119.449 161 118.631 162.87 117.918V115.491C161.072 116.036 159.325 116.736 157.648 117.583V117.583Z" fill="#231F20"/>
<path d="M137.021 38.2943C137.021 38.2943 106.804 50.562 104.243 54.0097C101.682 57.4574 97.2891 78.3611 97.2891 78.3611L106.419 77.0473C106.419 77.0473 114.678 64.0766 117.239 61.3319C119.799 58.5871 134.268 54.7461 134.268 54.7461L137.021 38.2943Z" fill="#333333"/>
<path d="M111.39 71.131L105.248 81.6414C105.248 81.6414 110.469 85.8255 109.198 86.5117C107.926 87.1979 106.687 87.7418 106.687 87.7418C106.687 87.7418 106.553 91.1812 105.013 91.5912C103.474 92.0013 94.8796 91.2397 95.2645 88.2941C96.6034 78.1352 98.2687 66.5787 98.1599 67.9009L111.39 71.131Z" fill="white"/>
<path d="M103.809 92.1101C101.507 92.1101 97.3734 91.5327 95.6914 90.0599C95.4121 89.8512 95.1924 89.5729 95.0544 89.2528C94.9163 88.9327 94.8647 88.5819 94.9048 88.2356C95.4654 83.926 96.16 78.8716 96.796 74.3779C97.3566 70.4532 97.6328 68.7126 97.7918 67.9511C97.7876 67.9206 97.7876 67.8896 97.7918 67.8591C97.7872 67.8783 97.7872 67.8984 97.7918 67.9176C97.934 67.3486 98.0428 67.357 98.2437 67.3821C98.303 67.3864 98.3607 67.4037 98.4127 67.4326C98.4648 67.4615 98.5099 67.5014 98.5449 67.5494L111.474 70.721C111.536 70.7377 111.594 70.7682 111.643 70.8102C111.693 70.8522 111.732 70.9046 111.758 70.9637C111.787 71.0222 111.802 71.0867 111.802 71.1519C111.802 71.2172 111.787 71.2816 111.758 71.3402L105.783 81.5243C107.039 82.5536 109.909 85.0389 109.8 86.2356C109.789 86.3669 109.744 86.4932 109.671 86.6028C109.598 86.7125 109.498 86.802 109.382 86.8632C108.444 87.3653 107.532 87.8088 107.114 88.0013C107.047 88.8967 106.721 91.5578 105.181 91.9762C104.73 92.074 104.27 92.1189 103.809 92.1101V92.1101ZM98.5198 68.4114C98.1684 70.6122 96.8462 79.6582 95.7332 88.3444C95.7165 88.5544 95.7548 88.7652 95.8443 88.9559C95.9338 89.1467 96.0715 89.3108 96.2437 89.4322C98.1014 91.0557 103.775 91.4992 104.955 91.1812C105.951 90.9134 106.26 88.5369 106.294 87.7251C106.298 87.6487 106.322 87.5747 106.365 87.5113C106.408 87.4479 106.467 87.3974 106.537 87.3653C106.537 87.3653 107.742 86.813 108.988 86.1435C109.039 85.7 107.173 83.7251 104.98 81.9595C104.901 81.898 104.847 81.8095 104.828 81.7108C104.81 81.6121 104.828 81.51 104.88 81.4239L110.737 71.3821L98.5198 68.4114Z" fill="#231F20"/>
<path d="M192.821 27.9177C192.821 27.4993 188.695 13.4658 188.695 13.4658L197.624 10.3361C197.624 10.3361 197.49 7.03906 199.407 5.80057C201.323 4.56208 203.942 5.80057 203.942 5.80057C203.942 5.80057 211.766 -0.785195 212.729 0.587188C213.691 1.95957 210.804 4.98048 206.411 8.11855C206.411 8.11855 208.745 14.7127 206.135 16.7713C204.607 17.9948 202.753 18.7426 200.804 18.9219L192.821 27.9177Z" fill="white"/>
<path d="M192.821 28.3361C192.771 28.3441 192.72 28.3441 192.67 28.3361C192.594 28.3081 192.528 28.2581 192.481 28.1926C192.433 28.1271 192.406 28.0489 192.403 27.9679C192.311 27.3821 189.892 19.0725 188.294 13.6081C188.266 13.5038 188.278 13.393 188.328 13.2971C188.377 13.2013 188.461 13.1272 188.562 13.0893L197.206 10.06C197.206 9.16461 197.432 6.60395 199.181 5.47424C200.93 4.34454 203.131 5.04746 203.867 5.34035C205.365 4.09349 210.67 -0.232862 212.453 0.00981535C212.575 0.0229472 212.694 0.0617761 212.801 0.123774C212.907 0.185772 213 0.269549 213.072 0.369648C214.461 2.35291 209.926 6.12696 206.905 8.31942C207.34 9.68344 208.905 15.1646 206.394 17.1395C204.843 18.3759 202.976 19.1503 201.005 19.3738L193.131 28.219C193.09 28.2585 193.041 28.2893 192.988 28.3095C192.935 28.3296 192.878 28.3387 192.821 28.3361ZM189.214 13.742C190.495 18.1269 192.411 24.696 193.03 27.0642L200.495 18.696C200.571 18.6131 200.675 18.5623 200.787 18.5537C202.647 18.3745 204.414 17.6594 205.875 16.4951C207.825 14.9554 206.637 10.0684 206.018 8.31105C205.988 8.22593 205.987 8.13352 206.014 8.04757C206.041 7.96163 206.095 7.88674 206.168 7.83407C211.273 4.1688 212.963 1.68345 212.386 0.855002C211.792 0.49517 207.984 2.98052 204.21 6.16043C204.149 6.21074 204.074 6.24226 203.996 6.25117C203.917 6.26008 203.837 6.246 203.767 6.21064C203.767 6.21064 201.331 5.09767 199.633 6.21064C197.934 7.32361 198.043 10.3445 198.043 10.3947C198.046 10.4846 198.02 10.573 197.968 10.6468C197.917 10.7207 197.843 10.7761 197.758 10.8048L189.214 13.742Z" fill="#231F20"/>
<path d="M158.545 69.3569H158.47C158.37 69.3367 158.282 69.2778 158.226 69.1932C158.169 69.1085 158.149 69.0049 158.168 68.905C160.62 56.8381 162.947 35.1394 162.83 34.085C162.817 34.0377 162.814 33.9885 162.821 33.94C162.827 33.8916 162.844 33.845 162.869 33.8029C162.894 33.7609 162.927 33.7242 162.966 33.695C163.005 33.6659 163.05 33.6448 163.097 33.6331C163.198 33.6078 163.305 33.6235 163.395 33.6768C163.484 33.7301 163.549 33.8167 163.574 33.9176C163.783 34.6959 161.373 56.9804 158.922 69.064C158.9 69.1474 158.851 69.2212 158.783 69.2741C158.715 69.327 158.631 69.3561 158.545 69.3569V69.3569Z" fill="#231F20"/>
<path d="M119.958 59.3487C119.869 59.3462 119.784 59.3128 119.716 59.2543C119.649 59.1958 119.604 59.1158 119.589 59.0279C119.575 58.94 119.591 58.8496 119.635 58.7723C119.679 58.695 119.749 58.6355 119.833 58.6039L136.895 52.9972C136.989 52.9741 137.089 52.9871 137.173 53.0338C137.258 53.0805 137.322 53.1574 137.353 53.2492C137.383 53.341 137.378 53.441 137.338 53.5292C137.299 53.6174 137.227 53.6874 137.138 53.7252L120.075 59.3319C120.038 59.3452 119.998 59.3509 119.958 59.3487Z" fill="#231F20"/>
<path d="M204.1 14.5788C204.028 14.5868 203.955 14.5868 203.883 14.5788C203.235 14.4384 202.635 14.1336 202.14 13.6939C201.644 13.2542 201.271 12.6944 201.054 12.0683C200.995 12.6192 200.778 13.1412 200.429 13.5716C200.08 14.0021 199.614 14.3228 199.088 14.4951C199.04 14.511 198.989 14.5169 198.939 14.5124C198.889 14.5079 198.84 14.4932 198.796 14.4691C198.751 14.4449 198.713 14.412 198.681 14.3722C198.65 14.3325 198.628 14.2868 198.615 14.2379C198.603 14.1891 198.6 14.1382 198.608 14.0884C198.616 14.0385 198.634 13.9909 198.661 13.9483C198.688 13.9057 198.723 13.8691 198.765 13.8408C198.807 13.8126 198.854 13.7931 198.904 13.7838C200.77 13.2985 200.443 10.0432 200.435 10.0098C200.426 9.91242 200.454 9.81519 200.515 9.73866C200.576 9.66213 200.664 9.6123 200.761 9.59972C200.857 9.59205 200.952 9.62041 201.028 9.67924C201.104 9.73807 201.155 9.82313 201.171 9.91772C201.171 9.91772 201.69 13.4324 203.991 13.7754C204.068 13.7958 204.149 13.794 204.224 13.7703C204.3 13.7466 204.367 13.702 204.418 13.6416C205.255 12.7211 204.335 8.39471 203.581 5.89262C203.553 5.7994 203.562 5.69858 203.608 5.61229C203.653 5.52599 203.731 5.46128 203.824 5.43237C203.871 5.41828 203.92 5.41362 203.968 5.41865C204.017 5.42367 204.064 5.43829 204.107 5.46165C204.15 5.485 204.187 5.51664 204.218 5.55471C204.248 5.59278 204.271 5.63653 204.284 5.68341C204.494 6.38634 206.293 12.5955 204.962 14.1269C204.862 14.2626 204.733 14.3738 204.583 14.4521C204.434 14.5303 204.269 14.5737 204.1 14.5788V14.5788Z" fill="#231F20"/>
<path d="M15.3894 128.712C14.1342 126.202 1.88316 105.123 0.000318079 91.6163C0.000318079 91.6163 -0.217255 117.934 10.7283 131.482C21.6739 145.03 15.3894 128.712 15.3894 128.712Z" fill="#D1D3D4"/>
<path d="M143.891 22.4616L139.674 24.2775V25.198L145.373 23.5244L143.891 22.4616Z" fill="#231F20"/>
<path d="M139.674 25.5663C139.592 25.5669 139.513 25.5404 139.448 25.491C139.403 25.4568 139.367 25.4124 139.342 25.3615C139.317 25.3106 139.305 25.2546 139.306 25.1981V24.2776C139.304 24.2053 139.324 24.1343 139.363 24.0733C139.402 24.0123 139.457 23.964 139.523 23.9345L143.707 22.1186C143.766 22.0939 143.83 22.0849 143.893 22.0922C143.956 22.0995 144.016 22.123 144.067 22.1604L145.548 23.2315C145.603 23.2724 145.645 23.3277 145.671 23.3913C145.696 23.4548 145.703 23.5241 145.691 23.5914C145.68 23.66 145.65 23.7242 145.604 23.7762C145.558 23.8281 145.498 23.8657 145.431 23.8843L139.733 25.5579L139.674 25.5663ZM140.042 24.5202V24.7043L144.544 23.3822L143.85 22.8801L140.042 24.5202Z" fill="#231F20"/>
<path d="M142.51 25.9679C141.874 25.1813 140.837 23.742 139.674 24.2943C139.356 24.4433 139.085 24.6745 138.887 24.9637C138.496 25.5573 138.293 26.255 138.305 26.9657C138.317 27.6764 138.543 28.3669 138.954 28.947C139.582 30.0181 141.464 31.5746 142.552 30.1102" fill="white"/>
<path d="M141.44 31.0726H141.331C140.768 30.9599 140.234 30.7286 139.767 30.3938C139.299 30.0591 138.908 29.6287 138.62 29.1311C138.175 28.4802 137.938 27.7103 137.938 26.9219C137.938 26.1336 138.175 25.3637 138.62 24.7127C138.858 24.3724 139.181 24.101 139.557 23.9261C140.93 23.3153 142.068 24.7044 142.695 25.5328L142.846 25.7253C142.91 25.8048 142.94 25.9059 142.931 26.0074C142.921 26.1089 142.873 26.2027 142.796 26.2692C142.756 26.3013 142.711 26.3253 142.662 26.3397C142.613 26.3542 142.562 26.3588 142.512 26.3534C142.461 26.3479 142.412 26.3325 142.367 26.308C142.323 26.2835 142.284 26.2504 142.252 26.2106L142.093 26.0098C141.356 25.0809 140.628 24.286 139.867 24.6207C139.611 24.7476 139.392 24.9377 139.231 25.173C138.887 25.7079 138.712 26.3339 138.729 26.9696C138.745 27.6053 138.952 28.2213 139.323 28.7378C139.544 29.1297 139.844 29.4712 140.204 29.7406C140.564 30.01 140.977 30.2014 141.415 30.3027C141.58 30.3033 141.743 30.2631 141.889 30.1858C142.035 30.1084 142.16 29.9962 142.252 29.8592C142.315 29.78 142.406 29.7286 142.506 29.7161C142.606 29.7036 142.707 29.7309 142.787 29.7922C142.828 29.8226 142.861 29.8607 142.886 29.9042C142.912 29.9478 142.928 29.996 142.934 30.0459C142.94 30.0958 142.936 30.1465 142.923 30.1949C142.909 30.2433 142.886 30.2885 142.854 30.3278C142.695 30.5554 142.483 30.7417 142.237 30.8712C141.991 31.0007 141.718 31.0697 141.44 31.0726V31.0726Z" fill="#231F20"/>
<path d="M146.647 24.1554C148.053 24.0059 149.1 23.0091 148.985 21.9291C148.87 20.8492 147.637 20.0949 146.231 20.2444C144.825 20.394 143.778 21.3907 143.893 22.4707C144.007 23.5507 145.24 24.305 146.647 24.1554Z" fill="white"/>
<path d="M146.301 24.5537C145.667 24.6091 145.034 24.4315 144.521 24.0541C144.008 23.6768 143.65 23.1256 143.514 22.5035C143.372 21.2148 144.577 19.993 146.192 19.8508C146.921 19.7664 147.657 19.919 148.293 20.2859C148.584 20.448 148.832 20.6764 149.018 20.9527C149.205 21.229 149.323 21.5453 149.364 21.8759C149.506 23.1646 148.301 24.3863 146.686 24.5286C146.558 24.5453 146.43 24.5537 146.301 24.5537ZM146.585 20.5955H146.267C145.079 20.7211 144.184 21.5328 144.276 22.4031C144.368 23.2734 145.406 23.8759 146.611 23.7504C147.816 23.6248 148.703 22.8131 148.611 21.9428C148.576 21.7291 148.493 21.5261 148.369 21.3492C148.244 21.1722 148.081 21.0261 147.891 20.9219C147.494 20.6964 147.042 20.5835 146.585 20.5955V20.5955Z" fill="#231F20"/>
<path d="M151.888 23.9041C153.294 23.7545 154.341 22.7578 154.226 21.6778C154.112 20.5978 152.878 19.8435 151.472 19.9931C150.066 20.1426 149.019 21.1394 149.134 22.2194C149.249 23.2993 150.482 24.0536 151.888 23.9041Z" fill="white"/>
<path d="M151.556 24.3027C150.921 24.358 150.288 24.1804 149.776 23.8031C149.263 23.4257 148.905 22.8745 148.769 22.2524C148.635 20.9637 149.84 19.742 151.447 19.5997C153.053 19.4575 154.493 20.3361 154.627 21.6248C154.761 22.9135 153.564 24.1353 151.949 24.2692L151.556 24.3027ZM151.848 20.3445H151.53C150.334 20.47 149.438 21.2817 149.53 22.152C149.623 23.0223 150.677 23.6248 151.865 23.4993C153.053 23.3738 153.957 22.5621 153.865 21.6918C153.746 21.2597 153.474 20.8853 153.101 20.6376C152.727 20.39 152.276 20.2859 151.832 20.3445H151.848Z" fill="#231F20"/>
<path d="M46.7191 113.039C48.8496 113.039 50.5768 111.312 50.5768 109.181C50.5768 107.051 48.8496 105.323 46.7191 105.323C44.5885 105.323 42.8613 107.051 42.8613 109.181C42.8613 111.312 44.5885 113.039 46.7191 113.039Z" fill="white"/>
<path d="M46.7206 113.457C45.8729 113.459 45.0437 113.209 44.338 112.739C43.6323 112.27 43.0818 111.601 42.7563 110.818C42.4307 110.035 42.3447 109.174 42.509 108.342C42.6734 107.51 43.0808 106.746 43.6797 106.146C44.2785 105.546 45.042 105.137 45.8733 104.971C46.7046 104.805 47.5665 104.89 48.3499 105.214C49.1333 105.538 49.8029 106.087 50.2741 106.792C50.7453 107.496 50.9968 108.325 50.9968 109.173C50.9968 110.308 50.5465 111.396 49.7448 112.199C48.9431 113.003 47.8555 113.455 46.7206 113.457ZM46.7206 105.733C46.038 105.732 45.3703 105.933 44.802 106.311C44.2338 106.689 43.7906 107.228 43.5286 107.858C43.2666 108.488 43.1976 109.182 43.3304 109.852C43.4632 110.521 43.7917 111.136 44.2744 111.619C44.757 112.102 45.3721 112.43 46.0417 112.563C46.7113 112.696 47.4052 112.627 48.0355 112.365C48.6658 112.103 49.2042 111.66 49.5824 111.091C49.9606 110.523 50.1616 109.855 50.1599 109.173C50.1577 108.261 49.7947 107.388 49.1501 106.743C48.5056 106.099 47.6321 105.736 46.7206 105.733V105.733Z" fill="#D1D3D4"/>
<path d="M192.101 63.6415C193.169 63.6415 194.034 62.776 194.034 61.7084C194.034 60.6408 193.169 59.7754 192.101 59.7754C191.033 59.7754 190.168 60.6408 190.168 61.7084C190.168 62.776 191.033 63.6415 192.101 63.6415Z" fill="white"/>
<path d="M192.1 64.0599C191.635 64.0616 191.179 63.9251 190.791 63.6677C190.404 63.4103 190.101 63.0436 189.922 62.6141C189.742 62.1846 189.695 61.7115 189.784 61.2548C189.874 60.7982 190.097 60.3784 190.426 60.0487C190.755 59.719 191.174 59.4942 191.63 59.4028C192.086 59.3114 192.559 59.3575 192.99 59.5352C193.42 59.7129 193.788 60.0143 194.046 60.4012C194.305 60.788 194.443 61.243 194.443 61.7084C194.443 62.3306 194.197 62.9275 193.757 63.3682C193.318 63.809 192.722 64.0577 192.1 64.0599V64.0599ZM192.1 60.1938C191.8 60.1921 191.506 60.2796 191.256 60.445C191.006 60.6104 190.811 60.8464 190.695 61.123C190.579 61.3996 190.548 61.7044 190.605 61.9988C190.663 62.2931 190.806 62.5638 191.018 62.7765C191.229 62.9891 191.499 63.1342 191.793 63.1933C192.087 63.2525 192.392 63.223 192.669 63.1086C192.947 62.9942 193.184 62.8001 193.35 62.5508C193.517 62.3015 193.606 62.0084 193.606 61.7084C193.606 61.3082 193.448 60.9242 193.166 60.6404C192.883 60.3566 192.5 60.196 192.1 60.1938V60.1938Z" fill="#D1D3D4"/>
<path d="M219.456 57.2232C221.587 57.2232 223.314 55.496 223.314 53.3654C223.314 51.2349 221.587 49.5077 219.456 49.5077C217.326 49.5077 215.599 51.2349 215.599 53.3654C215.599 55.496 217.326 57.2232 219.456 57.2232Z" fill="#D1D3D4"/>
<path d="M225.849 196.662C237.852 196.662 247.582 186.932 247.582 174.93C247.582 162.928 237.852 153.198 225.849 153.198C213.847 153.198 204.117 162.928 204.117 174.93C204.117 186.932 213.847 196.662 225.849 196.662Z" fill="white"/>
<path d="M225.857 197.081C221.729 197.08 217.684 195.927 214.177 193.75C210.67 191.574 207.84 188.46 206.008 184.761C204.176 181.063 203.414 176.925 203.808 172.816C204.202 168.708 205.736 164.79 208.237 161.507C210.739 158.224 214.108 155.704 217.965 154.233C221.821 152.763 226.012 152.399 230.065 153.183C234.117 153.967 237.87 155.867 240.9 158.671C243.93 161.474 246.116 165.068 247.213 169.047V169.047C248.117 172.335 248.25 175.788 247.601 179.136C246.953 182.484 245.54 185.637 243.474 188.35C241.407 191.062 238.742 193.262 235.687 194.776C232.631 196.29 229.267 197.079 225.857 197.081V197.081ZM225.857 153.608C221.396 153.607 217.046 155.005 213.421 157.606C209.796 160.207 207.079 163.879 205.651 168.106C204.223 172.333 204.157 176.901 205.462 181.167C206.767 185.434 209.378 189.183 212.926 191.888C216.474 194.592 220.781 196.116 225.241 196.243C229.701 196.371 234.088 195.097 237.785 192.6C241.483 190.102 244.303 186.508 245.85 182.324C247.398 178.139 247.593 173.575 246.409 169.273V169.273C245.165 164.774 242.482 160.806 238.768 157.976C235.055 155.147 230.517 153.613 225.849 153.608H225.857Z" fill="#D1D3D4"/>
<path d="M199.682 186.821C195.799 186.821 192.285 186.261 191.749 184.311C190.887 181.106 199.013 176.922 203.958 174.696C204.06 174.651 204.176 174.649 204.279 174.69C204.383 174.731 204.466 174.811 204.51 174.913C204.555 175.015 204.557 175.131 204.516 175.234C204.475 175.338 204.395 175.421 204.293 175.466C195.021 179.591 192.151 182.62 192.577 184.085C193.004 185.549 197.004 186.696 207.071 185.491C220.954 183.62 234.523 179.893 247.414 174.411C256.678 170.302 259.548 167.265 259.13 165.792C258.711 164.319 254.711 163.189 244.636 164.394C244.525 164.408 244.413 164.376 244.325 164.307C244.237 164.238 244.181 164.137 244.167 164.026C244.154 163.915 244.185 163.804 244.254 163.716C244.323 163.628 244.424 163.571 244.535 163.558C249.908 162.913 259.046 162.328 259.933 165.566C260.82 168.804 252.678 172.98 247.74 175.164C234.768 180.702 221.108 184.463 207.13 186.344C204.658 186.646 202.172 186.806 199.682 186.821V186.821Z" fill="#D1D3D4"/>
<path d="M181.682 169.215C181.571 169.215 181.465 169.17 181.386 169.092C181.308 169.013 181.264 168.907 181.264 168.796V163.867C181.264 163.756 181.308 163.65 181.386 163.571C181.465 163.493 181.571 163.449 181.682 163.449C181.793 163.449 181.899 163.493 181.978 163.571C182.056 163.65 182.1 163.756 182.1 163.867V168.796C182.1 168.907 182.056 169.013 181.978 169.092C181.899 169.17 181.793 169.215 181.682 169.215Z" fill="#D1D3D4"/>
<path d="M184.193 166.746H179.264C179.153 166.746 179.047 166.702 178.968 166.623C178.89 166.545 178.846 166.438 178.846 166.327C178.848 166.217 178.893 166.112 178.971 166.034C179.049 165.956 179.154 165.911 179.264 165.909H184.193C184.304 165.909 184.41 165.953 184.489 166.032C184.567 166.11 184.611 166.216 184.611 166.327C184.611 166.438 184.567 166.545 184.489 166.623C184.41 166.702 184.304 166.746 184.193 166.746Z" fill="#D1D3D4"/>
<path d="M238.719 69.3904C238.608 69.3904 238.502 69.3464 238.423 69.2679C238.345 69.1894 238.301 69.083 238.301 68.972V64.0432C238.301 63.9322 238.345 63.8258 238.423 63.7473C238.502 63.6688 238.608 63.6248 238.719 63.6248C238.83 63.6248 238.937 63.6688 239.015 63.7473C239.094 63.8258 239.138 63.9322 239.138 64.0432V68.972C239.138 69.083 239.094 69.1894 239.015 69.2679C238.937 69.3464 238.83 69.3904 238.719 69.3904Z" fill="#D1D3D4"/>
<path d="M241.188 66.9302H236.259C236.148 66.9302 236.042 66.8861 235.963 66.8077C235.885 66.7292 235.841 66.6228 235.841 66.5118C235.841 66.4008 235.885 66.2944 235.963 66.2159C236.042 66.1375 236.148 66.0934 236.259 66.0934H241.188C241.299 66.0934 241.405 66.1375 241.484 66.2159C241.562 66.2944 241.606 66.4008 241.606 66.5118C241.604 66.6221 241.56 66.7273 241.482 66.8053C241.404 66.8833 241.298 66.9281 241.188 66.9302Z" fill="#D1D3D4"/>
<path d="M30.8959 177.432C30.785 177.432 30.6786 177.388 30.6001 177.31C30.5216 177.231 30.4775 177.125 30.4775 177.014V172.085C30.4775 171.974 30.5216 171.867 30.6001 171.789C30.6786 171.711 30.785 171.666 30.8959 171.666C31.0069 171.666 31.1133 171.711 31.1918 171.789C31.2703 171.867 31.3144 171.974 31.3144 172.085V177.014C31.3144 177.125 31.2703 177.231 31.1918 177.31C31.1133 177.388 31.0069 177.432 30.8959 177.432Z" fill="#D1D3D4"/>
<path d="M33.357 174.972H28.4282C28.3179 174.97 28.2127 174.925 28.1347 174.847C28.0567 174.769 28.0119 174.664 28.0098 174.553C28.0098 174.442 28.0538 174.336 28.1323 174.258C28.2108 174.179 28.3172 174.135 28.4282 174.135H33.357C33.468 174.135 33.5744 174.179 33.6529 174.258C33.7314 174.336 33.7754 174.442 33.7754 174.553C33.7754 174.664 33.7314 174.771 33.6529 174.849C33.5744 174.928 33.468 174.972 33.357 174.972Z" fill="#D1D3D4"/>
<path d="M80.5776 71.8591C80.4666 71.8591 80.3602 71.815 80.2817 71.7365C80.2033 71.658 80.1592 71.5516 80.1592 71.4407V66.5118C80.1592 66.4008 80.2033 66.2944 80.2817 66.2159C80.3602 66.1375 80.4666 66.0934 80.5776 66.0934C80.6886 66.0934 80.795 66.1375 80.8735 66.2159C80.9519 66.2944 80.996 66.4008 80.996 66.5118V71.4825C80.9856 71.5861 80.937 71.682 80.8596 71.7517C80.7822 71.8213 80.6817 71.8596 80.5776 71.8591Z" fill="#D1D3D4"/>
<path d="M83.0377 69.3905H78.1088C77.9979 69.3905 77.8915 69.3464 77.813 69.2679C77.7345 69.1895 77.6904 69.083 77.6904 68.9721C77.6904 68.8611 77.7345 68.7547 77.813 68.6762C77.8915 68.5977 77.9979 68.5536 78.1088 68.5536H83.0377C83.1487 68.5536 83.2551 68.5977 83.3336 68.6762C83.412 68.7547 83.4561 68.8611 83.4561 68.9721C83.4561 69.083 83.412 69.1895 83.3336 69.2679C83.2551 69.3464 83.1487 69.3905 83.0377 69.3905Z" fill="#D1D3D4"/>
</svg>
